<svg xmlns="http://www.w3.org/2000/svg" viewBox="0 0 78.18 37.06"><defs><style>.cls-1{fill:#83727a;}.cls-2{fill:#695a69;}.cls-3{fill:#c8b2a8;}.cls-4{fill:#d9fff8;}.cls-5{fill:#a08a8a;}.cls-6{fill:#dfd0c6;}.cls-7{fill:none;stroke:#83727a;stroke-miterlimit:10;}</style></defs><g id="Слой_2" data-name="Слой 2"><g id="Слой_1-2" data-name="Слой 1"><path d="M57.18 5.5l-1.43 2.17-.47-.71 1.97-2.95h.69v12.71h-.76V5.5zm5.94-1.68c2.38 0 3.29 3.53 3.29 6.56S65.5 17 63.12 17s-3.3-3.56-3.3-6.58.89-6.56 3.3-6.56m0 1c-1.88 0-2.5 2.94-2.5 5.57s.62 5.57 2.5 5.57 2.47-3 2.47-5.58-.59-5.61-2.47-5.61m8.12-.99c2.38 0 3.29 3.53 3.29 6.56S73.62 17 71.24 17s-3.3-3.56-3.3-6.58.89-6.56 3.3-6.56m0 1c-1.88 0-2.5 2.94-2.5 5.57s.62 5.57 2.5 5.57 2.47-3 2.47-5.58-.6-5.57-2.47-5.57" class="cls-1"/><path d="M26.69 21.43v-1.38l-9.66 1.93h10.22l-.56-.55zm22.65.55h10.21l-9.66-1.93v1.38l-.55.55z" class="cls-2"/><path d="M32.77 16.46v-1.93h2.76v.68l2.76-1.51 2.76 1.51v-.68h2.76v2.2l3 1.66V8.73H29.73v9.66l3-1.66zm8.28-5V9.28h2.76v4.14h-2.76zm-4.14 0V9.28h2.76v4.14h-2.76zm-4.14 0V9.28h2.76v4.14h-2.76z" class="cls-3"/><path d="M32.77 14.53v2.2l.48-.27h-.2V14.8h.55v1.47l.27-.15V14.8h.56v1.02l.27-.15v-.87h.55v.56l.28-.15v-.68h-2.76z" class="cls-2"/><path d="M33.87 14.8v.83l.32.32.24-.13V14.8h-.56zm.83 0v.87l.55-.31v-.56h-.55zm-1.1 0h-.55l.55.56v-.56z" class="cls-4"/><path d="M33.87 16.12l.32-.17-.32-.32v.49zm-.82-1.32v1.66h.2l.35-.19v-.91l-.55-.56z" class="cls-4"/><path d="M43.81 14.53h-2.76v.68l.28.15v-.56h.55v.87l.28.15V14.8h.55v1.32l.28.15V14.8h.55v1.66h-.2l.47.27v-2.2z" class="cls-2"/><path d="M42.16 14.8v.83l.4.41.15.08V14.8h-.55zm-.28 0h-.55l.55.56v-.56zm1.66 0h-.55v1.47l.34.19h.21V14.8zm-2.21 0v.56l.55.31v-.31l-.55-.56z" class="cls-4"/><path d="M42.16 15.82l.4.22-.4-.41v.19z" class="cls-4"/><path d="M29.73 7.9h17.12v.83H29.73z" class="cls-5"/><path d="M49.34 31.93H48v1.66h1.38l.95 1.1h9.27V22.81H49.34zm5.8-6.08v-2.21h2.76v4.14h-2.76zm0 5.52v-2.21h2.76v4.14h-2.76zM51 25.85v-2.21h2.76v4.14H51zm0 5.52v-2.21h2.76v4.14H51zm-23.75 2.21h1.38v-1.65h-1.38v-9.12H17v11.88h9.11zm-5.8-2.48v2.21h-2.76v-4.15h2.76zm0-5.52v2.21h-2.76v-4.15h2.76zm4.14 5.52v2.21h-2.76v-4.15h2.76zm0-5.25v1.93h-2.76v-4.14h2.76v2.21z" class="cls-3"/><path d="M38.29 2.53l-6.77 3.71h13.55l-6.78-3.71zm9.8 17.8l-9.8-5.37-9.8 5.37h19.6z" class="cls-6"/><path d="M31.39 21.98h-2.76v1.66h2.76v4.14h-2.76v5.8h2.76v-11.6zm4.14 7.18v-7.18h-2.76v1.66h2.76v4.14h-2.76v5.8h1.66v-4.42h1.1zm8.28-7.18h-2.76v1.66h2.76v4.14h-2.76v1.38h1.11v4.42h1.65v-11.6zm1.39 0v1.66h2.76v4.14H45.2v5.8h2.76v-11.6H45.2zm-5.53 1.66v4.14h-2.76v1.38h2.76v-7.18h-2.76v1.66h2.76zm-12.42-2.21h22.64v-1.38l-3-1.66-3-1.66-.48-.26-.41-.2-.28-.15-.16-.12-.41-.22-.28-.15-.55-.3-.28-.15-2.75-1.48-2.76 1.51-.28.15-.55.3-.28.15-.24.13-.31.17-.28.15-.35.19-.48.26-3 1.66-3 1.66v1.38zm11-6.47l9.8 5.37H28.49z" class="cls-5"/><path d="M28.63 27.78v-5.8h-1.38v9.95h1.38v-4.15zm2.76 4.15h1.38v-9.95h-1.38v9.95zm4.14-2.77v2.77h1.38v-9.95h-1.38v7.18zm4.14 0v2.77h1.38v-9.95h-1.38v7.18zm4.14 2.77h1.39v-9.95h-1.39v9.95zm4.15 0h1.38v-9.95h-1.38v9.95z" class="cls-6"/><path d="M49.34 21.43H26.69l.56.55h22.09l.55-.55h-.55z" class="cls-1"/><path d="M39.67 29.16h-2.76v4.42h2.76v-4.42zm-4.14 0h-1.1v4.42h1.1v-4.42zm5.52 0v4.42h1.11v-4.42h-1.11z" class="cls-2"/><path d="M47.4 7.35V6.24l-9.08-5-9.08 5v1.1zm-9.11-4.82l6.78 3.71H31.51z" class="cls-5"/><path d="M47.4 7.35H29.18l.55.55h17.12l.55-.55z" class="cls-1"/><path d="M31.39 31.93h1.38v1.66h-1.38zm4.14 0h1.38v1.66h-1.38zm4.14 0h1.38v1.66h-1.38zm4.15 0h1.38v1.66h-1.38z" class="cls-3"/><path d="M17.03 34.69v.83h8.28l.83-.83h-9.11zm0-12.71h10.22v.83H17.03zm32.31 0h10.22v.83H49.34zm1.65 13.54h8.56v-.83h-9.27l.71.83z" class="cls-5"/><path d="M49.34 33.58H27.25l-1.11 1.11-.83.83h25.68l-.71-.83-.94-1.11z" class="cls-1"/><path d="M18.69 25.57v2.21h2.76v-4.14h-2.76zm1.1 1.93v-1.65h.55v1.66zm1.38 0h-.55v-1.65h.55zm0-1.93h-.55v-1.65h.55zm-.83-1.66v1.66h-.55v-1.65zm-1.38 0h.55v1.66H19zm0 1.93h.55v1.66H19z" class="cls-2"/><path d="M20.34 25.3v-1.38h-.55v.83l.55.55zm-.83-1.38h-.55l.55.55v-.55zm1.11 0h.55v1.66h-.55zm0 1.93h.55v1.66h-.55zm-.28 0h-.55v.83l.55.55v-1.38zm-.83 0h-.55l.55.55v-.55z" class="cls-4"/><path d="M19.79 25.57h.55v-.27l-.55-.55v.82zm-.28-1.1l-.55-.55v1.65h.55v-1.1zm.28 2.21v.83h.55v-.28l-.55-.55zm-.28-.28l-.55-.55v1.66h.55V26.4z" class="cls-4"/><path d="M22.83 23.64v4.14h2.76v-4.14zm1.66.28v1.66h-.55v-1.66zm-1.38 0h.55v1.66h-.56zm0 3.59v-1.66h.55v1.66zm.83 0v-1.66h.55v1.66zm1.38 0h-.55v-1.66h.55zm0-1.93h-.55v-1.66h.55z" class="cls-2"/><path d="M23.66 23.92h-.56l.56.55v-.55zm1.1 0h.55v1.66h-.55zm-.28 1.38v-1.38h-.55v.83l.55.55zm0 .55h-.55v.83l.55.55v-1.38zm.28 0h.55v1.66h-.55zm-1.1 0h-.56l.56.55v-.55z" class="cls-4"/><path d="M23.93 25.57h.55v-.27l-.55-.55v.82zm-.27-1.1l-.56-.55v1.65h.56v-1.1zm.27 2.21v.83h.55v-.28l-.55-.55zm-.83-.83v1.66h.56V26.4l-.56-.55z" class="cls-4"/><path d="M18.69 31.1v2.21h2.76v-4.15h-2.76zm1.1 1.9v-1.63h.55V33zm1.38 0h-.55v-1.63h.55zm0-1.93h-.55v-1.63h.55zm-.83-1.66v1.69h-.55v-1.66zm-1.38 0h.55v1.69H19zm0 1.93h.55V33H19z" class="cls-2"/><path d="M20.34 30.82v-1.38h-.55v.83l.55.55zm.28-1.38h.55v1.66h-.55zm-1.11 0h-.55l.55.55v-.55zm1.11 1.93h.55v1.66h-.55zm-1.11 0h-.55l.55.56v-.56zm.83 0h-.55v.83l.55.55v-1.38z" class="cls-4"/><path d="M19.51 29.99l-.55-.55v1.66h.55v-1.11zm.28 1.11h.55v-.28l-.55-.55v.83zm0 1.1v.83h.55v-.28l-.55-.55zm-.28-.27l-.55-.56v1.66h.55v-1.1z" class="cls-4"/><path d="M22.83 31.1v2.21h2.76v-4.15h-2.76zm1.1 1.9v-1.63h.55V33zm1.38 0h-.55v-1.63h.55zm0-1.93h-.55v-1.63h.55zm-.83-1.66v1.69h-.55v-1.66zm-1.38 0h.55v1.69h-.55zm0 1.93h.55V33h-.55z" class="cls-2"/><path d="M24.48 30.82v-1.38h-.55v.83l.55.55zm-.82-1.38h-.56l.56.55v-.55zm1.1 0h.55v1.66h-.55zm-.28 1.93h-.55v.83l.55.55v-1.38zm-.82 0h-.56l.56.56v-.56zm1.1 0h.55v1.66h-.55z" class="cls-4"/><path d="M23.93 31.1h.55v-.28l-.55-.55v.83zm-.27-1.11l-.56-.55v1.66h.56v-1.11zm0 1.94l-.56-.56v1.66h.56v-1.1zm.27.27v.83h.55v-.28l-.55-.55z" class="cls-4"/><path d="M28.63 25.57v2.21h2.76v-4.14h-2.76zm1.1 1.93v-1.65h.55v1.66zm1.38 0h-.55v-1.65h.55zm0-1.93h-.55v-1.65h.55zm-.83-1.66v1.66h-.55v-1.65zm-1.38 0h.55v1.66h-.55zm0 1.93h.55v1.66h-.55z" class="cls-2"/><path d="M30.56 23.92h.55v1.66h-.55zm-.28 1.38v-1.38h-.55v.83l.55.55zm-.83-1.38h-.55l.55.55v-.55zm0 1.93h-.55l.55.55v-.55zm.83 0h-.55v.83l.55.55v-1.38zm.28 0h.55v1.66h-.55z" class="cls-4"/><path d="M29.73 25.57h.55v-.27l-.55-.55v.82zm-.28-1.1l-.55-.55v1.65h.55v-1.1zm0 1.93l-.55-.55v1.66h.55V26.4zm.28.28v.83h.55v-.28l-.55-.55z" class="cls-4"/><path d="M32.77 25.57v2.21h2.76v-4.14h-2.76zm1.1 1.93v-1.65h.55v1.66zm1.38 0h-.55v-1.65h.55zm0-1.93h-.55v-1.65h.55zm-.83-1.66v1.66h-.55v-1.65zm-1.38 0h.55v1.66H33zm0 1.93h.55v1.66H33z" class="cls-2"/><path d="M34.7 23.92h.55v1.66h-.55zm-1.1 0h-.55l.55.55v-.55zm.83 1.38v-1.38h-.56v.83l.56.55zm0 .55h-.56v.83l.56.55v-1.38zm-.83 0h-.55l.55.55v-.55zm1.1 0h.55v1.66h-.55z" class="cls-4"/><path d="M33.87 25.57h.56v-.27l-.56-.55v.82zm-.27-1.1l-.55-.55v1.65h.55v-1.1zm0 1.93l-.55-.55v1.66h.55V26.4zm.27.28v.83h.56v-.28l-.56-.55z" class="cls-4"/><path d="M39.67 25.85v-2.21h-2.76v4.14h2.76zm-1.1-1.93v1.66H38v-1.66zm-1.38 0h.55v1.66h-.55zm0 3.59v-1.66h.55v1.66zm.83 0v-1.66h.55v1.66zm1.38 0h-.55v-1.66h.55zm0-1.93h-.55v-1.66h.55z" class="cls-2"/><path d="M38.57 25.3v-1.38h-.55v.83l.55.55zm-.83-1.38h-.55l.55.55v-.55zm1.1 0h.55v1.66h-.55zm0 1.93h.55v1.66h-.55zm-.27 0h-.55v.83l.55.55v-1.38zm-.83 0h-.55l.55.55v-.55z" class="cls-4"/><path d="M37.74 24.47l-.55-.55v1.65h.55v-1.1zm.28 1.1h.55v-.27l-.55-.55v.82zm0 1.11v.83h.55v-.28l-.55-.55zm-.83-.83v1.66h.55V26.4l-.55-.55z" class="cls-4"/><path d="M41.05 25.57v2.21h2.76v-4.14h-2.76zm1.1 1.93v-1.65h.55v1.66zm1.38 0H43v-1.65h.55zm0-1.93H43v-1.65h.55zm-.83-1.66v1.66h-.55v-1.65zm-1.38 0h.55v1.66h-.55zm0 1.93h.55v1.66h-.55z" class="cls-2"/><path d="M42.71 25.3v-1.38h-.55v.83l.55.55zm-.83-1.38h-.55l.55.55v-.55zm1.11 0h.55v1.66h-.55zm-.28 1.93h-.55v.83l.55.55v-1.38zm-.83 0h-.55l.55.55v-.55zm1.11 0h.55v1.66h-.55zm-.83-.28h.55v-.27l-.55-.55v.82z" class="cls-4"/><path d="M41.88 24.47l-.55-.55v1.65h.55v-1.1zm.28 2.21v.83h.55v-.28l-.55-.55zm-.28-.28l-.55-.55v1.66h.55V26.4z" class="cls-4"/><path d="M45.2 25.57v2.21H48v-4.14h-2.8zm1.1 1.93v-1.65h.55v1.66zm1.38 0h-.55v-1.65h.55zm0-1.93h-.55v-1.65h.55zm-.83-1.66v1.66h-.55v-1.65zm-1.38 0H46v1.66h-.55zm0 1.93H46v1.66h-.55z" class="cls-2"/><path d="M46.85 25.3v-1.38h-.55v.83l.55.55zm.28-1.38h.55v1.66h-.55zm-1.11 0h-.55l.55.55v-.55zm.83 1.93h-.55v.83l.55.55v-1.38zm.28 0h.55v1.66h-.55zm-1.11 0h-.55l.55.55v-.55zm.28-.28h.55v-.27l-.55-.55v.82z" class="cls-4"/><path d="M46.02 24.47l-.55-.55v1.65h.55v-1.1zm0 1.93l-.55-.55v1.66h.55V26.4zm.28.28v.83h.55v-.28l-.55-.55z" class="cls-4"/><path d="M53.76 25.85v-2.21H51v4.14h2.76zm-1.1-1.93v1.66h-.56v-1.66zm-1.38 0h.55v1.66h-.55zm0 3.59v-1.66h.55v1.66zm.83 0v-1.66h.55v1.66zm1.38 0h-.55v-1.66h.55zm0-1.93h-.55v-1.66h.55z" class="cls-2"/><path d="M52.65 25.3v-1.38h-.55v.83l.55.55zm.28-1.38h.55v1.66h-.55zm-1.11 0h-.55l.55.55v-.55zm1.11 1.93h.55v1.66h-.55zm-.28 0h-.55v.83l.55.55v-1.38zm-.83 0h-.55l.55.55v-.55z" class="cls-4"/><path d="M51.82 24.47l-.55-.55v1.65h.55v-1.1zm.28 1.1h.55v-.27l-.55-.55v.82zm0 1.11v.83h.55v-.28l-.55-.55zm-.83-.83v1.66h.55V26.4l-.55-.55z" class="cls-4"/><path d="M57.9 25.85v-2.21h-2.76v4.14h2.76zm-1.11-1.93v1.66h-.55v-1.66zm-1.38 0H56v1.66h-.55zm0 3.59v-1.66H56v1.66zm.83 0v-1.66h.55v1.66zm1.38 0h-.55v-1.66h.55zm0-1.93h-.55v-1.66h.55z" class="cls-2"/><path d="M56.79 25.3v-1.38h-.55v.83l.55.55zm.28-1.38h.55v1.66h-.55zm-1.1 0h-.56l.56.55v-.55zm.82 1.93h-.55v.83l.55.55v-1.38zm.28 0h.55v1.66h-.55zm-1.1 0h-.56l.56.55v-.55z" class="cls-4"/><path d="M55.97 24.47l-.56-.55v1.65h.56v-1.1zm.27 1.1h.55v-.27l-.55-.55v.82zm-.83.28v1.66h.55V26.4l-.55-.55zm.83.83v.83h.55v-.28l-.55-.55z" class="cls-4"/><path d="M53.76 31.37v-2.21H51v4.14h2.76zm-1.1-1.93v1.66h-.56v-1.66zm-1.38 0h.55v1.66h-.55zm0 3.59v-1.66h.55V33zm.83 0v-1.66h.55V33zm1.38 0h-.55v-1.66h.55zm0-1.93h-.55v-1.66h.55z" class="cls-2"/><path d="M51.82 29.44h-.55l.55.55v-.55zm.83 1.38v-1.38h-.55v.83l.55.55zm.28-1.38h.55v1.66h-.55zm-.28 1.93h-.55v.83l.55.55v-1.38zm-.83 0h-.55l.55.56v-.56zm1.11 0h.55v1.66h-.55z" class="cls-4"/><path d="M52.1 31.1h.55v-.28l-.55-.55v.83zm-.28-1.11l-.55-.55v1.66h.55v-1.11zm.28 2.21v.83h.55v-.28l-.55-.55zm-.83-.83v1.66h.55v-1.1l-.55-.56z" class="cls-4"/><path d="M57.9 31.37v-2.21h-2.76v4.14h2.76zm-1.11-1.93v1.66h-.55v-1.66zm-1.38 0H56v1.66h-.55zm0 3.59v-1.66H56V33zm.83 0v-1.66h.55V33zm1.38 0h-.55v-1.66h.55zm0-1.93h-.55v-1.66h.55z" class="cls-2"/><path d="M55.97 29.44h-.56l.56.55v-.55zm.82 1.38v-1.38h-.55v.83l.55.55zm.28-1.38h.55v1.66h-.55zm-.28 1.93h-.55v.83l.55.55v-1.38zm-.82 0h-.56l.56.56v-.56zm1.1 0h.55v1.66h-.55z" class="cls-4"/><path d="M56.24 31.1h.55v-.28l-.55-.55v.83zm-.27-1.11l-.56-.55v1.66h.56v-1.11zm.27 2.21v.83h.55v-.28l-.55-.55zm-.83-.83v1.66h.55v-1.1l-.55-.56z" class="cls-4"/><path d="M43.82 11.49V9.28h-2.77v4.14h2.76zm-1.11-1.93v1.66h-.55V9.56zm-1.38 0h.55v1.66h-.55zm0 3.59v-1.66h.55v1.66zm.83 0v-1.66h.55v1.66zm1.38 0H43v-1.66h.55zm0-1.93H43V9.56h.55z" class="cls-2"/><path d="M42.71 10.94V9.56h-.55v.83l.55.55zm.28-1.38h.55v1.66h-.55zm-1.11 0h-.55l.55.55v-.55zm0 1.93h-.55l.55.55v-.55zm.83 0h-.55v.83l.55.55v-1.38zm.28 0h.55v1.66h-.55z" class="cls-4"/><path d="M41.88 10.11l-.55-.55v1.65h.55v-1.1zm.28 1.1h.55v-.27l-.55-.55v.82zm-.83.28v1.66h.55v-1.11l-.55-.55zm.83.83v.83h.55v-.28l-.55-.55z" class="cls-4"/><path d="M35.53 11.49V9.28h-2.76v4.14h2.76zm-1.1-1.93v1.66h-.55V9.56zm-1.43 0h.55v1.66H33zm0 3.59v-1.66h.55v1.66zm.83 0v-1.66h.55v1.66zm1.38 0h-.51v-1.66h.55zm0-1.93h-.51V9.56h.55z" class="cls-2"/><path d="M34.7 9.56h.55v1.66h-.55zm-.27 1.38V9.56h-.56v.83l.56.55zm-.83-1.38h-.55l.55.55v-.55zm0 1.93h-.55l.55.55v-.55zm.83 0h-.56v.83l.56.55v-1.38zm.27 0h.55v1.66h-.55z" class="cls-4"/><path d="M33.6 10.11l-.55-.55v1.65h.55v-1.1zm.27 1.1h.56v-.27l-.56-.55v.82zm-.82.28v1.66h.55v-1.11l-.55-.55zm.82.83v.83h.56v-.28l-.56-.55z" class="cls-4"/><path d="M39.67 11.49V9.28h-2.76v4.14h2.76zm-1.1-1.93v1.66H38V9.56zm-1.38 0h.55v1.66h-.55zm0 3.59v-1.66h.55v1.66zm.83 0v-1.66h.55v1.66zm1.38 0h-.55v-1.66h.55zm0-1.93h-.55V9.56h.55z" class="cls-2"/><path d="M37.74 9.56h-.55l.55.55v-.55zm1.1 0h.55v1.66h-.55zm-.27 1.38V9.56h-.55v.83l.55.55zm0 .55h-.55v.83l.55.55v-1.38zm.27 0h.55v1.66h-.55zm-1.1 0h-.55l.55.55v-.55z" class="cls-4"/><path d="M37.74 10.11l-.55-.55v1.65h.55v-1.1zm.28 1.1h.55v-.27l-.55-.55v.82zm0 1.11v.83h.55v-.28l-.55-.55zm-.83-.83v1.66h.55v-1.11l-.55-.55z" class="cls-4"/><path d="M.5.5h77.18v36.06H.5z" class="cls-7"/></g></g></svg>