<svg xmlns="http://www.w3.org/2000/svg" viewBox="0 0 33.55 49.84"><defs><style>.cls-1{fill:#ff9500;}.cls-2{fill:#5d647f;}</style></defs><g id="Слой_2" data-name="Слой 2"><g id="Слой_1-2" data-name="Слой 1"><path d="M16.17 12.51h3.14a2.26 2.26 0 1 1 0 4.53h-5.63a1.18 1.18 0 1 0 0 2.35h2.89v2.15a1.18 1.18 0 1 0 2.35 0v-2.15h.38a4.62 4.62 0 1 0 0-9.23h-3.13a2.26 2.26 0 1 1 0-4.53h5.53a1.18 1.18 0 1 0 0-2.35h-2.78v-2.1a1.18 1.18 0 1 0-2.35 0v2.1h-.39a4.61 4.61 0 1 0 0 9.23" class="cls-1"/><path d="M33.34 24.27a.94.94 0 0 0-.72-.34H5.9L5 19.35a.94.94 0 0 0-.92-.76H.93a.93.93 0 1 0 0 1.87h2.39l4 21.07a.94.94 0 0 0 .92.77h3.3a3.8 3.8 0 1 0 1.36 0h12.17a3.8 3.8 0 1 0 1.36 0h2.85a.93.93 0 0 0 0-1.87H9.05l-.29-1.63H30a.94.94 0 0 0 .92-.75l2.58-13a.94.94 0 0 0-.19-.78M27.68 46a1.93 1.93 0 1 1-1.93-1.93A1.93 1.93 0 0 1 27.68 46m-13.5 0a1.93 1.93 0 1 1-1.93-1.93A1.93 1.93 0 0 1 14.18 46m-5.76-9.07l-1.27-6.54h3.53l1.07 6.54zm9.51 0h-4.28l-1.08-6.54h5.36zm6.22 0H19.8v-6.54h5.29zm5.11 0H26l1-6.54h3.58zm1.67-8.41H6.79l-.53-2.73h25.22z" class="cls-2"/></g></g></svg>