<svg xmlns="http://www.w3.org/2000/svg" viewBox="0 0 38.54 37.21"><defs><style>.cls-1{fill:#86573f;}.cls-2{fill:#a06646;}.cls-3{fill:#cbb292;}.cls-4{fill:#d6dadb;}.cls-5{fill:#7b675f;}.cls-6{fill:#583728;}.cls-7{fill:#4b3021;}</style></defs><g id="Слой_2" data-name="Слой 2"><g id="Слой_1-2" data-name="Слой 1"><path d="M36.95 8.11a4 4 0 0 0-2.39-.8H4a4 4 0 0 0-4 4v21.25h1.59a3.06 3.06 0 0 1 3.07 3.06v1.59h29.23v-1.58A3.07 3.07 0 0 1 37 32.56h1.59V11.3a4 4 0 0 0-1.6-3.19" class="cls-1"/><path d="M7.43 5.32H5.86a1.21 1.21 0 0 0-1.21 1.21v20.05a2 2 0 0 0 4 0V6.53a1.21 1.21 0 0 0-1.22-1.21m25.25 0h-1.57a1.21 1.21 0 0 0-1.21 1.21v20.05a2 2 0 0 0 4 0V6.53a1.21 1.21 0 0 0-1.21-1.21" class="cls-2"/><path d="M4.65 37.21H2.94A2.94 2.94 0 0 1 0 34.27v-1.71h1.59a3.06 3.06 0 0 1 3.07 3.06zm33.89-4.65v1.71a2.94 2.94 0 0 1-2.94 2.94h-1.71v-1.58A3.06 3.06 0 0 1 37 32.56z" class="cls-3"/><path d="M10.63 5.32h5.32v1.99h-5.32zm11.96 0h5.32v1.99h-5.32z" class="cls-4"/><path d="M23.92 3.62v1.7h2.66V3.91A3.91 3.91 0 0 0 22.67 0h-6.8A3.91 3.91 0 0 0 12 3.91v1.4h2.66V3.62a1 1 0 0 1 1.43-1 8.41 8.41 0 0 0 6.43 0 1 1 0 0 1 1.43 1" class="cls-5"/><path d="M15.95 13.29h6.64v2.66h-6.64z" class="cls-3"/><path d="M0 21.26h3.32v1.33H0zm35.22 0h3.32v1.33h-3.32zm-25.25 0h18.61v1.33H9.97z" class="cls-6"/><path d="M6.65 15.28a.66.66 0 1 1-.66.66.66.66 0 0 1 .66-.66m0 9.97a.66.66 0 1 1-.66.66.66.66 0 0 1 .66-.66m25.25-9.97a.66.66 0 1 1-.66.66.66.66 0 0 1 .66-.66m0 9.97a.66.66 0 1 1-.66.66.66.66 0 0 1 .66-.66" class="cls-7"/><path d="M18.61 22.59h1.33v14.62h-1.33z" class="cls-6"/><path d="M6.65 21.93a.66.66 0 0 1-.65-.66v-2.66a.66.66 0 1 1 1.33 0v2.66a.66.66 0 0 1-.66.66m25.23 0a.66.66 0 0 1-.66-.66v-2.66a.66.66 0 1 1 1.33 0v2.66a.66.66 0 0 1-.66.66" class="cls-3"/><path d="M8.64 19.27v1.33h.66v2.66H3.99V20.6h.66v-1.33H2.66v5.32h7.97v-5.32H8.64zm25.25 0v1.33h.66v2.66h-5.31V20.6h.66v-1.33h-1.99v5.32h7.97v-5.32h-1.99z" class="cls-3"/></g></g></svg>