<svg xmlns="http://www.w3.org/2000/svg" viewBox="0 0 49.35 35.47"><defs><style>.cls-1{fill:#5d647f;}.cls-2{fill:#ffd100;}.cls-3{fill:#b8bac0;}.cls-4{fill:#8a8895;}.cls-5{fill:#ff4f19;}.cls-6{fill:#ff9500;}</style></defs><g id="Слой_2" data-name="Слой 2"><g id="Слой_1-2" data-name="Слой 1"><path d="M45.49 0H3.86A3.86 3.86 0 0 0 0 3.85v27.76a3.86 3.86 0 0 0 3.86 3.86h41.63a3.86 3.86 0 0 0 3.85-3.86V3.85A3.86 3.86 0 0 0 45.49 0" class="cls-1"/><path d="M17 15.42H7.71a1.54 1.54 0 0 1-1.54-1.54V7.71a1.54 1.54 0 0 1 1.54-1.54H17a1.54 1.54 0 0 1 1.5 1.54v6.17a1.54 1.54 0 0 1-1.5 1.54" class="cls-2"/><path d="M11.57 25.44H7.71a1.54 1.54 0 0 1-1.54-1.54v-.77a1.54 1.54 0 0 1 1.54-1.54h3.86a1.54 1.54 0 0 1 1.54 1.54v.77a1.54 1.54 0 0 1-1.54 1.54m10.02 0h-3.86a1.54 1.54 0 0 1-1.54-1.54v-.77a1.54 1.54 0 0 1 1.54-1.54h3.86a1.54 1.54 0 0 1 1.54 1.54v.77a1.54 1.54 0 0 1-1.54 1.54m10.02 0h-3.85a1.54 1.54 0 0 1-1.54-1.54v-.77a1.54 1.54 0 0 1 1.54-1.54h3.86a1.54 1.54 0 0 1 1.54 1.54v.77a1.54 1.54 0 0 1-1.54 1.54m10.02 0h-3.86a1.54 1.54 0 0 1-1.54-1.54v-.77a1.54 1.54 0 0 1 1.54-1.54h3.86a1.54 1.54 0 0 1 1.54 1.54v.77a1.54 1.54 0 0 1-1.54 1.54" class="cls-3"/><path d="M22.36 30.07H6.94a.77.77 0 0 1 0-1.54h15.42a.77.77 0 1 1 0 1.54m10.02 0h-6.94a.77.77 0 0 1 0-1.54h6.94a.77.77 0 1 1 0 1.54" class="cls-4"/><path d="M35.47 13.88a4.63 4.63 0 1 1 0-6.17" class="cls-5"/><path d="M18.5 11.56h-7.71v-1.54h7.71V8.48h-7.71V6.17H9.25v9.25h1.54v-2.31h7.71v-1.55z" class="cls-6"/><path d="M38.55 6.17a4.63 4.63 0 1 1-4.63 4.63 4.63 4.63 0 0 1 4.63-4.63" class="cls-2"/></g></g></svg>