<svg xmlns="http://www.w3.org/2000/svg" viewBox="0 0 47.82 36.6"><defs><style>.cls-1{fill:#fc5a29;}.cls-2{fill:#583728;}.cls-3{fill:#5d647f;}.cls-4{fill:#f9af46;}.cls-5{fill:#d9fff8;}.cls-6{fill:#fff;}</style></defs><g id="Слой_2" data-name="Слой 2"><g id="Слой_1-2" data-name="Слой 1"><path d="M46.86 26.15H1.09a.53.53 0 0 0-.53.53v3.44a.53.53 0 0 0 .53.53h2.13v3.39a2.55 2.55 0 0 0 2.55 2.56h1.7A2.55 2.55 0 0 0 10 34.05v-3.39h29.27v3.39a2.55 2.55 0 0 0 2.55 2.55h1.7a2.55 2.55 0 0 0 2.55-2.55v-3.39h.78a.53.53 0 0 0 .53-.53v-3.44a.53.53 0 0 0-.53-.53" class="cls-1"/><path d="M39.26 30.66v3.39a2.55 2.55 0 0 0 2.55 2.55h1.7a2.55 2.55 0 0 0 2.55-2.55v-3.39zm-36.06 0v3.39a2.55 2.55 0 0 0 2.55 2.55h1.7A2.55 2.55 0 0 0 10 34.05v-3.39z" class="cls-2"/><path d="M43.63 14.55c-1.49-6.45-6.48-14-7.88-14C35.06.52 29.55 0 24 0S12.7.52 12.1.52c-1.19 0-6.39 7.58-7.88 14-5 1-4.15 9.57-4.11 9.94a.53.53 0 0 0 .51.54l23.29-.06 23.3.06a.53.53 0 0 0 .53-.47c0-.37.92-9-4.11-9.94" class="cls-3"/><path d="M6.62 17.67A2.37 2.37 0 1 1 4.25 20a2.37 2.37 0 0 1 2.37-2.37" class="cls-4"/><path d="M8.12 14.86a.18.18 0 0 1-.12-.08v-.16c.07-.42 3-10.45 5.11-11.18s10.45-.77 10.8-.77h2.1c3.94 0 8.61.18 9.49.81 1.28.91 4.84 10.74 5 11.16a.18.18 0 0 1-.17.24z" class="cls-5"/><path d="M41.2 22.42A2.37 2.37 0 1 1 43.57 20a2.37 2.37 0 0 1-2.37 2.37" class="cls-4"/><path d="M17.04 19.06H31.4v3.36H17.04z" class="cls-5"/><path d="M1.86 11.76h6.26v3.1H1.86zm38.6 0h6.26v3.1h-6.26z" class="cls-1"/><path d="M11.37 14.86L31.59 2.8a10.93 10.93 0 0 1 3.91.66 2.91 2.91 0 0 1 .62.8l-17.79 10.6zm-2.96-1.74L25.93 2.65h3.41L9 14.86h-.88a.18.18 0 0 1-.12-.08v-.16c0-.09.19-.67.46-1.51m12.92 1.75l15.47-9.22c.24.49.49 1 .74 1.62l-12.73 7.6z" class="cls-6"/></g></g></svg>