<svg xmlns="http://www.w3.org/2000/svg" viewBox="0 0 30.64 35.02"><defs><style>.cls-1{fill:#ffd200;}.cls-2{fill:#ff9600;}.cls-3{fill:#df8328;}.cls-4{fill:#ffef43;}</style></defs><g id="Слой_2" data-name="Слой 2"><g id="Слой_1-2" data-name="Слой 1"><path d="M15.32 28.45c-3.07 0-5.47 1.44-5.47 3.28S12.25 35 15.32 35s5.47-1.44 5.47-3.28-2.4-3.28-5.47-3.28" class="cls-1"/><path d="M15.32 27.36c-3.07 0-5.47 1.44-5.47 3.28s2.4 3.28 5.47 3.28 5.47-1.44 5.47-3.28-2.4-3.28-5.47-3.28" class="cls-2"/><path d="M15.32 26.27c-3.07 0-5.47 1.44-5.47 3.28s2.4 3.28 5.47 3.28 5.47-1.44 5.47-3.28-2.4-3.28-5.47-3.28" class="cls-1"/><path d="M15.32 25.17c-3.07 0-5.47 1.44-5.47 3.28s2.4 3.28 5.47 3.28 5.47-1.44 5.47-3.28-2.4-3.28-5.47-3.28" class="cls-2"/><path d="M15.32 24.08c-3.07 0-5.47 1.44-5.47 3.28s2.4 3.28 5.47 3.28 5.47-1.44 5.47-3.28-2.4-3.28-5.47-3.28" class="cls-1"/><path d="M15.32 23c-3.07 0-5.47 1.44-5.47 3.28s2.4 3.28 5.47 3.28 5.47-1.44 5.47-3.28S18.39 23 15.32 23" class="cls-2"/><path d="M15.32 21.89c-3.07 0-5.47 1.44-5.47 3.28s2.4 3.28 5.47 3.28 5.47-1.44 5.47-3.28-2.4-3.28-5.47-3.28" class="cls-1"/><path d="M15.32 20.79c-3.07 0-5.47 1.44-5.47 3.28s2.4 3.28 5.47 3.28 5.47-1.44 5.47-3.28-2.4-3.28-5.47-3.28" class="cls-2"/><path d="M15.32 19.7c-3.07 0-5.47 1.44-5.47 3.28s2.4 3.28 5.47 3.28 5.47-1.44 5.47-3.28-2.4-3.28-5.47-3.28" class="cls-1"/><path d="M15.32 18.6c-3.07 0-5.47 1.44-5.47 3.28s2.4 3.28 5.47 3.28 5.47-1.44 5.47-3.28-2.4-3.28-5.47-3.28" class="cls-2"/><path d="M15.32 17.51c-3.07 0-5.47 1.44-5.47 3.28s2.4 3.28 5.47 3.28 5.47-1.44 5.47-3.28-2.4-3.28-5.47-3.28" class="cls-1"/><path d="M15.32 16.42c-3.07 0-5.47 1.44-5.47 3.28s2.4 3.3 5.47 3.3 5.47-1.44 5.47-3.28-2.4-3.28-5.47-3.28" class="cls-2"/><path d="M15.32 15.32c-3.07 0-5.47 1.44-5.47 3.28s2.4 3.28 5.47 3.28 5.47-1.44 5.47-3.28-2.4-3.28-5.47-3.28" class="cls-1"/><path d="M15.32 14.23c-3.07 0-5.47 1.44-5.47 3.28s2.4 3.28 5.47 3.28 5.47-1.44 5.47-3.28-2.4-3.28-5.47-3.28M9.85 31.74c0 1.84 2.4 3.28 5.47 3.28v-6.57c-3.07 0-5.47 1.44-5.47 3.28" class="cls-2"/><path d="M9.85 30.64c0 1.84 2.4 3.28 5.47 3.28v-6.56c-3.07 0-5.47 1.44-5.47 3.28" class="cls-3"/><path d="M9.85 29.55c0 1.84 2.4 3.28 5.47 3.28v-6.56c-3.07 0-5.47 1.44-5.47 3.28" class="cls-2"/><path d="M9.85 28.45c0 1.84 2.4 3.28 5.47 3.28v-6.56c-3.07 0-5.47 1.44-5.47 3.28" class="cls-3"/><path d="M9.85 27.36c0 1.84 2.4 3.28 5.47 3.28v-6.56c-3.07 0-5.47 1.44-5.47 3.28" class="cls-2"/><path d="M9.85 26.27c0 1.84 2.4 3.28 5.47 3.28V23c-3.07 0-5.47 1.44-5.47 3.28" class="cls-3"/><path d="M9.85 25.17c0 1.84 2.4 3.28 5.47 3.28v-6.56c-3.07 0-5.47 1.44-5.47 3.28" class="cls-2"/><path d="M9.85 25.17c0 1.84 2.4 3.28 5.47 3.28v-6.56c-3.07 0-5.47 1.44-5.47 3.28" class="cls-2"/><path d="M9.85 24.08c0 1.84 2.4 3.28 5.47 3.28v-6.57c-3.07 0-5.47 1.44-5.47 3.28" class="cls-3"/><path d="M9.85 23c0 1.84 2.4 3.28 5.47 3.28V19.7c-3.07 0-5.47 1.44-5.47 3.28" class="cls-2"/><path d="M9.85 21.89c0 1.84 2.4 3.28 5.47 3.28V18.6c-3.07 0-5.47 1.44-5.47 3.28" class="cls-3"/><path d="M9.85 20.79c0 1.84 2.4 3.28 5.47 3.28v-6.56c-3.07 0-5.47 1.44-5.47 3.28" class="cls-2"/><path d="M9.85 20.79c0 1.84 2.4 3.28 5.47 3.28v-6.56c-3.07 0-5.47 1.44-5.47 3.28" class="cls-2"/><path d="M9.85 19.7c0 1.84 2.4 3.28 5.47 3.28v-6.56c-3.07 0-5.47 1.44-5.47 3.28" class="cls-3"/><path d="M9.85 18.6c0 1.84 2.4 3.28 5.47 3.28v-6.56c-3.07 0-5.47 1.44-5.47 3.28" class="cls-2"/><path d="M9.85 17.51c0 1.84 2.4 3.28 5.47 3.28v-6.56c-3.07 0-5.47 1.44-5.47 3.28" class="cls-3"/><path d="M9.85 16.42c0 1.84 2.4 3.28 5.47 3.28v-6.57c-3.07 0-5.47 1.44-5.47 3.28" class="cls-2"/><path d="M15.32 13.13c-3.07 0-5.47 1.44-5.47 3.28s2.4 3.28 5.47 3.28 5.47-1.44 5.47-3.28-2.4-3.28-5.47-3.28" class="cls-1"/><path d="M15.32 12c-3.07 0-5.47 1.44-5.47 3.28s2.4 3.28 5.47 3.28 5.47-1.44 5.47-3.28S18.39 12 15.32 12" class="cls-2"/><path d="M15.32 10.94c-3.07 0-5.47 1.44-5.47 3.28s2.4 3.28 5.47 3.28 5.47-1.44 5.47-3.28-2.4-3.28-5.47-3.28" class="cls-1"/><path d="M15.32 9.85c-3.07 0-5.47 1.44-5.47 3.28s2.4 3.28 5.47 3.28 5.47-1.44 5.47-3.28-2.4-3.28-5.47-3.28" class="cls-2"/><path d="M15.32 8.76c-3.07 0-5.47 1.44-5.47 3.28s2.4 3.28 5.47 3.28 5.47-1.44 5.47-3.28-2.4-3.28-5.47-3.28" class="cls-1"/><path d="M9.85 16.42c0 1.84 2.4 3.28 5.47 3.28v-6.57c-3.07 0-5.47 1.44-5.47 3.28" class="cls-2"/><path d="M9.85 15.32c0 1.84 2.4 3.28 5.47 3.28V12c-3.07 0-5.47 1.44-5.47 3.28" class="cls-3"/><path d="M9.85 14.23c0 1.84 2.4 3.28 5.47 3.28v-6.57c-3.07 0-5.47 1.44-5.47 3.28" class="cls-2"/><path d="M9.85 13.13c0 1.84 2.4 3.28 5.47 3.28V9.85c-3.07 0-5.47 1.44-5.47 3.28" class="cls-3"/><path d="M9.85 12c0 1.84 2.4 3.28 5.47 3.28V8.76c-3.07 0-5.47 1.44-5.47 3.28" class="cls-2"/><path d="M15.32 7.66c-3.07 0-5.47 1.44-5.47 3.28s2.4 3.28 5.47 3.28 5.47-1.44 5.47-3.28-2.4-3.28-5.47-3.28" class="cls-2"/><path d="M9.85 10.94c0 1.84 2.4 3.28 5.47 3.28V7.66c-3.07 0-5.47 1.44-5.47 3.28" class="cls-3"/><path d="M15.32 6.57c-3.07 0-5.47 1.43-5.47 3.28s2.4 3.28 5.47 3.28 5.47-1.44 5.47-3.28-2.4-3.28-5.47-3.28" class="cls-1"/><path d="M15.32 5.47c-3.07 0-5.47 1.44-5.47 3.28S12.25 12 15.32 12s5.47-1.44 5.47-3.28-2.4-3.28-5.47-3.28" class="cls-2"/><path d="M9.85 9.85c0 1.84 2.4 3.28 5.47 3.28V6.57c-3.07 0-5.47 1.43-5.47 3.28" class="cls-2"/><path d="M9.85 8.76c0 1.84 2.4 3.28 5.47 3.28V5.47c-3.07 0-5.47 1.44-5.47 3.28" class="cls-3"/><path d="M15.32 4.38c-3.07 0-5.47 1.44-5.47 3.28s2.4 3.28 5.47 3.28 5.47-1.44 5.47-3.28-2.4-3.28-5.47-3.28" class="cls-1"/><path d="M15.32 3.28c-3.07 0-5.47 1.44-5.47 3.28s2.4 3.28 5.47 3.28 5.47-1.44 5.47-3.28-2.4-3.28-5.47-3.28" class="cls-2"/><path d="M15.32 2.19c-3.07 0-5.47 1.44-5.47 3.28s2.4 3.28 5.47 3.28 5.47-1.44 5.47-3.28-2.4-3.28-5.47-3.28" class="cls-1"/><path d="M9.85 7.66c0 1.84 2.4 3.28 5.47 3.28V4.38c-3.07 0-5.47 1.44-5.47 3.28" class="cls-2"/><path d="M9.85 6.57c0 1.84 2.4 3.28 5.47 3.28V3.28c-3.07 0-5.47 1.44-5.47 3.28" class="cls-3"/><path d="M9.85 5.47c0 1.84 2.4 3.28 5.47 3.28V2.19c-3.07 0-5.47 1.44-5.47 3.28" class="cls-2"/><path d="M15.32 1.09c-3.07 0-5.47 1.44-5.47 3.28s2.4 3.28 5.47 3.28 5.47-1.44 5.47-3.28-2.4-3.28-5.47-3.28" class="cls-2"/><path d="M9.85 4.38c0 1.84 2.4 3.28 5.47 3.28V1.09c-3.07 0-5.47 1.44-5.47 3.28" class="cls-3"/><path d="M15.32 0c-3.07 0-5.47 1.44-5.47 3.28s2.4 3.28 5.47 3.28 5.47-1.44 5.47-3.28S18.39 0 15.32 0" class="cls-1"/><path d="M15.32 5.47c-2.22 0-3.83-.92-3.83-2.19s1.61-2.19 3.83-2.19 3.83.92 3.83 2.19-1.61 2.19-3.83 2.19m0-3.28c-1.7 0-2.74.64-2.74 1.09s1 1.09 2.74 1.09 2.74-.64 2.74-1.09-1-1.09-2.74-1.09" class="cls-4"/><path d="M25.17 28.45c-3.07 0-5.47 1.44-5.47 3.28S22.1 35 25.17 35s5.47-1.44 5.47-3.28-2.4-3.28-5.47-3.28" class="cls-1"/><path d="M25.17 27.36c-3.07 0-5.47 1.44-5.47 3.28s2.4 3.28 5.47 3.28 5.47-1.44 5.47-3.28-2.4-3.28-5.47-3.28" class="cls-2"/><path d="M19.7 31.74c0 1.84 2.4 3.28 5.47 3.28v-6.57c-3.07 0-5.47 1.44-5.47 3.28" class="cls-2"/><path d="M19.7 30.64c0 1.84 2.4 3.28 5.47 3.28v-6.56c-3.07 0-5.47 1.44-5.47 3.28" class="cls-3"/><path d="M19.7 29.55c0 1.84 2.4 3.28 5.47 3.28v-6.56c-3.07 0-5.47 1.44-5.47 3.28" class="cls-2"/><path d="M25.17 26.27c-3.07 0-5.47 1.44-5.47 3.28s2.4 3.28 5.47 3.28 5.47-1.44 5.47-3.28-2.4-3.28-5.47-3.28" class="cls-1"/><path d="M25.17 25.17c-3.07 0-5.47 1.44-5.47 3.28s2.4 3.28 5.47 3.28 5.47-1.44 5.47-3.28-2.4-3.28-5.47-3.28" class="cls-2"/><path d="M25.17 24.08c-3.07 0-5.47 1.44-5.47 3.28s2.4 3.28 5.47 3.28 5.47-1.44 5.47-3.28-2.4-3.28-5.47-3.28" class="cls-1"/><path d="M25.17 23c-3.07 0-5.47 1.44-5.47 3.28s2.4 3.28 5.47 3.28 5.47-1.44 5.47-3.28S28.24 23 25.17 23" class="cls-2"/><path d="M25.17 21.89c-3.07 0-5.47 1.44-5.47 3.28s2.4 3.28 5.47 3.28 5.47-1.44 5.47-3.28-2.4-3.28-5.47-3.28" class="cls-1"/><path d="M19.7 29.55c0 1.84 2.4 3.28 5.47 3.28v-6.56c-3.07 0-5.47 1.44-5.47 3.28" class="cls-2"/><path d="M19.7 28.45c0 1.84 2.4 3.28 5.47 3.28v-6.56c-3.07 0-5.47 1.44-5.47 3.28" class="cls-3"/><path d="M19.7 27.36c0 1.84 2.4 3.28 5.47 3.28v-6.56c-3.07 0-5.47 1.44-5.47 3.28" class="cls-2"/><path d="M19.7 26.27c0 1.84 2.4 3.28 5.47 3.28V23c-3.07 0-5.47 1.44-5.47 3.28" class="cls-3"/><path d="M19.7 25.17c0 1.84 2.4 3.28 5.47 3.28v-6.56c-3.07 0-5.47 1.44-5.47 3.28" class="cls-2"/><path d="M25.17 20.79c-3.07 0-5.47 1.44-5.47 3.28s2.4 3.28 5.47 3.28 5.47-1.44 5.47-3.28-2.4-3.28-5.47-3.28" class="cls-2"/><path d="M19.7 24.08c0 1.84 2.4 3.28 5.47 3.28v-6.57c-3.07 0-5.47 1.44-5.47 3.28" class="cls-3"/><path d="M25.17 19.7c-3.07 0-5.47 1.44-5.47 3.28s2.4 3.28 5.47 3.28 5.47-1.44 5.47-3.28-2.4-3.28-5.47-3.28" class="cls-1"/><path d="M25.17 18.6c-3.07 0-5.47 1.44-5.47 3.28s2.4 3.28 5.47 3.28 5.47-1.44 5.47-3.28-2.4-3.28-5.47-3.28" class="cls-2"/><path d="M19.7 23c0 1.84 2.4 3.28 5.47 3.28V19.7c-3.07 0-5.47 1.44-5.47 3.28" class="cls-2"/><path d="M19.7 21.89c0 1.84 2.4 3.28 5.47 3.28V18.6c-3.07 0-5.47 1.44-5.47 3.28" class="cls-3"/><path d="M25.17 17.51c-3.07 0-5.47 1.44-5.47 3.28s2.4 3.28 5.47 3.28 5.47-1.44 5.47-3.28-2.4-3.28-5.47-3.28" class="cls-1"/><path d="M25.17 16.42c-3.07 0-5.47 1.44-5.47 3.28s2.4 3.3 5.47 3.3 5.47-1.44 5.47-3.28-2.4-3.28-5.47-3.28" class="cls-2"/><path d="M25.17 15.32c-3.07 0-5.47 1.44-5.47 3.28s2.4 3.28 5.47 3.28 5.47-1.44 5.47-3.28-2.4-3.28-5.47-3.28" class="cls-1"/><path d="M19.7 20.79c0 1.84 2.4 3.28 5.47 3.28v-6.56c-3.07 0-5.47 1.44-5.47 3.28" class="cls-2"/><path d="M19.7 19.7c0 1.84 2.4 3.28 5.47 3.28v-6.56c-3.07 0-5.47 1.44-5.47 3.28" class="cls-3"/><path d="M19.7 18.6c0 1.84 2.4 3.28 5.47 3.28v-6.56c-3.07 0-5.47 1.44-5.47 3.28" class="cls-2"/><path d="M25.17 14.23c-3.07 0-5.47 1.44-5.47 3.28s2.4 3.28 5.47 3.28 5.47-1.44 5.47-3.28-2.4-3.28-5.47-3.28" class="cls-2"/><path d="M19.7 17.51c0 1.84 2.4 3.28 5.47 3.28v-6.56c-3.07 0-5.47 1.44-5.47 3.28" class="cls-3"/><path d="M25.17 13.13c-3.07 0-5.47 1.44-5.47 3.28s2.4 3.28 5.47 3.28 5.47-1.44 5.47-3.28-2.4-3.28-5.47-3.28" class="cls-1"/><path d="M25.17 18.6c-2.22 0-3.83-.92-3.83-2.19s1.61-2.19 3.83-2.19 3.83.93 3.83 2.19-1.61 2.19-3.83 2.19m0-3.28c-1.7 0-2.74.64-2.74 1.09s1 1.1 2.74 1.1 2.74-.64 2.74-1.1-1-1.09-2.74-1.09" class="cls-4"/><path d="M5.47 28.45C2.4 28.45 0 29.9 0 31.74S2.4 35 5.47 35s5.47-1.44 5.47-3.28-2.4-3.28-5.47-3.28" class="cls-1"/><path d="M5.47 27.36C2.4 27.36 0 28.8 0 30.64s2.4 3.28 5.47 3.28 5.47-1.44 5.47-3.28-2.4-3.28-5.47-3.28" class="cls-2"/><path d="M5.47 26.27C2.4 26.27 0 27.71 0 29.55s2.4 3.28 5.47 3.28 5.47-1.44 5.47-3.28-2.4-3.28-5.47-3.28" class="cls-1"/><path d="M5.47 25.17C2.4 25.17 0 26.61 0 28.45s2.4 3.28 5.47 3.28 5.47-1.44 5.47-3.28-2.4-3.28-5.47-3.28" class="cls-2"/><path d="M5.47 24.08C2.4 24.08 0 25.52 0 27.36s2.4 3.28 5.47 3.28 5.47-1.44 5.47-3.28-2.4-3.28-5.47-3.28" class="cls-1"/><path d="M5.47 23C2.4 23 0 24.42 0 26.27s2.4 3.28 5.47 3.28 5.47-1.44 5.47-3.28S8.54 23 5.47 23" class="cls-2"/><path d="M0 31.74C0 33.58 2.4 35 5.47 35v-6.55C2.4 28.45 0 29.9 0 31.74" class="cls-2"/><path d="M0 30.64c0 1.84 2.4 3.28 5.47 3.28v-6.56C2.4 27.36 0 28.8 0 30.64" class="cls-3"/><path d="M0 29.55c0 1.84 2.4 3.28 5.47 3.28v-6.56C2.4 26.27 0 27.71 0 29.55" class="cls-2"/><path d="M0 29.55c0 1.84 2.4 3.28 5.47 3.28v-6.56C2.4 26.27 0 27.71 0 29.55" class="cls-2"/><path d="M0 28.45c0 1.84 2.4 3.28 5.47 3.28v-6.56C2.4 25.17 0 26.61 0 28.45" class="cls-3"/><path d="M0 27.36c0 1.84 2.4 3.28 5.47 3.28v-6.56C2.4 24.08 0 25.52 0 27.36" class="cls-2"/><path d="M0 26.27c0 1.84 2.4 3.28 5.47 3.28V23C2.4 23 0 24.42 0 26.27" class="cls-3"/><path d="M0 25.17c0 1.83 2.4 3.28 5.47 3.28v-6.56C2.4 21.89 0 23.33 0 25.17" class="cls-2"/><path d="M5.47 21.89C2.4 21.89 0 23.33 0 25.17s2.4 3.28 5.47 3.28 5.47-1.44 5.47-3.28-2.4-3.28-5.47-3.28" class="cls-1"/><path d="M5.47 20.79C2.4 20.79 0 22.23 0 24.08s2.4 3.28 5.47 3.28 5.47-1.44 5.47-3.28-2.4-3.28-5.47-3.28" class="cls-2"/><path d="M5.47 19.7C2.4 19.7 0 21.14 0 23s2.4 3.28 5.47 3.28 5.47-1.44 5.47-3.28-2.4-3.3-5.47-3.3" class="cls-1"/><path d="M5.47 18.6C2.4 18.6 0 20 0 21.89s2.4 3.28 5.47 3.28 5.47-1.44 5.47-3.28-2.4-3.29-5.47-3.29" class="cls-2"/><path d="M5.47 17.51C2.4 17.51 0 19 0 20.79s2.4 3.28 5.47 3.28 5.47-1.44 5.47-3.28-2.4-3.28-5.47-3.28" class="cls-1"/><path d="M0 25.17c0 1.83 2.4 3.28 5.47 3.28v-6.56C2.4 21.89 0 23.33 0 25.17" class="cls-2"/><path d="M0 24.08c0 1.84 2.4 3.28 5.47 3.28v-6.57C2.4 20.79 0 22.24 0 24.08" class="cls-3"/><path d="M0 23c0 1.84 2.4 3.28 5.47 3.28V19.7C2.4 19.7 0 21.14 0 23" class="cls-2"/><path d="M0 21.89c0 1.84 2.4 3.28 5.47 3.28V18.6C2.4 18.6 0 20 0 21.89" class="cls-3"/><path d="M0 20.79c0 1.84 2.4 3.28 5.47 3.28v-6.56C2.4 17.51 0 19 0 20.79" class="cls-2"/><path d="M5.47 16.42C2.4 16.42 0 17.86 0 19.7S2.4 23 5.47 23s5.47-1.44 5.47-3.28-2.4-3.28-5.47-3.28" class="cls-2"/><path d="M0 19.7C0 21.54 2.4 23 5.47 23v-6.58C2.4 16.42 0 17.86 0 19.7" class="cls-3"/><path d="M5.47 15.32C2.4 15.32 0 16.76 0 18.6s2.4 3.28 5.47 3.28 5.47-1.44 5.47-3.28-2.4-3.28-5.47-3.28" class="cls-1"/><path d="M5.47 14.23C2.4 14.23 0 15.67 0 17.51s2.4 3.28 5.47 3.28 5.47-1.44 5.47-3.28-2.4-3.28-5.47-3.28" class="cls-2"/><path d="M0 18.6c0 1.84 2.4 3.28 5.47 3.28v-6.56C2.4 15.32 0 16.76 0 18.6" class="cls-2"/><path d="M0 17.51c0 1.84 2.4 3.28 5.47 3.28v-6.56C2.4 14.23 0 15.67 0 17.51" class="cls-3"/><path d="M5.47 13.13C2.4 13.13 0 14.57 0 16.42s2.4 3.28 5.47 3.28 5.47-1.44 5.47-3.28-2.4-3.28-5.47-3.28" class="cls-1"/><path d="M5.47 12C2.4 12 0 13.48 0 15.32s2.4 3.28 5.47 3.28 5.47-1.44 5.47-3.28S8.54 12 5.47 12" class="cls-2"/><path d="M5.47 10.94C2.4 10.94 0 12.39 0 14.23s2.4 3.28 5.47 3.28 5.47-1.44 5.47-3.28-2.4-3.28-5.47-3.28" class="cls-1"/><path d="M0 16.42c0 1.84 2.4 3.28 5.47 3.28v-6.57C2.4 13.13 0 14.57 0 16.42" class="cls-2"/><path d="M0 15.32c0 1.84 2.4 3.28 5.47 3.28V12C2.4 12 0 13.48 0 15.32" class="cls-3"/><path d="M0 14.23c0 1.84 2.4 3.28 5.47 3.28v-6.57C2.4 10.94 0 12.39 0 14.23" class="cls-2"/><path d="M5.47 9.85C2.4 9.85 0 11.29 0 13.13s2.4 3.28 5.47 3.28 5.47-1.44 5.47-3.28-2.4-3.28-5.47-3.28" class="cls-2"/><path d="M0 13.13c0 1.87 2.4 3.29 5.47 3.29V9.85C2.4 9.85 0 11.29 0 13.13" class="cls-3"/><path d="M5.47 8.76C2.4 8.76 0 10.2 0 12s2.4 3.28 5.47 3.28 5.47-1.44 5.47-3.28-2.4-3.24-5.47-3.24" class="cls-1"/><path d="M5.47 14.23c-2.22 0-3.83-.92-3.83-2.19s1.61-2.19 3.83-2.19S9.3 10.77 9.3 12s-1.61 2.19-3.83 2.19m0-3.28c-1.69 0-2.74.64-2.74 1.09s1 1.09 2.74 1.09 2.74-.6 2.74-1.09-1-1.09-2.74-1.09" class="cls-4"/></g></g></svg>