<svg xmlns="http://www.w3.org/2000/svg" viewBox="0 0 37.04 37.81"><defs><style>.cls-1{fill:#5d647f;}.cls-2{fill:#b8bac0;}.cls-3{fill:#8a8895;}.cls-4{fill:#d9fff8;}.cls-5{fill:#695a69;}.cls-6{fill:#95ffff;}</style></defs><g id="Слой_2" data-name="Слой 2"><g id="Слой_1-2" data-name="Слой 1"><path d="M12.35 4.97l-.78.43v-.77H3.86L0 11.57h12.35v-6.6zm20.83-.34h-7.72v.77l-.77-.43v6.6h12.35l-3.86-6.94z" class="cls-1"/><path d="M12.34 11.57H.77v23.15h11.57zM9.26 25.46v6.17h-5.4v-6.94h5.4zm0-10v6.17h-5.4v-6.97h5.4zm15.43 19.26h11.57V11.57H24.69zm3.09-13.89v-6.17h5.4v6.94h-5.4zm0 10v-6.14h5.4v6.94h-5.4z" class="cls-2"/><path d="M12.35 5v29.72h3.09v-9.26h6.16v9.26h3.09V5l-6.17-3.46zm9.25 10.43v6.17h-6.17v-6.94h6.17zm-.77-6.94a2.32 2.32 0 1 1-2.32-2.31 2.32 2.32 0 0 1 2.32 2.31" class="cls-3"/><path d="M4.63 20.83h3.08l-3.08-3.08v3.08z" class="cls-4"/><path d="M7.71 20.83h.78v-3.08H4.63l3.08 3.08zm-3.08-5.4h3.86v1.54H4.63z" class="cls-4"/><path d="M4.63 14.66h-.77v6.94h5.4v-6.94H4.63zm3.86 6.17H4.63v-3.08h3.86zm0-3.86H4.63v-1.54h3.86z" class="cls-5"/><path d="M16.2 20.83h3.09l-3.09-3.08v3.08zm0-5.4h4.63v1.54H16.2z" class="cls-4"/><path d="M16.2 17.75l3.09 3.08h1.54v-3.08H16.2z" class="cls-4"/><path d="M16.2 14.66h-.77v6.94h6.17v-6.94h-5.4zm4.63 6.17H16.2v-3.08h4.63zm0-3.86H16.2v-1.54h4.63z" class="cls-5"/><path d="M21.6 25.46h-6.17v12.35h6.17V25.46z" class="cls-1"/><path d="M.77 34.72h11.57v3.09H.77zm23.92 0h11.57v3.09H24.69z" class="cls-3"/><path d="M21.6 34.72h3.09v3.09H21.6zm-9.26 0h3.09v3.09h-3.09z" class="cls-5"/><path d="M12.35 4.97l6.17-3.43 6.17 3.43.77.43V3.86L18.52 0l-6.95 3.86V5.4l.78-.43z" class="cls-1"/><path d="M16.2 8.49a2.32 2.32 0 1 0 2.32-2.31 2.32 2.32 0 0 0-2.32 2.31m3.86 0a1.54 1.54 0 1 1-1.54-1.54 1.54 1.54 0 0 1 1.54 1.54" class="cls-5"/><path d="M17.43 7.4a1.57 1.57 0 0 1 .29-.23 1.54 1.54 0 1 0 2.35 1.32 1.53 1.53 0 0 1-.45 1.09z" class="cls-4"/><path d="M20.06 8.49a1.54 1.54 0 0 0-1.54-1.54 1.54 1.54 0 0 1 1.54 1.54" class="cls-6"/><path d="M18.52 6.95a1.54 1.54 0 0 0-.8.23 1.57 1.57 0 0 0-.29.23l2.18 2.18a1.54 1.54 0 0 0-1.09-2.63m10.03 10.79v3.08h3.08l-3.08-3.08z" class="cls-4"/><path d="M32.41 20.83v-3.08h-3.86l3.08 3.08h.78zm-3.86-5.4h3.86v1.54h-3.86z" class="cls-4"/><path d="M32.41 21.61h.77v-6.95h-5.4v6.94h4.63zm-3.86-6.17h3.86V17h-3.86zm0 2.32h3.86v3.09h-3.86z" class="cls-5"/><path d="M4.63 30.86h3.08l-3.08-3.08v3.08z" class="cls-4"/><path d="M7.71 30.86h.78v-3.08H4.63l3.08 3.08zm-3.08-5.4h3.86V27H4.63z" class="cls-4"/><path d="M4.63 24.69h-.77v6.94h5.4v-6.94H4.63zm3.86 6.17H4.63v-3.08h3.86zm0-3.86H4.63v-1.54h3.86z" class="cls-5"/><path d="M28.55 27.78v3.08h3.08l-3.08-3.08z" class="cls-4"/><path d="M32.41 30.86v-3.08h-3.86l3.08 3.08h.78zm-3.86-5.4h3.86V27h-3.86z" class="cls-4"/><path d="M32.41 31.64h.77v-6.95h-5.4v6.94h4.63zm-3.86-6.17h3.86V27h-3.86zm0 2.32h3.86v3.09h-3.86z" class="cls-5"/></g></g></svg>