<svg xmlns="http://www.w3.org/2000/svg" viewBox="0 0 33.87 34.49"><defs><style>.cls-1{fill:#ff9500;}.cls-2{fill:#ffd100;}.cls-3{fill:none;stroke:#ff9500;stroke-linecap:round;stroke-miterlimit:10;}</style></defs><g id="Слой_2" data-name="Слой 2"><g id="Слой_1-2" data-name="Слой 1"><path d="M14.61 15.11c-2-4-1.89-8.36 1.39-11.67a10.43 10.43 0 0 1 15.44.68 10.69 10.69 0 0 1-.66 14.3 10.06 10.06 0 0 1-10.61 2.29l-1.85 1.9H15v2.64h-2.59v2.64H9.13v3.3h-2V33a1.11 1.11 0 0 1-.36 1 1.5 1.5 0 0 1-1 .44H.62v-5.89zm9.26-4.67a3.26 3.26 0 0 0 4.63 0 3.32 3.32 0 0 0 0-4.67 3.26 3.26 0 0 0-4.63 0 3.32 3.32 0 0 0 0 4.67" class="cls-1"/><path d="M14 14.76c-2-4-1.89-8.36 1.39-11.67a10.43 10.43 0 0 1 15.44.67 10.69 10.69 0 0 1-.66 14.3 10.06 10.06 0 0 1-10.61 2.29l-1.85 1.9h-3.3v2.65h-2.62v2.64H8.52v3.3h-2v1.83a1.11 1.11 0 0 1-.36 1 1.5 1.5 0 0 1-1 .44H0V28.2zm9.26-4.67a3.26 3.26 0 0 0 4.63 0 3.32 3.32 0 0 0 0-4.67 3.26 3.26 0 0 0-4.63 0 3.32 3.32 0 0 0 0 4.67" class="cls-2"/><path d="M3.33 29.79l13.55-12.6" class="cls-3"/></g></g></svg>