<?xml version="1.0" standalone="no"?>
<!DOCTYPE svg PUBLIC "-//W3C//DTD SVG 20010904//EN"
 "http://www.w3.org/TR/2001/REC-SVG-20010904/DTD/svg10.dtd">
<svg version="1.0" xmlns="http://www.w3.org/2000/svg"
 width="260.000000pt" height="260.000000pt" viewBox="0 0 260.000000 260.000000"
 preserveAspectRatio="xMidYMid meet">
<metadata>
Created by potrace 1.11, written by Peter Selinger 2001-2013
</metadata>
<g transform="translate(0.000000,260.000000) scale(0.100000,-0.100000)"
fill="#000000" stroke="none">
<path d="M600 1521 l0 -241 -55 0 -55 0 0 -90 0 -90 55 0 55 0 0 -45 0 -45
-55 0 -55 0 0 -55 0 -55 55 0 54 0 3 -62 3 -63 115 0 115 0 3 63 3 62 159 0
160 0 0 55 0 55 -160 0 -160 0 0 45 0 45 68 0 c160 0 269 37 343 117 63 67 83
129 77 242 -5 102 -25 147 -90 208 -25 22 -71 51 -104 64 -55 22 -76 23 -296
27 l-238 4 0 -241z m415 53 c44 -21 65 -54 72 -114 8 -67 -18 -135 -61 -161
-23 -14 -50 -19 -108 -19 l-78 0 0 155 0 155 71 0 c44 0 84 -6 104 -16z"/>
<path d="M1356 1628 c58 -139 177 -428 221 -535 24 -60 27 -63 59 -63 l34 0
-16 -25 c-22 -34 -89 -72 -140 -81 -66 -10 -67 -12 -53 -87 17 -93 15 -91 97
-77 135 22 246 100 302 210 23 46 300 766 300 781 0 5 -53 9 -118 9 l-118 0
-84 -277 c-46 -153 -86 -282 -90 -286 -4 -4 -44 99 -89 230 -45 131 -89 259
-99 286 l-17 47 -122 0 -122 0 55 -132z"/>
</g>
</svg>
