<?xml version="1.0" standalone="no"?>
<!DOCTYPE svg PUBLIC "-//W3C//DTD SVG 1.1//EN" "http://www.w3.org/Graphics/SVG/1.1/DTD/svg11.dtd">
<svg xmlns="http://www.w3.org/2000/svg">
<metadata>Copyright (C) 2016 by original authors @ fontello.com</metadata>
<defs>
<font id="fontello" horiz-adv-x="1000" >
<font-face font-family="fontello" font-weight="400" font-stretch="normal" units-per-em="1000" ascent="850" descent="-150" />
<missing-glyph horiz-adv-x="1000" />
<glyph glyph-name="1" unicode="&#xe800;" d="M2917 764h-234a49 49 0 0 1-44-27l-202-389h-683l-110 104h273a49 49 0 0 1 30 11l109 88a53 53 0 0 1 0 77l-116 122a49 49 0 0 1-33 14h-507a1106 1106 0 0 1-414 86 741 741 0 0 1-380-91l-572-331a51 51 0 0 1-25-34 53 53 0 0 1 9-42l352-481a49 49 0 0 1 40-21 48 48 0 0 1 27 0l206 127 276-50 930-86h12l826 120a51 51 0 0 1 38 28l250 528a55 55 0 0 1 0 23v166a51 51 0 0 1-14 37 49 49 0 0 1-44 21z m-49-204l-234-492-794-116-919 85-291 51h0a49 49 0 0 1-26 0l-176-113-289 396 528 303a657 657 0 0 0 330 77 1014 1014 0 0 0 385-82l19 0h497l69-67-50-41h-382a49 49 0 0 1-46-33 53 53 0 0 1 13-56l216-206a49 49 0 0 1 34-15h716a49 49 0 0 1 44 27l203 389h153v-102h0z" horiz-adv-x="2967" />

<glyph glyph-name="2" unicode="&#xe801;" d="M1248 242h-100a21 21 0 0 1-19-11l-87-166h-292l-47 44h117a21 21 0 0 1 13 5l47 37a23 23 0 0 1 0 33l-55 52a21 21 0 0 1-14 6h-217a473 473 0 0 1-177 37 317 317 0 0 1-162-39l-245-141a22 22 0 0 1-11-15 23 23 0 0 1 4-18l151-206a21 21 0 0 1 17-9 20 20 0 0 1 11 0l88 55 119-21 397-37h5l354 51a22 22 0 0 1 16 12l107 226a23 23 0 0 1 0 10v71a22 22 0 0 1-6 15 21 21 0 0 1-14 9z m-21-87l-100-210-340-50-393 36-124 22h0a21 21 0 0 1-12 0l-75-48-123 169 225 130a281 281 0 0 0 141 33 434 434 0 0 0 165-35l8 0h213l18-35-21-17h-164a21 21 0 0 1-19-15 23 23 0 0 1 5-24l93-88a21 21 0 0 1 14-6h318a21 21 0 0 1 19 12l86 166h66v-44h0z m-40 447a248 248 0 0 1-473 103h-475a22 22 0 0 1-14-4l-46-38a22 22 0 0 1-7-16v-103a22 22 0 0 1 5-14l20-23 0 0a21 21 0 0 1 15-6h75a22 22 0 0 1 15 6l8 8 9-8a22 22 0 0 1 15-6h15a22 22 0 0 1 16 6l34 34 35-34a22 22 0 0 1 15-6h55a22 22 0 0 1 15 6l7 6 6-6a21 21 0 0 1 15-6h57a22 22 0 0 1 15 6l12 12 12-12a21 21 0 0 1 15-6h57a248 248 0 0 1 472 101z m-248-205a205 205 0 0 0-190 131 21 21 0 0 1-21 13h-62l-21 21a21 21 0 0 1-30 0l-21-21h-33l-16 16a21 21 0 0 1-30 0l-16-16h-37l-43 44a21 21 0 0 1-30 0l-43-42-15 16a21 21 0 0 1-30 0l-18-18h-60l-8 10v85l32 27h481a21 21 0 0 1 21 13 205 205 0 1 0 190-279z m164 247a75 75 0 1 1 22-51 75 75 0 0 1-22 51z" horiz-adv-x="1269" />

<glyph glyph-name="3" unicode="&#xe802;" d="M741 848h-725a16 16 0 0 1-16-16v-63s0-922 6-922h734a16 16 0 0 1 16 16v969a16 16 0 0 1-15 16z m-740-111v0h0z m724-858h-692v937h692v-937h0z m-416 812h-251v72h251v-72h0z m392 0h-252v72h252v-72h0z m-375 36a53 53 0 1 0 53-53 53 53 0 0 0-54 55z m21-181h-266v27h266v-27z m-266-75h266v-27h-266v31z m3-104h266v-27h-266v29z m-3-106h580v-27h-580v27z m0-107h580v-27h-580v27z m0-103h580v-26h-580v26z" horiz-adv-x="756" />

<glyph glyph-name="4" unicode="&#xe803;" d="M641 850a360 360 0 0 1-266-601l-50-52a73 73 0 0 1-95-11l-209-209a73 73 0 1 1 108-108l210 209a73 73 0 0 1 8 97l49 49a360 360 0 1 1 245 626z m-324-747l-209-209a45 45 0 1 0-63 63l209 210a45 45 0 1 0 63-64z m324 59a328 328 0 1 0 328 328 328 328 0 0 0-328-328z m280 428a298 298 0 0 1-182 181 15 15 0 1 1-10-29 268 268 0 0 0 163-162 15 15 0 0 1 14-11h3a15 15 0 0 1 12 21z m-133-190h0l-58 15a21 21 0 0 0-10 5v32h0a136 136 0 0 1 31 87v24a219 219 0 0 1 0 137h-17a154 154 0 0 0-53 7 124 124 0 0 1-107-8 64 64 0 0 1-56-68 439 439 0 0 1 15-86v-13a141 141 0 0 1 31-88v-27a21 21 0 0 0-10-6l-58-15h0a80 80 0 0 1-57-77v-17a35 35 0 0 1 36-34h335a35 35 0 0 1 36 34v17a80 80 0 0 1-58 81z m-146-32l-54 32a30 30 0 0 1 6 19v7a94 94 0 0 1 48-13 97 97 0 0 1 47 12v-8a30 30 0 0 1 8-20z m-78 179a192 192 0 0 0 12 53 460 460 0 0 0 146-26v-11h0v-26a104 104 0 0 0-26-73h0a73 73 0 0 0-52-24 92 92 0 0 0-77 97v5z m16 131h10a94 94 0 0 0 85 5 230 230 0 0 1 51-8 192 192 0 0 0 4-73 491 491 0 0 1-164 27h-15a142 142 0 0 0 0 19 32 32 0 0 0 27 30z m-105-375a5 5 0 0 0-5 0v17a49 49 0 0 0 34 47l52 14 73-42v-38h-158z m339 0a5 5 0 0 0-5 0h-151v40l73 42 52-13a49 49 0 0 0 34-47v-17h0z" horiz-adv-x="1000" />

<glyph glyph-name="5" unicode="&#xe804;" d="M832 665h24l-30-108a46 46 0 0 1 0-11 8 8 0 0 1 8-10l14 0a51 51 0 0 1 18 12 77 77 0 0 1 17 25 101 101 0 0 1 7 41 88 88 0 0 1-8 39 94 94 0 0 1-22 30 104 104 0 0 1-32 19 105 105 0 0 1-38 7 122 122 0 0 1-47-9 118 118 0 0 1-38-26 120 120 0 0 1-26-40 129 129 0 0 1-10-49 108 108 0 0 1 10-46 111 111 0 0 1 26-36 114 114 0 0 1 37-23 120 120 0 0 1 43-8 113 113 0 0 1 54 12 100 100 0 0 1 31 39h24a87 87 0 0 0-19-31 116 116 0 0 0-29-21 134 134 0 0 0-34-13 177 177 0 0 0-39-4 134 134 0 0 0-50 10 134 134 0 0 0-42 28 137 137 0 0 0-31 43 128 128 0 0 0-11 54 152 152 0 0 0 12 61 142 142 0 0 0 32 47 140 140 0 0 0 46 29 152 152 0 0 0 56 10 134 134 0 0 0 85-32 116 116 0 0 0 28-36 105 105 0 0 0 10-47 125 125 0 0 0-8-46 100 100 0 0 0-21-33 85 85 0 0 0-29-20 88 88 0 0 0-34-7 21 21 0 0 0-17 7 25 25 0 0 0-7 15 51 51 0 0 0-19-16 54 54 0 0 0-24-6 51 51 0 0 0-22 5 52 52 0 0 0-17 13 59 59 0 0 0-11 19 60 60 0 0 0-4 21 108 108 0 0 0 6 35 116 116 0 0 0 17 32 90 90 0 0 0 26 24 67 67 0 0 0 34 9 39 39 0 0 0 16 0 45 45 0 0 0 12-8l8-9a33 33 0 0 0 5-8z m-26-89l4 17 0 10a50 50 0 0 1 0 6s0 0 0 4a33 33 0 0 1-9 24 30 30 0 0 1-22 10 37 37 0 0 1-22-8 81 81 0 0 1-18-18 95 95 0 0 1-14-24 67 67 0 0 1-4-24 57 57 0 0 1 0-14 40 40 0 0 1 5-12 27 27 0 0 1 24-12 48 48 0 0 1 29 10 60 60 0 0 1 25 30z m302-378h-89a19 19 0 0 1-17-10l-77-148h-259l-42 39h104a19 19 0 0 1 11 4l42 34a20 20 0 0 1 0 29l-48 46a19 19 0 0 1-13 6h-193a420 420 0 0 1-157 32 281 281 0 0 1-144-34l-217-126a19 19 0 0 1-10-13 20 20 0 0 1 4-16l133-182a19 19 0 0 1 16-8 18 18 0 0 1 10 0l78 48 105-19 353-33h5l313 46a19 19 0 0 1 15 10l95 201a21 21 0 0 1 0 9v63a19 19 0 0 1-6 14 19 19 0 0 1-12 8z m-19-78l-89-186-301-45-349 32-111 20h0a19 19 0 0 1-10 0l-67-43-109 151 200 115a249 249 0 0 0 125 29 385 385 0 0 0 147-31l7 0h189l26-26-19-15h-145a19 19 0 0 1-17-13 20 20 0 0 1 4-21l82-79a19 19 0 0 1 13-5h272a19 19 0 0 1 17 10l77 148h58v-40h0z m-312 216a257 257 0 1 0 256 257 257 257 0 0 0-256-257z m0 481a223 223 0 1 1 223-224 224 224 0 0 1-223 224z" horiz-adv-x="1126" />

<glyph glyph-name="6" unicode="&#xe805;" d="M945 683h-205v76a92 92 0 0 1-92 91h-222a92 92 0 0 1-91-91v-76h-206a126 126 0 0 1-126-126v-297a91 91 0 0 1 37-73h0v-207a126 126 0 0 1 126-126h743a126 126 0 0 1 126 126v205h0a91 91 0 0 1 37 73v297a126 126 0 0 1-127 128z m-576 76a57 57 0 0 0 56 56h223a57 57 0 0 0 57-56v-76h-40v76a18 18 0 0 1-18 17h-222a18 18 0 0 1-18-17v-76h-40v76z m74-76v58h189v-58h-189z m559-704a94 94 0 0 0-94-94h-742a94 94 0 0 0-95 95v190a91 91 0 0 1 19 0h94v-20a55 55 0 0 1 55-55h37a55 55 0 0 1 55 55v20h411v-20a55 55 0 0 1 55-55h37a55 55 0 0 1 55 55v20h93a91 91 0 0 1 20 0v-190z m-705 222h-77v20a20 20 0 0 0 19 19h38a20 20 0 0 0 19-19v-20z m0-35v-19a20 20 0 0 0-20-20h-37a20 20 0 0 0-19 20v19h76z m557 35h-77v20a20 20 0 0 0 20 19h37a20 20 0 0 0 19-19v-20z m0-35v-19a20 20 0 0 0-20-20h-37a20 20 0 0 0-19 20v19h76z m186 92a57 57 0 0 0-57-57h-93v20a55 55 0 0 1-55 54h-37a55 55 0 0 1-55-54v-20h-411v20a55 55 0 0 1-55 54h-37a55 55 0 0 1-55-54v-20h-94a57 57 0 0 0-56 57v297a94 94 0 0 0 94 93h819a94 94 0 0 0 94-93v-297z" horiz-adv-x="1074" />

<glyph glyph-name="7" unicode="&#xe806;" d="M1002 661a14 14 0 0 1-16 11l-90-17a83 83 0 0 1-58-42v0a359 359 0 0 0-105-119 344 344 0 0 1-41-35l-131-131a42 42 0 0 0-54 63l94 94a102 102 0 0 1 18 121 98 98 0 0 1-88 52h-11a98 98 0 0 1-65-29l-60-61a80 80 0 0 1-24-54l0-42-62-63 7 173a25 25 0 0 0 7 16l202 208a63 63 0 0 0 45 19h245a14 14 0 0 1 0 28h-245a91 91 0 0 1-65-27h0l-202-209a53 53 0 0 1-14-34l-9-203-273-273a14 14 0 0 1 0-19l231-231a14 14 0 0 1 19 0l474 474a14 14 0 0 1 0 20l-54 54 36 36a314 314 0 0 0 39 32 387 387 0 0 1 113 129v0a55 55 0 0 0 38 28l90 17a14 14 0 0 1 9 14z m-516-252a70 70 0 0 1 93-103l0 0 40 40 16-17-383-383-156 156 383 383 42-41z m-11 197a73 73 0 0 0 49 21h9a73 73 0 0 0 63-37 74 74 0 0 0-13-88l-4-4-78 79a14 14 0 0 1-20 0l-28-28v33z m-77-98a52 52 0 0 0 16 35l10 10v-33l-26-25v13z m302-173l-455-455-211 211 455 455 68-69-15-12-49 49a14 14 0 0 1-19 0l-404-403a14 14 0 0 1 0-20l176-176a14 14 0 0 1 20 0l403 404a14 14 0 0 1 0 19l-29 29 16 15z m-288-73c-39 38-90 49-115 23s-15-76 23-115a117 117 0 0 1 79-38 49 49 0 0 1 37 14 57 57 0 0 1 12 56 132 132 0 0 1-36 60z m4-96a86 86 0 0 0-98 98 24 24 0 0 0 17 6 90 90 0 0 0 59-29 105 105 0 0 0 28-46 31 31 0 0 0-6-29z" horiz-adv-x="1002" />

<glyph glyph-name="8" unicode="&#xe807;" d="M20 459h100a21 21 0 0 1 19 12l86 166h292l47-44h-115a21 21 0 0 1-13-5l-47-38a23 23 0 0 1 0-33l55-52a21 21 0 0 1 14-6h217a473 473 0 0 1 177-37 317 317 0 0 1 162 39l245 142a22 22 0 0 1 11 14 23 23 0 0 1-4 18l-151 206a21 21 0 0 1-17 9 20 20 0 0 1-11 0l-88-54-119 21-397 37h-6l-353-51a22 22 0 0 1-16-12l-107-226a23 23 0 0 1 0-10v-71a22 22 0 0 1 6-16 21 21 0 0 1 13-9z m21 88l100 210 339 49 394-36 124-22h0a21 21 0 0 1 11 0l75 49 124-170-226-129a281 281 0 0 0-141-33 434 434 0 0 0-165 35l-8 0h-212l-30 29 21 17h175a21 21 0 0 1 20 14 23 23 0 0 1-6 24l-92 88a21 21 0 0 1-15 6h-314a21 21 0 0 1-18-11l-87-166h-68v43h0z m41-450a248 248 0 0 1 473-103h475a22 22 0 0 1 14 4l46 38a22 22 0 0 1 7 17v102a22 22 0 0 1-5 14l-20 23 0 0a21 21 0 0 1-15 6h-75a22 22 0 0 1-15-6l-8-8-9 8a22 22 0 0 1-15 6h-16a22 22 0 0 1-15-6l-34-35-35 35a22 22 0 0 1-15 6h-55a22 22 0 0 1-15-6l-7-7-7 7a21 21 0 0 1-15 6h-50a22 22 0 0 1-15-6l-12-12-12 12a21 21 0 0 1-15 6h-57a248 248 0 0 1-478-101z m248 205a205 205 0 0 0 190-130 21 21 0 0 1 21-14h61l22-21a21 21 0 0 1 30 0l21 21h33l16-16a21 21 0 0 1 30 0l16 16h37l43-44a21 21 0 0 1 30 0l42 43 16-16a21 21 0 0 1 30 0l18 17h60l8-10v-85l-32-26h-481a21 21 0 0 1-21-14 205 205 0 1 0-190 279z m-128-246a75 75 0 1 1-22 52 75 75 0 0 1 22-52z" horiz-adv-x="1269" />

<glyph glyph-name="9" unicode="&#xe808;" d="M742 848h-724a16 16 0 0 1-16-16v-63s0-922 6-922h734a16 16 0 0 1 16 16v969a16 16 0 0 1-16 16z m-740-111v0h0z m724-858h-692v937h692v-937h0z m-415 812h-252v72h252v-72h0z m392 0h-252v72h252v-72h0z m-375 36a53 53 0 1 0 53-53 53 53 0 0 0-56 55z m21-181h-266v27h266v-27z m-266-75h266v-27h-266v31z m3-104h266v-27h-266v29z m-3-106h580v-27h-580v27z m0-107h580v-27h-580v27z m0-103h580v-26h-580v26z" horiz-adv-x="756" />

<glyph glyph-name="10" unicode="&#xe809;" d="M985 365h-16a470 470 0 0 1-454 454v16a15 15 0 0 1-30 0v-16a470 470 0 0 1-454-454h-16a15 15 0 1 1 0-30h16a470 470 0 0 1 454-454v-16a15 15 0 1 1 30 0v16a470 470 0 0 1 454 454h16a15 15 0 1 1 0 30h0z m-132 247l-126-125a267 267 0 0 1-90 90l126 125a446 446 0 0 0 90-90h0z m-141-365l0-4a238 238 0 0 0-102-101l-3 0a236 236 0 0 0-209 0l-4 0a237 237 0 0 0-101 101l0 4a236 236 0 0 0 0 209l0 3a237 237 0 0 0 101 102l4 0a236 236 0 0 0 209 0l3 0a237 237 0 0 0 102-102l0-3a236 236 0 0 0 0-209h0z m-209-335a436 436 0 0 0-239 70l128 128a265 265 0 0 1 220 0l128-128a436 436 0 0 0-240-70z m0 878a436 436 0 0 0 238-70l-128-128a265 265 0 0 1-220 0l-128 128a436 436 0 0 0 238 70h0z m-311-128a446 446 0 0 0 48 42l125-126a267 267 0 0 1-90-89l-125 125a446 446 0 0 0 40 47z m-59-73l128-128a265 265 0 0 1 0-220l-128-128a440 440 0 0 0-2 475z m17-500l125 125a267 267 0 0 1 90-90l-125-125a446 446 0 0 0-90 90h0z m663-48a446 446 0 0 0-48-42l-125 125a267 267 0 0 1 89 90l126-125a446 446 0 0 0-44-49z m59 72l-128 128a265 265 0 0 1 0 220l128 128a440 440 0 0 0 0-476h0z" horiz-adv-x="1000" />

<glyph glyph-name="11" unicode="&#xe80a;" d="M331 198h26l-33-114a48 48 0 0 1 0-12 9 9 0 0 1 8-11l15 0a54 54 0 0 1 20 13 82 82 0 0 1 18 26 107 107 0 0 1 8 44 94 94 0 0 1-12 45 99 99 0 0 1-24 32 110 110 0 0 1-34 20 111 111 0 0 1-40 7 129 129 0 0 1-50-10 125 125 0 0 1-41-27 127 127 0 0 1-28-42 137 137 0 0 1-9-52 114 114 0 0 1 10-49 118 118 0 0 1 28-38 121 121 0 0 1 39-24 128 128 0 0 1 46-9 120 120 0 0 1 57 13 106 106 0 0 1 39 35h25a92 92 0 0 0-20-32 123 123 0 0 0-31-23 142 142 0 0 0-37-13 188 188 0 0 0-40-4 142 142 0 0 0-53 10 142 142 0 0 0-46 30 145 145 0 0 0-32 45 135 135 0 0 0-12 57 162 162 0 0 0 13 65 151 151 0 0 0 34 50 148 148 0 0 0 49 31 161 161 0 0 0 59 11 142 142 0 0 0 91-34 123 123 0 0 0 29-39 111 111 0 0 0 10-50 133 133 0 0 0-8-48 106 106 0 0 0-22-35 90 90 0 0 0-31-22 94 94 0 0 0-37-7 23 23 0 0 0-17 7 27 27 0 0 0-7 17 54 54 0 0 0-20-18 57 57 0 0 0-26-6 54 54 0 0 0-24 5 55 55 0 0 0-18 14 62 62 0 0 0-11 20 64 64 0 0 0-4 22 114 114 0 0 0 6 38 123 123 0 0 0 18 34 95 95 0 0 0 28 24 71 71 0 0 0 36 10 42 42 0 0 0 17 0 48 48 0 0 0 13-8l8-10a35 35 0 0 0 5-9z m-28-94l7 14 0 11a53 53 0 0 1 0 7s0 0 0 4a35 35 0 0 1-10 25 32 32 0 0 1-24 10 40 40 0 0 1-22-7 86 86 0 0 1-20-20 101 101 0 0 1-14-25 71 71 0 0 1-5-26 60 60 0 0 1 0-14 43 43 0 0 1 5-14 29 29 0 0 1 26-13 50 50 0 0 1 30 12 63 63 0 0 1 27 35z m-268 378h95a20 20 0 0 1 17 10l82 157h275l44-42h-110a20 20 0 0 1-12-4l-44-36a21 21 0 0 1 0-31l51-49a20 20 0 0 1 14-5h204a445 445 0 0 1 166-35 298 298 0 0 1 153 37l231 133a21 21 0 0 1 10 13 21 21 0 0 1-4 17l-142 194a20 20 0 0 1-16 8 19 19 0 0 1-11 0l-83-51-111 20-374 35h-4l-333-48a21 21 0 0 1-15-12l-101-212a22 22 0 0 1 0-9v-67a21 21 0 0 1 6-15 20 20 0 0 1 12-8z m20 82l95 197 319 47 370-34 117-20h0a20 20 0 0 1 11 0l71 45 116-159-213-122a264 264 0 0 0-132-32 408 408 0 0 0-156 34l-7 0h-194l-28 27 20 16h153a20 20 0 0 1 19 13 21 21 0 0 1-5 23l-89 86a20 20 0 0 1-13 6h-296a20 20 0 0 1-17-11l-82-157h-62v41h0z m217-715a272 272 0 1 0 272 272 273 273 0 0 0-272-272z m0 510a237 237 0 1 1 237-237 237 237 0 0 1-237 237z" horiz-adv-x="1210" />

<glyph glyph-name="12" unicode="&#xe80b;" d="M723 587a95 95 0 1 1-95 94 95 95 0 0 1 95-94z m0 171a77 77 0 1 0-77-77 77 77 0 0 0 77 78z m73-537a9 9 0 0 1-9-9v-67a9 9 0 0 1 17 0v67a9 9 0 0 1-8 9z m142 77h0a48 48 0 0 1 57 76l-30 28v417a30 30 0 0 1-30 31h-891a30 30 0 0 1-30-31v-492a30 30 0 0 1 30-30h553v-23h-567a30 30 0 0 1-30-30v-19a30 30 0 0 1 30-31h567v-285a58 58 0 0 1 117 0v242a102 102 0 0 1 19 0v-242a58 58 0 0 1 116 0v285h101a30 30 0 0 1 30 31v21a30 30 0 0 1-30 30h-101v23h89z m-89 83l68-65h-68v65z m135-62a30 30 0 0 0-42 0l-93 88v80s0 0 0 3l134-127a30 30 0 0 0 0-44z m-952 9v23h299a9 9 0 0 1 0 18h-299v450a12 12 0 0 0 12 12h891a12 12 0 0 0 12-12v-27h-146a9 9 0 0 1 0-18h146v-355l-125 119h0a143 143 0 0 1-204-5h0l-97-103-71 67a48 48 0 1 1-66-70l108-99a48 48 0 0 1 23-12h-470a12 12 0 0 0-13 12z m565 156v-89l-50-54a30 30 0 0 0-43 0l-108 99a30 30 0 1 0 41 44l78-72a9 9 0 0 1 12 0z m-62-169a48 48 0 0 1 25 15l37 40v-55h-62z m-505-104a12 12 0 0 0-12 11v22a12 12 0 0 0 12 11h567v-45h-567z m775-342v206a9 9 0 1 1-18 0v-208a41 41 0 0 0-36 40v252a9 9 0 0 1-9 9h0l-18 0-17 0a9 9 0 0 1-10-8v-252a41 41 0 0 0-37-40v108a9 9 0 0 1-18 0v-105a41 41 0 0 0-26 38v577c0 41 67 75 108 75s108-34 108-75v-577a41 41 0 0 0-28-39z m145 387a12 12 0 0 0 12-12v-19a12 12 0 0 0-12-12h-101v45h101z m-824 401h396a9 9 0 1 1 0 18h-396a9 9 0 1 1 0-18z m405-76a9 9 0 0 1-9 9h-396a9 9 0 0 1 0-18h396a9 9 0 0 1 9 9z m-236-76h-169a9 9 0 0 1 0-18h169a9 9 0 0 1 0 18z" horiz-adv-x="1010" />

<glyph glyph-name="13" unicode="&#xe80c;" d="M1002 661a14 14 0 0 1-17 12l-90-18a83 83 0 0 1-57-42h0a358 358 0 0 0-104-119 339 339 0 0 1-41-35l-131-131a42 42 0 0 0-57 63l95 94a102 102 0 0 1 18 121 101 101 0 0 1-88 52h-11a100 100 0 0 1-64-30l-62-61a79 79 0 0 1-23-56l0-43-62-62 6 169a25 25 0 0 0 7 17l202 208a63 63 0 0 0 45 18h243a14 14 0 0 1 0 28h-243a91 91 0 0 1-65-27h0l-202-208a53 53 0 0 1-14-35l-9-202-273-273a14 14 0 0 1 0-20l231-230a14 14 0 0 1 20 0l474 474a14 14 0 0 1 0 20l-57 56 36 36a314 314 0 0 0 38 33 387 387 0 0 1 113 128h0a57 57 0 0 0 39 28l90 18a14 14 0 0 1 13 17z m-516-251a70 70 0 0 1 92-104l0 0 40 40 17-17-381-383-156 156 382 382 41-41z m-12 198a72 72 0 0 0 47 20h10a72 72 0 0 0 63-37 74 74 0 0 0-13-87l-4-4-79 78a14 14 0 0 1-20 0l-27-27v33z m-76-97a51 51 0 0 0 15 35l10 11v-33l-25-26v13z m301-173l-452-452-211 211 452 452 69-69-15-15-52 51a14 14 0 0 1-20 0l-403-404a14 14 0 0 1 0-19l176-174a14 14 0 0 1 19 0l404 404a14 14 0 0 1 0 19l-27 27 16 16z m-287-76a71 71 0 1 1-91-91 117 117 0 0 1 78-38 51 51 0 0 1 37 14 57 57 0 0 1 11 56 131 131 0 0 1-35 59z m4-95a86 86 0 0 0-99 99 24 24 0 0 0 17 6 90 90 0 0 0 56-30 105 105 0 0 0 28-46 31 31 0 0 0-2-29z" horiz-adv-x="1002" />

<glyph glyph-name="14" unicode="&#xe80d;" d="M849 629a16 16 0 0 1-18 13l-106-20a98 98 0 0 1-68-50h0a421 421 0 0 0-123-139l-25-18 0 0-170-170a49 49 0 0 0-64-5l-5 5a49 49 0 0 0 0 69l112 112a118 118 0 0 1-81 200h-13a117 117 0 0 1-76-33l-93-94a16 16 0 0 1-5-11l0-168a37 37 0 0 0-11-25h-12a16 16 0 0 1-15-12h0a37 37 0 0 0-37 37l9 215a30 30 0 0 0 8 20l237 242a75 75 0 0 0 53 22h286a16 16 0 0 1 0 31h-286a107 107 0 0 1-76-31h0l-237-243a61 61 0 0 1-18-40s-8-215-8-217a69 69 0 0 1 68-69v-381a16 16 0 0 1 16-17h179a16 16 0 0 1 16 17v331a81 81 0 0 1 80 21l170 169 24 17a454 454 0 0 1 133 150h0a65 65 0 0 0 45 33l105 20a16 16 0 0 1 6 19z m-627-370a81 81 0 0 1 18-36h-139v36h121z m-121-273h147v-36h-147v36z m0 32v35h147v-36h-147z m0 68v36h147v-36h-147z m0 68v36h147v-36h-147z m129 410a86 86 0 0 0 55 25h11a86 86 0 0 0 58-22l-55-38a16 16 0 1 1 17-26l57 39a86 86 0 0 0-17-98l-16-16-103 0a35 35 0 0 0-35 35v75z m-91-250l0 162 30 29v-45a67 67 0 0 1 66-66h0l71 0-64-64a81 81 0 0 1-22-41h-88a69 69 0 0 1 6 27z m-38-433v36h147v-36h-147z m409 69h-178a16 16 0 0 1-16-16v-68a16 16 0 0 1 16-16h178a16 16 0 0 1 16 16v68a16 16 0 0 1-16 16z m-16-68h-147v37h147v-37z" horiz-adv-x="849" />

<glyph glyph-name="15" unicode="&#xe80e;" d="M884-150h-773a14 14 0 0 0-14 14v493h-82a14 14 0 0 0-10 25l484 464a14 14 0 0 0 20 0l482-463a15 15 0 0 0-9-26h-82v-493a14 14 0 0 0-16-14z m-759 29h745v493a14 14 0 0 0 14 14h61l-444 429-445-429h61a14 14 0 0 0 14-14v-495z m178 49h0l-21 0a15 15 0 0 0-9 4l-49 49a15 15 0 0 0-4 12l4 40a15 15 0 0 0 4 9l226 226a167 167 0 1 0 99-99l-28-26a14 14 0 0 0-10-5h-12v-12a15 15 0 0 0-4-10l-25-24a14 14 0 0 0-10-5h-6v-6a15 15 0 0 0-5-10l-26-26a14 14 0 0 0-10-5h-33v-32a15 15 0 0 0-4-11l-7-7a15 15 0 0 0-11-4h-7v-8a15 15 0 0 0-5-10l-37-38a14 14 0 0 0-10-2z m-14 30h9l29 29v16a14 14 0 0 0 14 14h15v40a14 14 0 0 0 14 15h41l18 17v15a14 14 0 0 0 14 14h15l15 16v20a14 14 0 0 0 14 14h20l30 29a14 14 0 0 0 16 0 138 138 0 1 1-74 75 14 14 0 0 0 0-17l-231-229 0-28z m361 351a50 50 0 1 0 35 14 50 50 0 0 0-35-14z m0 74a21 21 0 0 1-14-36 22 22 0 0 1 29 0 21 21 0 0 1-15 32z" horiz-adv-x="996" />

<glyph glyph-name="16" unicode="&#xe80f;" d="M22 459h99a22 22 0 0 1 19 12l86 166h290l47-44h-116a21 21 0 0 1-13-5l-47-37a22 22 0 0 1 0-34l55-52a22 22 0 0 1 14-6h217a473 473 0 0 1 177-37 317 317 0 0 1 163 40l244 141a22 22 0 0 1 11 15 22 22 0 0 1 0 18l-150 205a22 22 0 0 1-17 9 21 21 0 0 1-11 0l-87-54-117 20-397 37h-5l-353-51a22 22 0 0 1-16-12l-107-225a23 23 0 0 1 0-9v-75a22 22 0 0 1 6-16 22 22 0 0 1 8-6z m21 86l100 210 339 49 393-36 125-22h0a21 21 0 0 1 11 0l79 48 123-172-225-129a281 281 0 0 0-141-34 430 430 0 0 0-165 36l-8 0h-209l-29 28 21 17h164a22 22 0 0 1 19 14 22 22 0 0 1-5 24l-93 86a21 21 0 0 1-14 6h-314a22 22 0 0 1-19-11l-86-166h-66v43h0z m43-447a248 248 0 0 1 473-103h474a22 22 0 0 1 14 5l45 38a22 22 0 0 1 8 16v102a22 22 0 0 1-5 14l-20 23 0 0a22 22 0 0 1-16 6h-79a22 22 0 0 1-15-6l-8-7-8 7a22 22 0 0 1-15 6h-16a22 22 0 0 1-15-6l-35-34-34 34a22 22 0 0 1-16 6h-54a22 22 0 0 1-15-6l-7-6-7 6a22 22 0 0 1-16 6h-50a22 22 0 0 1-16-6l-12-12-12 12a22 22 0 0 1-15 6h-57a248 248 0 0 1-471-101z m248 205a205 205 0 0 0 191-131 22 22 0 0 1 20-14h57l21-21a22 22 0 0 1 30 0l21 21h33l15-15a22 22 0 0 1 30 0l16 15h37l43-43a22 22 0 0 1 30 0l42 42 16-16a22 22 0 0 1 30 0l18 17h60l9-10v-86l-32-27h-481a22 22 0 0 1-20-14 205 205 0 1 0-189 282z m-132-247a74 74 0 1 1-21 52 73 73 0 0 1 21-52z" horiz-adv-x="1269" />

<glyph glyph-name="18" unicode="&#xe810;" d="M135-150h1188a135 135 0 0 1 135 135v731a135 135 0 0 1-135 135h-1188a135 135 0 0 1-135-135v-731a135 135 0 0 1 135-135z m-48 866a48 48 0 0 0 48 49h1188a48 48 0 0 0 48-49v-731a48 48 0 0 0-48-49h-1188a48 48 0 0 0-48 49v731z m139-683h412a43 43 0 0 1 0 85h-412a43 43 0 1 1 0-85z m231 180a43 43 0 0 1 43-43h136a43 43 0 0 1 0 85h-136a43 43 0 0 1-43-42z m-231-43h133a43 43 0 0 1 0 85h-137a43 43 0 1 1 4-85z m1010 85h-137a43 43 0 1 1 0-85h137a43 43 0 0 1 0 85z m-416-85h137a43 43 0 0 1 0 85h-137a43 43 0 0 1 0-85z m0-137h137a43 43 0 0 1 0 85h-137a43 43 0 0 1 0-85z m-548 320h183a89 89 0 0 1 88 89v90a89 89 0 0 1-88 89h-183a89 89 0 0 1-89-89v-90a89 89 0 0 1 89-89z m186 179v-90l0 0h-48v97h48a0 0 90 0 0-1-7z m-189 0l0 0h49v-97h-46l0 0v91z m779-179h91a135 135 0 0 1 0 268h-91a135 135 0 1 1 0-268z m0 183h91a48 48 0 1 0 0-98h-91a48 48 0 1 0 0 98z" horiz-adv-x="1458" />

<glyph glyph-name="17" unicode="&#xe811;" d="M945 683h-205v74a92 92 0 0 1-92 92h-221a92 92 0 0 1-92-92v-74h-206a129 129 0 0 1-128-129v-295a92 92 0 0 1 37-74h0v-204a129 129 0 0 1 128-129h739a129 129 0 0 1 129 129v204h0a92 92 0 0 1 37 74v295a129 129 0 0 1-126 129z m-576 74a57 57 0 0 0 57 57h222a57 57 0 0 0 56-57v-74h-39v74a18 18 0 0 1-17 18h-222a18 18 0 0 1-18-18v-74h-39v74z m74-74v58h188v-58h-188z m559-704a94 94 0 0 0-94-94h-739a94 94 0 0 0-94 94v189a92 92 0 0 1 20 0h94v-20a55 55 0 0 1 54-55h37a55 55 0 0 1 55 55v20h411v-20a55 55 0 0 1 54-55h37a55 55 0 0 1 55 55v20h94a92 92 0 0 1 20 0v-189z m-706 221h-73v20a20 20 0 0 0 19 20h37a20 20 0 0 0 20-20v-20z m0-34v-20a20 20 0 0 0-20-20h-36a20 20 0 0 0-20 20v20h73z m557 34h-74v20a20 20 0 0 0 20 20h37a20 20 0 0 0 20-20v-20z m0-34v-20a20 20 0 0 0-20-20h-37a20 20 0 0 0-20 20v20h74z m185 91a57 57 0 0 0-56-57h-94v20a55 55 0 0 1-55 55h-37a55 55 0 0 1-55-55v-20h-411v20a55 55 0 0 1-54 55h-37a55 55 0 0 1-55-55v-20h-94a57 57 0 0 0-57 57v296a94 94 0 0 0 94 94h813a94 94 0 0 0 94-94v-296z" horiz-adv-x="1074" />

<glyph glyph-name="19" unicode="&#xe812;" d="M340 40a27 27 0 0 0-27-28h-62a27 27 0 1 0 0 54h62a27 27 0 0 0 27-26z m-78 264l-250 250a27 27 0 0 0 0 38l250 251a27 27 0 0 0 39 0l250-251a27 27 0 0 0 8-18v-251a27 27 0 0 0-27-27h-255a27 27 0 0 0-19 8z m-192 269l223-223h212v213l-223 223z m509-400h26a27 27 0 1 1 0 54h-30a27 27 0 1 1 0-55z m-163 234a27 27 0 1 1 0 54h0a27 27 0 1 1-4-54z m489-432a27 27 0 0 0-28-27h-156a127 127 0 0 0-249 4 78 78 0 0 0-49 41 68 68 0 0 0-7 30v180a27 27 0 0 0 54 0v-180a14 14 0 0 1 0-6l4-5a127 127 0 0 0 246-10h156a27 27 0 0 0 25-25z m-234 0a73 73 0 0 1-147 0s0 0 0 0a73 73 0 0 1 143 2z m601 106v-18c0-12 0-24 0-40a78 78 0 0 0-56-71 127 127 0 1 0 0 60 17 17 0 0 1 5 11c0 17 0 29 0 41v18c0 23 0 51 0 64s0 18 0 25h-415c-9 0-32 0-101 69a454 454 0 0 0-71 84 27 27 0 0 0 49 21 497 497 0 0 1 57-65 268 268 0 0 1 67-54h383l-35 30-24 22-19 18-29 26-25 21c-100 84-127 107-212 107h-186a27 27 0 0 0 0 53h179c104 0 145-35 246-119l25-21c11-9 21-19 31-28l18-17 25-22c64-57 78-73 83-149 1-12 1-40 1-64z m-108-106a73 73 0 1 1-73-74 73 73 0 0 1 73 74h0z m-73 26h0a27 27 0 1 1 27-27 27 27 0 0 1-27 27z m-773 157h-138a27 27 0 0 1 0-54h138a27 27 0 0 1-4 59z m280-157h0a27 27 0 1 1 27-27 27 27 0 0 1-27 27z" horiz-adv-x="1268" />

<glyph glyph-name="20" unicode="&#xe813;" d="M735-150h-718a16 16 0 0 0-16 16v968a16 16 0 0 0 16 16h718a16 16 0 0 0 16-16v-969a16 16 0 0 0-16-15z m-703 32h687v936h-687v-937z m881 49h-71a16 16 0 0 0-16 15v682a16 16 0 0 0 0 5l36 149a16 16 0 0 0 31 0l34-149a16 16 0 0 0 0-6v-681a16 16 0 0 0-14-16z m-55 31h39v652h-39v-652z m4 684h31l-16 65z m-237-593h-501a16 16 0 0 0 0 32h501a16 16 0 0 0 0-33z m0 115h-501a16 16 0 1 0 0 31h501a16 16 0 1 0 0-32z m0 296h-501a16 16 0 0 0 0 32h501a16 16 0 0 0 0-33z m0 115h-501a16 16 0 0 0 0 32h501a16 16 0 0 0 0-32z m0 115h-501a16 16 0 1 0 0 31h501a16 16 0 1 0 0-31z" horiz-adv-x="928" />

<glyph glyph-name="21" unicode="&#xe814;" d="M723 587a95 95 0 1 1-95 94 95 95 0 0 1 95-94z m0 171a77 77 0 1 0-77-77 77 77 0 0 0 77 77z m72-537a9 9 0 0 1-9-10v-66a9 9 0 1 1 18 0v67a9 9 0 0 1-9 9z m142 77h0a48 48 0 0 1 57 76l-30 29v416a30 30 0 0 1-29 30h-891a30 30 0 0 1-30-30v-491a30 30 0 0 1 30-30h553v-23h-569a30 30 0 0 1-30-30v-22a30 30 0 0 1 30-29h569v-285a58 58 0 0 1 116 0v242h20v-242a58 58 0 0 1 116 0v285h101a30 30 0 0 1 29 29v22a30 30 0 0 1-29 30h-101v23h89z m-88 83l71-66h-71v66z m135-62a30 30 0 0 0-42 0l-93 87v76s0 0 0 0l134-126a30 30 0 0 0 1-37z m-951 8v24h298a9 9 0 0 1 0 18h-298v450a12 12 0 0 0 12 12h890a12 12 0 0 0 12-12v-27h-143a9 9 0 1 1 0-18h143v-356l-125 118h0a142 142 0 0 1-204-4h0l-97-103-71 66a48 48 0 1 1-65-71l107-99a48 48 0 0 1 22-12h-470a12 12 0 0 0-12 15z m564 157v-88l-50-54a30 30 0 0 0-42 0l-107 98a30 30 0 1 0 42 44l77-71a9 9 0 0 1 13 0z m-62-169a48 48 0 0 1 25 14l37 40v-54h-62z m-504-104a12 12 0 0 0-12 12v21a12 12 0 0 0 12 12h569v-45h-569z m774-342v206a9 9 0 1 1-18 0v-208a41 41 0 0 0-36 40v252a9 9 0 0 1-9 9h0l-17 0-17 0a9 9 0 0 1-11-9v-251a41 41 0 0 0-37-40v107a9 9 0 1 1-18 0v-104a41 41 0 0 0-25 37v574a115 115 0 0 0 213 0v-577a41 41 0 0 0-26-35z m142 387a12 12 0 0 0 13-12v-21a12 12 0 0 0-13-12h-98v45h101z m-821 401h396a9 9 0 0 1 0 18h-396a9 9 0 1 1 0-18z m405-76a9 9 0 0 1-9 9h-396a9 9 0 1 1 0-17h396a9 9 0 0 1 9 8z m-236-77h-169a9 9 0 0 1 0-17h169a9 9 0 0 1 0 17z" horiz-adv-x="1010" />

<glyph glyph-name="22" unicode="&#xe815;" d="M0 850h196l302-810 302 810h196l-392-1000h-220z m1114 0h174v-1000h-174v1000z m382 0h439a314 314 0 1 0 0-627h-264v-373h-175v1000z m416-155h-239v-310h239a159 159 0 1 1 6 310z" horiz-adv-x="2267" />

<glyph glyph-name="24" unicode="&#xe816;" d="M1002 661a14 14 0 0 1-16 11l-90-18a84 84 0 0 1-58-42h0a358 358 0 0 0-105-119 341 341 0 0 1-41-35l-130-129a42 42 0 0 0-54 64l94 95a102 102 0 0 1 19 120 100 100 0 0 1-89 52h-11a100 100 0 0 1-64-29l-61-61a79 79 0 0 1-24-54l0-42-64-65 7 172a25 25 0 0 0 7 16l201 208a65 65 0 0 0 46 19h243a14 14 0 1 1 0 28h-243a91 91 0 0 1-65-27h0l-202-208a53 53 0 0 1-15-35l-8-202-274-273a14 14 0 0 1 0-20l231-231a14 14 0 0 1 19 0l474 475a14 14 0 0 1 0 19l-53 54 36 36a314 314 0 0 0 38 32 389 389 0 0 1 113 130h0a56 56 0 0 0 38 28l90 17a14 14 0 0 1 11 14z m-518-252a69 69 0 0 1 92-104l0 0 40 41 17-17-384-384-156 156 384 384 41-42z m-12 198a73 73 0 0 0 47 21h10a73 73 0 0 0 64-38 74 74 0 0 0-13-87l-4-4-79 78a14 14 0 0 1-19 0l-27-27v33z m-76-96a52 52 0 0 0 15 35l15 13v-32l-25-25v13z m301-173l-453-454-212 212 454 453 68-69-15-15-51 51a14 14 0 0 1-20 0l-403-404a14 14 0 0 1 0-19l175-176a14 14 0 0 1 20 0l403 404a14 14 0 0 1 0 19l-26 27 15 15z m-285-76a71 71 0 1 1-91-91 117 117 0 0 1 78-38 51 51 0 0 1 37 14 57 57 0 0 1 12 57 130 130 0 0 1-36 58z m4-95a86 86 0 0 0-100 100 24 24 0 0 0 18 5 90 90 0 0 0 58-29 105 105 0 0 0 28-46 31 31 0 0 0-4-30z" horiz-adv-x="1002" />

<glyph glyph-name="25" unicode="&#xe817;" d="M985 365h-17a469 469 0 0 1-454 454v16a15 15 0 0 1-29 0v-16a469 469 0 0 1-454-454h-16a15 15 0 0 1 0-30h16a469 469 0 0 1 454-454v-16a15 15 0 1 1 30 0v16a469 469 0 0 1 454 454h16a15 15 0 0 1 0 30h0z m-133 247l-126-125a267 267 0 0 1-90 90l126 125a446 446 0 0 0 90-90h0z m-140-367l0-3a237 237 0 0 0-102-102l-3 0a236 236 0 0 0-209 0l-4 0a237 237 0 0 0-102 102l0 3a236 236 0 0 0 0 210l0 3a237 237 0 0 0 102 102l4 0a236 236 0 0 0 209 0l3 0a237 237 0 0 0 102-102l0-3a236 236 0 0 0 0-210h0z m-209-334a437 437 0 0 0-238 69l128 129a265 265 0 0 1 220 0l128-129a437 437 0 0 0-241-69z m0 878a437 437 0 0 0 238-69l-129-129a265 265 0 0 1-219 0l-129 129a437 437 0 0 0 238 69h0z m-310-128a446 446 0 0 0 48 42l125-126a267 267 0 0 1-90-90l-125 126a446 446 0 0 0 38 47z m-59-70l128-128a265 265 0 0 1 0-220l-128-128a440 440 0 0 0-4 473z m17-500l125 126a267 267 0 0 1 90-90l-125-126a446 446 0 0 0-90 90h0z m663-48a446 446 0 0 0-48-42l-126 126a267 267 0 0 1 90 90l126-126a446 446 0 0 0-46-51z m58 70l-128 128a265 265 0 0 1 0 220l128 128a440 440 0 0 0 0-475h0z" horiz-adv-x="1000" />

<glyph glyph-name="26" unicode="&#xe818;" d="M641 850a359 359 0 0 1-266-601l-49-49a76 76 0 0 1-94-11l-210-209a76 76 0 1 1 108-108l209 210a76 76 0 0 1 10 97l49 49a359 359 0 1 1 243 622z m-324-747l-209-209a45 45 0 1 0-64 64l209 209a45 45 0 1 0 64-64z m324 59a332 332 0 1 0 332 332 332 332 0 0 0-332-331z m279 427a298 298 0 0 1-182 182 16 16 0 1 1-10-30 268 268 0 0 0 166-166 16 16 0 0 1 15-10h5a16 16 0 0 1 6 24z m-132-190h0l-58 15a21 21 0 0 0-10 5v32h0a135 135 0 0 1 30 83v23a218 218 0 0 1 0 138h-14a154 154 0 0 0-53 7 124 124 0 0 1-107-7 63 63 0 0 1-56-68 441 441 0 0 1 15-83v-13a141 141 0 0 1 31-88v-34a21 21 0 0 0-10-5l-58-15h0a83 83 0 0 1-56-78v-16a35 35 0 0 1 35-33h332a35 35 0 0 1 36 33v16a83 83 0 0 1-57 88z m-147-31l-54 32a30 30 0 0 1 6 19v7a93 93 0 0 1 48-13 96 96 0 0 1 47 12v-6a31 31 0 0 1 7-20z m-78 179a193 193 0 0 0 11 52 460 460 0 0 0 145-26v-8h0v-26a104 104 0 0 0-27-71h0a71 71 0 0 0-51-24 92 92 0 0 0-78 97v7z m15 131h10a94 94 0 0 0 83 0 230 230 0 0 1 51-8 193 193 0 0 0 0-74 491 491 0 0 1-166 27h-14a142 142 0 0 0 0 20 32 32 0 0 0 36 35z m-105-375a5 5 0 0 0-5 0v17a49 49 0 0 0 33 47l53 14 70-42v-38h-152z m339 0a5 5 0 0 0-4 0h-155v38l71 42 52-13a49 49 0 0 0 33-48v-16h0z" horiz-adv-x="1000" />

<glyph glyph-name="27" unicode="&#xe819;" d="M985 365h-17a468 468 0 0 1-454 454v17a14 14 0 1 1-30 0v-17a468 468 0 0 1-453-454h-17a14 14 0 1 1 0-30h17a468 468 0 0 1 453-454v-17a14 14 0 1 1 30 0v17a468 468 0 0 1 454 454h17a14 14 0 1 1 0 30h0z m-133 248l-125-125a267 267 0 0 1-90 89l125 125a446 446 0 0 0 90-89h0z m-141-367l0 0a241 241 0 0 0-102-102l0 0a236 236 0 0 0-209 0l0 0a241 241 0 0 0-102 102l0 0a236 236 0 0 0 0 209l0 0a241 241 0 0 0 102 102l0 0a236 236 0 0 0 209 0l0 0a241 241 0 0 0 102-102l0 0a236 236 0 0 0 0-209h0z m-212-335a436 436 0 0 0-241 70l129 128a265 265 0 0 1 219 0l129-128a436 436 0 0 0-235-68z m0 882a436 436 0 0 0 240-70l-128-128a265 265 0 0 1-220 0l-128 128a436 436 0 0 0 241 70h0z m-310-128a446 446 0 0 0 48 42l125-126a267 267 0 0 1-90-89l-125 125a445 445 0 0 0 42 44z m-59-73l128-128a265 265 0 0 1 0-220l-128-129a440 440 0 0 0 4 473z m17-501l125 126a267 267 0 0 1 90-90l-125-125a446 446 0 0 0-90 89h0z m663-48a446 446 0 0 0-48-41l-125 125a267 267 0 0 1 90 90l125-126a446 446 0 0 0-41-52z m59 73l-129 129a265 265 0 0 1 0 219l129 129a440 440 0 0 0 0-477h0z" horiz-adv-x="1000" />

<glyph glyph-name="28" unicode="&#xe81a;" d="M504 449a201 201 0 1 1-201 201 201 201 0 0 1 201-201z m0 340a141 141 0 1 0-141-141 141 141 0 0 0 141 143z m-388-235a120 120 0 1 1-119 120 120 120 0 0 1 119-120z m0 181a61 61 0 1 0-61-61 61 61 0 0 0 61 66z m209-510h-96v175a109 109 0 1 1-217 0v-242a105 105 0 0 1 104-105h124v-170a30 30 0 0 1 30-30h115a30 30 0 0 1 30 30v255a85 85 0 0 1-85 85h0z m29-314h-55v170a30 30 0 0 1-30 30h-153a45 45 0 0 0-45 45v244a49 49 0 1 0 100 0v-204a30 30 0 0 1 30-30h124a30 30 0 0 0 30-30v-224z m534 643a120 120 0 1 1-120 120 120 120 0 0 1 120-120z m0 181a61 61 0 1 0-61-61 61 61 0 0 0 61 61h0z m0-226a109 109 0 0 1-109-109v-175h-95a85 85 0 0 1-85-85v-255a30 30 0 0 1 30-30h114a30 30 0 0 1 30 30v170h124a105 105 0 0 1 105 104v241a109 109 0 0 1-109 109h0z m49-351a45 45 0 0 0-45-45h-154a30 30 0 0 1-29-30v-170h-56v223a30 30 0 0 0 30 30h125a30 30 0 0 1 30 30v204a49 49 0 1 0 99 0v-242h0z m-262 177a30 30 0 1 1 0 59h-339a30 30 0 1 1 0-59h142v-456a30 30 0 1 1 58 0v456h142z m-156 269a59 59 0 0 0-54 13l-21-26a110 110 0 0 1 41-21v-19h34v19l14 0a50 50 0 0 1 31 40 44 44 0 0 1-24 48 150 150 0 0 1-49 13 14 14 0 0 0-13 7 17 17 0 0 0 9 15 26 26 0 0 0 27 0 65 65 0 0 0 17-9l11 12 11 13a97 97 0 0 1-26 15l-8 0v16h-34v-16a59 59 0 0 1-18-9 48 48 0 0 1-22-50 47 47 0 0 1 41-33c44-6 45-12 44-22a15 15 0 0 0-11-6z" horiz-adv-x="1008" />

<glyph glyph-name="29" unicode="&#xe81b;" d="M437 850v-348h-437v-507h171v-144l164 144h416v238h196l196-172v172h212v617h-921z m259-800h-382l-87-77v77h-171v393h381v-213h259v-183h0z m607 238h-212v-105l-118 105h-480v506h811v-506h0z m-376 161a98 98 0 0 0-88 22l-34-43a178 178 0 0 1 67-34v-30h55v28l22 6a81 81 0 0 1 52 65 72 72 0 0 1-39 77 243 243 0 0 1-80 21 23 23 0 0 0-20 12 28 28 0 0 0 14 24 42 42 0 0 0 44 0 104 104 0 0 0 27-16l18 22 17 21a157 157 0 0 1-43 25l-13 0v25h-55v-25a98 98 0 0 1-28-15 78 78 0 0 1-35-81 76 76 0 0 1 65-53c71-10 74-20 72-37a26 26 0 0 0-18-14z" horiz-adv-x="1358" />

<glyph glyph-name="30" unicode="&#xe81c;" d="M315 850h-287a23 23 0 0 1-23-23v-958a23 23 0 0 1 23-23h287a23 23 0 0 1 23 23v958a23 23 0 0 1-23 23z m-23-958h-245v907h245v-907z m-122 101a87 87 0 1 1-88 87 87 87 0 0 1 88-87z m0 127a40 40 0 1 0-41-40 40 40 0 0 0 41 40z m-62 540h128a23 23 0 1 1 0 46h-128a23 23 0 0 1 0-46z m0-127h128a23 23 0 1 1 0 46h-128a23 23 0 1 1 0-46z m583 317h-288a23 23 0 0 1-23-23v-958a23 23 0 0 1 23-23h288a23 23 0 0 1 23 23v958a23 23 0 0 1-23 23z m-23-958h-246v907h246v-907h0z m-123 101a87 87 0 1 1-87 87 87 87 0 0 1 87-87z m0 127a40 40 0 1 0-40-40 40 40 0 0 0 40 40h0z m-63 540h127a23 23 0 1 1 0 46h-127a23 23 0 0 1 0-46h0z m0-127h127a23 23 0 1 1 0 46h-127a23 23 0 0 1-23-23 23 23 0 0 1 23-23h0z m584 317h-287a23 23 0 0 1-23-23v-958a23 23 0 0 1 23-23h287a23 23 0 0 1 23 23v958a23 23 0 0 1-23 23z m-23-958h-245v907h245v-907z m-121 101a87 87 0 1 1-88 87 87 87 0 0 1 88-87z m0 127a40 40 0 1 0-41-40 40 40 0 0 0 41 40z m-65 540h128a23 23 0 0 1 0 46h-128a23 23 0 0 1 0-46z m0-127h128a23 23 0 1 1 0 46h-128a23 23 0 0 1-23-23 23 23 0 0 1 23-23z" horiz-adv-x="1089" />

<glyph glyph-name="31" unicode="&#xe81d;" d="M1095 849h-1003a92 92 0 0 1-92-92v-668a92 92 0 0 1 92-92h349l-28-114h-42a17 17 0 1 1 0-35h445a17 17 0 1 1 0 35h-42l-29 114h350a92 92 0 0 1 92 92v668a92 92 0 0 1-92 92z m-1003-35h1003a57 57 0 0 0 57-57v-580h-1116v580a57 57 0 0 0 56 58z m646-930h-289l28 114h235z m357 148h-1003a57 57 0 0 0-57 58v57h1116v-57a57 57 0 0 0-56-57z m-743 263h482a55 55 0 0 1 55 55v297a55 55 0 0 1-55 55h-482a55 55 0 0 1-55-55v-295a55 55 0 0 1 55-57z m-20 352a20 20 0 0 0 20 20h482a20 20 0 0 0 20-20v-295a20 20 0 0 0-20-20h-482a20 20 0 0 0-20 20v297z m57-278h166a17 17 0 0 1 0 35h-166a17 17 0 1 1 0-35z m94 74a17 17 0 0 1 17-17h56a17 17 0 0 1 0 34h-56a17 17 0 0 1-17-17z m-94-17h55a17 17 0 0 1 0 34h-55a17 17 0 1 1 0-34z m406 34h-55a17 17 0 1 1 0-34h55a17 17 0 1 1 0 34z m-166-34h56a17 17 0 0 1 0 34h-56a17 17 0 0 1 0-34z m0-57h56a17 17 0 0 1 0 35h-56a17 17 0 0 1 0-35z m-222 130h75a36 36 0 0 1 35 36v37a36 36 0 0 1-35 36h-75a36 36 0 0 1-35-36v-37a36 36 0 0 1 35-36z m76 73v-37h-19v40h20z m-77 0h21v-40h-21v38z m317-73h37a55 55 0 1 1 0 110h-37a55 55 0 0 1 0-110z m0 75h37a20 20 0 0 0 0-40h-37a20 20 0 1 0 0 40z m-130-517a34 34 0 1 0 34 34 34 34 0 0 0-34-34z" horiz-adv-x="1186" />

<glyph glyph-name="32" unicode="&#xe81e;" d="M598 97h-130a16 16 0 0 1-16-16v-131a16 16 0 0 1 16-16h130a16 16 0 0 1 17 16v131a16 16 0 0 1-17 16z m-16-130h-99v99h99v-99z m-178 130h-130a16 16 0 0 1-16-16v-131a16 16 0 0 1 16-16h130a16 16 0 0 1 17 16v131a16 16 0 0 1-17 16z m-16-130h-99v99h99v-99z m16 324h-130a16 16 0 0 1-16-16v-131a16 16 0 0 1 16-16h130a16 16 0 0 1 17 16v131a16 16 0 0 1-17 16z m-16-130h-99v98h99v-98z m-178-64h-130a16 16 0 0 1-16-16v-131a16 16 0 0 1 16-16h130a16 16 0 0 1 17 16v131a16 16 0 0 1-17 16z m-16-130h-99v99h99v-99z m599 452h-130a16 16 0 0 1-17-16v-64a16 16 0 0 1 17-16h130a16 16 0 0 1 16 16v64a16 16 0 0 1-16 16z m-16-63h-99v32h99v-32z m-179-65h-130a16 16 0 0 1-16-16v-131a16 16 0 0 1 16-16h130a16 16 0 0 1 17 16v131a16 16 0 0 1-17 16z m-16-130h-99v98h99v-98z m-372 130h-130a16 16 0 0 1-16-16v-131a16 16 0 0 1 16-16h130a16 16 0 0 1 17 16v131a16 16 0 0 1-17 16z m-16-130h-99v98h99v-98z m404 258h-130a16 16 0 0 1-16-16v-64a16 16 0 0 1 16-16h130a16 16 0 0 1 17 16v64a16 16 0 0 1-17 16z m-16-63h-99v32h99v-32z m211 494h-713a80 80 0 0 1-80-80v-840a80 80 0 0 1 80-80h713a80 80 0 0 1 80 80v840a80 80 0 0 1-80 80z m48-920a48 48 0 0 0-48-48h-713a48 48 0 0 0-48 48v840a48 48 0 0 0 48 48h713a48 48 0 0 0 48-48v-840z m-48 361h-130a16 16 0 0 1-17-16v-325a16 16 0 0 1 17-16h130a16 16 0 0 1 16 16v197a16 16 0 0 1-31 0v-181h-99v293h99v-48a16 16 0 0 1 31 0v63a16 16 0 0 1-16 17z m0 474h-713a16 16 0 0 1-16-16v-258a16 16 0 0 1 16-16h130a16 16 0 0 1 0 32h-114v225h681v-230h-503a16 16 0 0 1 0-31h515a16 16 0 0 1 16 16v257a16 16 0 0 1-12 21z m-128-96h66a16 16 0 1 1 0 32h-63a16 16 0 1 1-3-32z m0-128h66a16 16 0 0 1 0 32h-63a16 16 0 0 1-3-32z m-19 59a16 16 0 0 1 31 0v46a16 16 0 0 1-31 0v-43z" horiz-adv-x="873" />

<glyph glyph-name="33" unicode="&#xe81f;" d="M874 473v54h85l7 26-474 298h-14l-475-298 8-26h85v-54l13-13h50c-27-99-65-322-8-424h-41l-13-13v-68h-55l-13-14v-84l13-14h894l13 14v84l-13 14h-54v68l-14 13h-41c51 101 17 324-6 424h47z m-820 85l424 268 423-268h-854z m126-95h61a1247 1247 0 0 0 32-211 362 362 0 0 0-29-209h-70c-63 71-24 314 6 417z m84 0h164c-27-98-66-322-9-423h-140c47 101 13 323-11 420z m246 0a1247 1247 0 0 0 32-211 362 362 0 0 0-29-209h-68c-65 75-26 318 0 423h67z m400-528v-55h-866v55h866z m-67 27h-731v54h731v-54z m-298 84c50 101 16 324-7 424h154c-27-98-65-322-9-424h-138z m268 210a362 362 0 0 0-29-210h-68c-65 75-26 318 0 424h61a1247 1247 0 0 0 40-221z m30 238h-731v40h731v-40z" horiz-adv-x="962" />

<glyph glyph-name="34" unicode="&#xe820;" d="M536 6l-15 5a24 24 0 0 1-17 0l-32-15-31 15a24 24 0 0 1-17 0l-16-5a67 67 0 0 1-45-63v-70a24 24 0 0 1 24-24h171a24 24 0 0 1 23 24v70a67 67 0 0 1-45 63h0z m-140 95a75 75 0 1 1 75 75 75 75 0 0 1-75-75h0z m-11 421h171a24 24 0 0 1 24 24v70a67 67 0 0 1-45 63l-16 5a24 24 0 0 1-17 0l-31-16-32 16a24 24 0 0 1-17 0l-15-5a67 67 0 0 1-45-63v-70a24 24 0 0 1 23-24z m86 179a75 75 0 1 1-75 75 75 75 0 0 1 75-75z m-297-695l-15 5a24 24 0 0 1-17 0l-32-15-33 10a24 24 0 0 1-17 0l-16-5a67 67 0 0 1-45-63v-70a24 24 0 0 1 24-24h171a24 24 0 0 1 23 24v70a67 67 0 0 1-45 63h0z m-65 20a75 75 0 1 1-75 75 75 75 0 0 1 75-75z m789-20l-16 5a24 24 0 0 1-17 0l-31-15-32 15a24 24 0 0 1-17 0l-15-5a67 67 0 0 1-45-63v-70a24 24 0 0 1 24-24h170a24 24 0 0 1 24 24v70a67 67 0 0 1-45 63h0z m-139 95a75 75 0 1 1 75 75 75 75 0 0 1-75-75h0z m-650 136a29 29 0 0 1 29 29v58h305v-62a29 29 0 1 1 57 0v58h305v-58a29 29 0 1 1 58 0v85a29 29 0 0 1-29 29h-331v80a29 29 0 0 1-58 0v-80h-333a29 29 0 0 1-29-29v-85a29 29 0 0 1 29-29h0z" horiz-adv-x="944" />

<glyph glyph-name="35" unicode="&#xe821;" d="M991 850h-724a16 16 0 0 1-16-16v-64h-118a16 16 0 0 1-16-17l6-46h-109a16 16 0 0 1-15-20l241-826a16 16 0 0 1 15-11h734a16 16 0 0 1 16 16v968a16 16 0 0 1-14 16z m-740-111v-733l-99 733h99z m-123-63l79-584-170 584h92z m847-795h-695v937h693v-937h0z m-416 812h-254v71h254v-71h0z m392 0h-254v71h254v-71h0z m-375 35a53 53 0 1 0 53-53 53 53 0 0 0-54 54z m339-386h-215v240h215v-240h0z m-317 205h-263v26h263v-26z m-263-75h263v-26h-263v26z m0-103h263v-26h-263v26z m0-104h580v-26h-580v26z m0-104h580v-26h-580v26z m0-103h580v-26h-580v26z" horiz-adv-x="1006" />

<glyph glyph-name="36" unicode="&#xe822;" d="M534 315l0 34a258 258 0 1 1-172 259h-81a137 137 0 0 1-137-146l10-145a214 214 0 0 1 69-159v-26l-28-43-134-36a85 85 0 0 1-63-83v-68a51 51 0 0 1 52-51h587a51 51 0 0 1 51 51v68a85 85 0 0 1-63 83l-133 36-28 43v26a214 214 0 0 1 69 159h0z m-146-299h0l-22 22 73 64 18-28-52-78h0l-11 17h0z m-92 0l-20-20h0l-51 78 18 28 73-64-22-22h0z m46 45l-86 73a175 175 0 0 1 173 0z m0-124h4l11-54h-30l11 54h4z m18 51a18 18 0 1 0-36 0v10l18 18 18-18v-10z m258 830a226 226 0 1 0-83-437l5 80s0 6 0 10a152 152 0 0 1 27-11v-8a16 16 0 1 1 32 0v0h37v0a16 16 0 1 1 32 0v8a73 73 0 0 1 0 139v87a48 48 0 0 0 36-36 16 16 0 0 1 32 0 82 82 0 0 1-69 73v8a16 16 0 0 1-32 0v0h-37v0a16 16 0 0 1-32 0v-8a73 73 0 0 1 0-139v-87a81 81 0 0 0-36 24 138 138 0 0 1-128 89h-8a226 226 0 0 0 225 209h0z m-18-122h36v-88h-36v87z m-32-78a36 36 0 1 0 0 72v-72z m51-41h18v-87h-36v88h18z m51-9a36 36 0 1 0 0-73v73h0z m-465-24a104 104 0 0 0 73 33h122a105 105 0 0 0 104-112l0-49a304 304 0 0 1-29 48 16 16 0 0 1-19 6 825 825 0 0 0-235-34 16 16 0 0 1-10 0 153 153 0 0 1-31-36l-4 68a104 104 0 0 0 28 78h0z m-19-228a146 146 0 0 0 41 88 863 863 0 0 1 230 31 234 234 0 0 0 42-118 157 157 0 1 0-314 0h0z m-155-414v67a53 53 0 0 0 38 52l128 35 51-73a34 34 0 0 1 25-15h0a34 34 0 0 1 19 6 51 51 0 0 1 13-20l-14-68h-146v54a16 16 0 0 1-32 0v-54h-73a18 18 0 0 0-18 19h0z m624 67v-67a18 18 0 0 0-19-19h-73v54a16 16 0 0 1-32 0v-54h-145l-14 68a51 51 0 0 1 13 20 34 34 0 0 1 19-6h0a34 34 0 0 1 25 15l51 73 127-35a53 53 0 0 0 39-51h0z" horiz-adv-x="879" />

<glyph glyph-name="37" unicode="&#xe823;" d="M410 442a314 314 0 0 1 71-197 216 216 0 0 1 349 0 314 314 0 0 1 70 197v63a846 846 0 0 1 22 185 413 413 0 0 1-12 112 20 20 0 0 1-21 14h-5a429 429 0 0 0-134 14 309 309 0 0 1-239-14h0a124 124 0 0 1-93-44 155 155 0 0 1-34-100 1177 1177 0 0 1 31-200v-34h0z m387-171a175 175 0 0 0-285 0 272 272 0 0 0-62 171v24a370 370 0 0 0 47 144 641 641 0 0 0 334-43l28-65v-61a278 278 0 0 0-63-175z m-288 508h0a20 20 0 0 1 16 0 267 267 0 0 0 212 10 619 619 0 0 1 118-17h17a673 673 0 0 0 0-200l-5 13a20 20 0 0 1-9 11 653 653 0 0 1-370 49 20 20 0 0 1-17-10 576 576 0 0 1-34-74 688 688 0 0 0-13 110 93 93 0 0 0 84 108z m496-668h0l-122 25-32 49h0a36 36 0 0 1-52 6h0l-144-124-144 124h0a36 36 0 0 1-52-6h0l-32-49-122-25h0a155 155 0 0 1-87-63 175 175 0 0 1-30-98v-38a64 64 0 0 1 66-61h805a64 64 0 0 1 67 61v38a175 175 0 0 1-31 98 155 155 0 0 1-90 63z m-185 46l25-39-102-139-60 60z m-180-226h27l8-40h-43z m34 52a10 10 0 0 0-6-11h-27a10 10 0 0 0-6 11v6l20 20 20-20v-8h0z m-185 174l137-117-60-61-102 140z m-261-246v38a127 127 0 0 0 87 121l115 24 116-159a20 20 0 0 1 15-8h0a20 20 0 0 1 14 5l24 24 0-5-12-61h-339a24 24 0 0 0-23 22z m856 0a24 24 0 0 0-26-20h-339l-12 61 0 5 24-24a20 20 0 0 1 15-5h0a20 20 0 0 1 14 8l116 159 116-24a127 127 0 0 0 87-121v-38h0z m-920 493a198 198 0 0 1 47-131 155 155 0 0 1 117-55 151 151 0 0 1 92 33 20 20 0 0 1-25 32 110 110 0 0 0-67-24 136 136 0 0 0-124 145v12a337 337 0 0 0 20 93 478 478 0 0 0 116-7h6a20 20 0 0 1 0 41h0a486 486 0 0 1-139 5h-15v0h0l0-11a296 296 0 0 0 0 36 53 53 0 0 0 42 63h6a20 20 0 0 1 12 0 107 107 0 0 0 79 16 20 20 0 1 1 0 41 155 155 0 0 1-102-20 93 93 0 0 1-83-104 833 833 0 0 1 21-136v-21z m-21-370h-93a10 10 0 0 0-11 8v25a80 80 0 0 0 54 77l74 16 38-56a20 20 0 0 1 34 24l-38 55 11 18 79-60a20 20 0 1 1 24 33l-86 66a31 31 0 0 1-44-6h0l-20-31-81-16h0a121 121 0 0 1-84-116v-26a50 50 0 0 1 52-48h92a20 20 0 0 1-1 37z m815 633a711 711 0 0 0 93-11c24 0 47-8 67-9 0-49 0-93-7-127h0a337 337 0 0 1-152 43 20 20 0 0 1 0-40 303 303 0 0 0 129-36 197 197 0 0 0 16-73v-12a136 136 0 0 0-124-145 110 110 0 0 0-68 24 20 20 0 0 1-25-32 151 151 0 0 1 93-33 155 155 0 0 1 116 55 198 198 0 0 1 47 131v23a1393 1393 0 0 1 21 235 20 20 0 0 1-20 26h0a451 451 0 0 0-80 10 751 751 0 0 1-101 12 20 20 0 1 1-5-41z m264-483h0l-80 17-21 30h0a31 31 0 0 1-43 6l-87-66a20 20 0 0 1 24-32l79 59 12-18-38-55a20 20 0 1 1 33-23l38 55 74-16a80 80 0 0 0 54-76v-26a10 10 0 0 0-11-8h-92a20 20 0 1 1 0-40h92a50 50 0 0 1 52 48v26a121 121 0 0 1-86 119z" horiz-adv-x="1306" />

<glyph glyph-name="38" unicode="&#xe824;" d="M313 776h324a26 26 0 0 1 26 25h0a26 26 0 0 1-26 26h-324a26 26 0 0 1-26-26h0a26 26 0 0 1 26-25z m-26-73a26 26 0 0 1 26-25h436a26 26 0 0 1 25 25h0a26 26 0 0 1-25 26h-436a26 26 0 0 1-26-26h0z m0-98a26 26 0 0 1 26-26h436a26 26 0 0 1 25 26h0a26 26 0 0 1-25 25h-436a26 26 0 0 1-26-25h0z m0-148a26 26 0 0 1 26-26h324a26 26 0 0 1 26 26h0a26 26 0 0 1-26 25h-324a26 26 0 0 1-25-25h0z m0-99a26 26 0 0 1 26-25h234a26 26 0 0 1 25 25h0a26 26 0 0 1-25 26h-234a26 26 0 0 1-26-26h0z m0-97a26 26 0 0 1 26-26h436a26 26 0 0 1 25 26h0a26 26 0 0 1-25 25h-436a26 26 0 0 1-26-25h0z m0-169a25 25 0 0 1 25-25h424a25 25 0 0 1 24 25h0a25 25 0 0 1-24 25h-424a25 25 0 0 1-25-25h0z m0-95a25 25 0 0 1 25-25h367a25 25 0 0 1 25 25h0a25 25 0 0 1-25 25h-367a25 25 0 0 1-25-25h0z m0-96a25 25 0 0 1 25-25h169a25 25 0 0 1 25 25h0a25 25 0 0 1-25 25h-167a25 25 0 0 1-25-25h0z m-288 787v-131h207v131a21 21 0 0 1-21 20h-24a13 13 0 0 1-10-5l-35-45-9 16 14 27a6 6 0 0 1-5 7h-27a6 6 0 0 1-6-7l14-27-8-16-34 45a13 13 0 0 1-10 5h-25a21 21 0 0 1-21-20z m105 35a64 64 0 1 1-64 64 64 64 0 0 1 64-64z m-105-511h207v132a21 21 0 0 1-21 20h-24a13 13 0 0 1-10-5l-35-45-9 16 14 26a6 6 0 0 1-5 8h-27a6 6 0 0 1-6-8l14-26-8-16-34 45a13 13 0 0 1-10 5h-25a21 21 0 0 1-21-20v-132h0z m42 230a64 64 0 1 1 64 64 64 64 0 0 1-64-64z m165-461a21 21 0 0 1-21 21h-24a13 13 0 0 1-10-5l-35-46-9 17 14 26a6 6 0 0 1-5 8h-27a6 6 0 0 1-6-8l14-26-8-17-34 46a13 13 0 0 1-10 5h-25a21 21 0 0 1-21-21v-131h206v131h0z m-165 98a64 64 0 1 1 64 64 64 64 0 0 1-64-64z" horiz-adv-x="774" />

<glyph glyph-name="39" unicode="&#xe825;" d="M500 850a500 500 0 1 1 500-500 501 501 0 0 1-500 500z m0-955a455 455 0 1 0 455 455 456 456 0 0 0-455-455z m3 763a237 237 0 0 1-116-29l14-35a184 184 0 0 0 86 22 89 89 0 0 0 100-91 212 212 0 0 0-67-134 199 199 0 0 1-55-149v-13h48v11a193 193 0 0 0 55 144 237 237 0 0 1 79 152 124 124 0 0 1-144 122z m-13-524a45 45 0 1 1 42-46 42 42 0 0 1-42 46z" horiz-adv-x="1000" />

<glyph glyph-name="40" unicode="&#xe826;" d="M453 584a18 18 0 0 1-18-17v-152h-56a18 18 0 1 1 0-35h76a18 18 0 0 1 18 18v169a18 18 0 0 1-20 17z m-241-186a18 18 0 0 1-18 17h-49a18 18 0 1 1 0-34h49a18 18 0 0 1 18 17z m481 0a18 18 0 0 1 18-18h49a18 18 0 0 1 0 35h-49a18 18 0 0 1-18-17z m-240 323a18 18 0 0 1-18-17v-49a18 18 0 1 1 35 0v49a18 18 0 0 1-17 17z m0-563a18 18 0 0 1-18-18v-49a18 18 0 1 1 35 0v48a18 18 0 0 1-17 19z m-258 111l-16-10a18 18 0 1 1 17-29l16 9a18 18 0 0 1-17 30h0z m507 255a17 17 0 0 1 8 0l16 9a18 18 0 0 1-17 30l-16-9a18 18 0 0 1 8-32h0z m-389 148a18 18 0 0 1-30-18l9-16a18 18 0 1 1 30 18l-9 16h0z m4-508a18 18 0 0 1-23-6l-9-16a18 18 0 1 1 29-18l9 16a18 18 0 0 1-6 24z m271 468a18 18 0 0 1 23 6l9 16a18 18 0 1 1-29 18l-10-16a18 18 0 0 1 7-24h0z m-376-76l-16 9a18 18 0 1 1-18-29l16-9a18 18 0 0 1 18 29z m683-252a452 452 0 1 1-345-348 249 249 0 1 1 345 348h0z m-442-324a418 418 0 1 0 411 343l-27 11a390 390 0 1 1-318-320 247 247 0 0 1 11-27 421 421 0 0 0-76-8h0z m51 120a250 250 0 0 1 5-53 355 355 0 1 0 295 296 250 250 0 0 1-300-244h0z m249-215a215 215 0 1 0 215 215 215 215 0 0 0-215-216z m0 403a188 188 0 1 1 188-188 189 189 0 0 1-188 188z m0-342a152 152 0 1 0 152 152 152 152 0 0 0-152-152z m29 200a18 18 0 0 1 35 0 64 64 0 0 1-47 62v7a18 18 0 1 1-34 0v-7a64 64 0 0 1 0-123v-55a30 30 0 0 0-12 24 18 18 0 0 1-34 0 64 64 0 0 1 46-62v-5a18 18 0 1 1 34 0v7a64 64 0 0 1 0 123v56a30 30 0 0 0 12-27z m-59 0a30 30 0 0 0 12 24v-47a30 30 0 0 0-11 23z m59-94a30 30 0 0 0-12-24v48a30 30 0 0 0 12-24h0z" horiz-adv-x="1002" />

<glyph glyph-name="41" unicode="&#xe827;" d="M525 364l0 30a234 234 0 1 1-156 236h-73a125 125 0 0 1-124-132l8-133a194 194 0 0 1 63-144v-23l-26-39-121-33a78 78 0 0 1-57-75v-62a46 46 0 0 1 46-46h534a46 46 0 0 1 47 46v62a78 78 0 0 1-57 75l-122 33-25 39v23a194 194 0 0 1 63 144h0z m-132-272h0l-20 20 66 58 17-25-47-70h0l-18 17h0z m-84 0l-18-17h0l-47 70 17 25 66-58-20-20h0z m42 41l-78 66a159 159 0 0 1 157 0z m0-113h4l10-49h-23l10 49h4z m17 47a17 17 0 0 0-34 0v9l17 16 17-16v-9z m155 484a125 125 0 0 1-116 80h-10a205 205 0 0 0 210 189h0a205 205 0 1 0-76-398l5 73s0 6 0 9m-38 164l78 85 62 0-407-184a94 94 0 0 0 66 29h111a95 95 0 0 0 95-101l0-44a276 276 0 0 1-27 43 15 15 0 0 1-17 5 750 750 0 0 0-214-30 15 15 0 0 1-9 0 139 139 0 0 1-28-33l-4 62a94 94 0 0 0 26 71h0z m-17-207a133 133 0 0 0 38 80 784 784 0 0 1 208 28 213 213 0 0 0 38-108 143 143 0 1 0-285 0h0z m-141-377v62a48 48 0 0 0 35 46l116 32 46-66a31 31 0 0 1 23-13h0a31 31 0 0 1 17 5 46 46 0 0 1 12-18l-13-61h-132v48a15 15 0 1 1-29 0v-48h-67a17 17 0 0 0-16 16h0z m567 62v-62a17 17 0 0 0-17-16h-66v48a15 15 0 1 1-29 0v-48h-133l-12 62a46 46 0 0 1 12 17 31 31 0 0 1 17-5h0a31 31 0 0 1 22 13l47 67 116-32a48 48 0 0 0 35-47h0z" horiz-adv-x="879" />

<glyph glyph-name="42" unicode="&#xe828;" d="M1157 763h-679a108 108 0 0 1-106 88h-174a791 791 0 0 1-190-190v-698a108 108 0 0 1 107-107h1048a108 108 0 0 1 108 107v693a108 108 0 0 1-114 107z m-959 47h174a67 67 0 0 0 67-67h0v-697a67 67 0 0 0-67-67h-174a67 67 0 0 0-67 67v697a67 67 0 0 0 64 66z m959-916h-1047a67 67 0 0 0-67 66v696a67 67 0 0 0 47 64v-675a108 108 0 0 1 107-107h174a108 108 0 0 1 108 107v677h678a67 67 0 0 0 67-66v-697a67 67 0 0 0-67-65z m-90 762h-436a64 64 0 0 1-64-64v-88a64 64 0 0 1 64-63h436a64 64 0 0 1 64 63v88a64 64 0 0 1-64 64z m23-152a23 23 0 0 0-23-23h-436a23 23 0 0 0-23 23v88a23 23 0 0 0 23 23h436a23 23 0 0 0 23-23v-88z m-394-111a64 64 0 1 1 64-64 64 64 0 0 1-64 64z m0-88a23 23 0 1 0 23 23 23 23 0 0 0-23-23z m154 88a64 64 0 1 1 63-64 64 64 0 0 1-63 64z m0-88a23 23 0 1 0 22 23 23 23 0 0 0-22-23z m152 88a64 64 0 1 1 64-64 64 64 0 0 1-64 64z m0-88a23 23 0 1 0 23 23 23 23 0 0 0-23-23z m-306-65a64 64 0 1 1 64-64 64 64 0 0 1-64 64z m0-88a23 23 0 1 0 23 23 23 23 0 0 0-23-22z m154 88a64 64 0 1 1 63-64 64 64 0 0 1-63 64z m0-88a23 23 0 1 0 22 23 23 23 0 0 0-22-22z m152 88a64 64 0 1 1 64-64 64 64 0 0 1-64 64z m0-88a23 23 0 1 0 23 23 23 23 0 0 0-23-22z m-306-68a64 64 0 1 1 64-63 64 64 0 0 1-64 63z m0-87a23 23 0 1 0 23 23 23 23 0 0 0-23-19z m154 87a64 64 0 1 1 63-63 64 64 0 0 1-63 63z m0-87a23 23 0 1 0 22 23 23 23 0 0 0-22-19z m152 87a64 64 0 1 1 64-63 64 64 0 0 1-64 63z m0-87a23 23 0 1 0 23 23 23 23 0 0 0-23-19z" horiz-adv-x="1262" />
</font>
</defs>
</svg>
