<?xml version="1.0" standalone="no"?>
<!DOCTYPE svg PUBLIC "-//W3C//DTD SVG 1.1//EN" "http://www.w3.org/Graphics/SVG/1.1/DTD/svg11.dtd">
<svg xmlns="http://www.w3.org/2000/svg">
<metadata>Copyright (C) 2016 by original authors @ fontello.com</metadata>
<defs>
<font id="fontello" horiz-adv-x="1000" >
<font-face font-family="fontello" font-weight="400" font-stretch="normal" units-per-em="1000" ascent="850" descent="-150" />
<missing-glyph horiz-adv-x="1000" />
<glyph glyph-name="1" unicode="&#xe800;" d="M980 491h-79c-6 0-12-3-15-9l-68-131h-230l-37 35h92c4 0 7 1 10 4l37 30c7 7 8 18 1 25 0 0-1 1-1 1l-39 41c-3 3-7 5-11 5h-171c-44 19-91 28-139 29-45 1-89-9-128-31l-193-112c-4-2-7-7-8-11-1-5 0-10 3-14l118-163c3-4 8-7 14-7 3-1 6-1 9 0l69 43 93-17 313-29h4l278 40c6 1 11 4 13 9l84 178c1 3 1 5 0 8v56c0 5-2 9-5 12-2 5-8 8-14 8z m-17-69l-79-165-267-39-310 28-97 17 0 0c-3 1-6 1-9 0l-59-38-98 134 178 102c34 18 72 27 111 26 45-1 89-10 130-28h7 167l23-23-17-14h-128c-7 0-13-5-15-11-2-7-1-14 4-19l73-69c3-3 7-5 11-5h241c6 0 12 3 15 9l68 131h52v-34l0 0-1-2z" horiz-adv-x="1000" />

<glyph glyph-name="2" unicode="&#xe801;" d="M982 266h-79c-6 0-12-3-15-9l-68-131h-229l-37 35h92c4 0 7 1 10 4l37 30c7 7 8 18 1 25 0 0-1 1-1 1l-43 41c-3 3-7 5-11 5h-170c-44 18-91 28-139 29-45 1-89-9-128-31l-192-111c-4-2-7-6-8-11-1-5 0-10 3-14l118-161c3-4 8-7 14-7 3-1 6-1 9 0l69 43 93-17 312-30h4l277 40c6 1 11 4 13 9l84 177c1 3 1 5 0 8v56c0 5-2 9-5 12-3 4-7 7-11 7z m-17-68l-79-165-266-39-308 28-98 18 0 0c-3 1-6 1-9 0l-59-38-97 133 177 102c34 18 72 27 110 26 45-1 89-10 129-28h6 169l14-27-17-14h-128c-7 0-13-5-15-11-2-7-1-14 4-19l73-69c3-3 7-5 11-5h249c6 0 12 3 15 9l68 131h51v-34l0 0 0 2z m-31 351c0 107-87 194-195 194-76 0-145-44-177-113h-372c-4 0-8-1-11-4l-36-30c-4-3-6-8-6-13v-81c0-4 2-8 4-11l15-18 0 0c3-3 7-5 12-5h59c4 0 9 2 12 5l6 6 6-6c3-3 7-5 12-5h12c4 0 9 2 12 5l27 27 27-27c3-3 7-5 12-5h43c4 0 9 2 12 5l5 5 5-5c3-3 7-5 12-5h44c4 0 9 2 12 5l9 9 9-9c3-3 7-5 12-5h44c45-97 161-139 258-94 71 33 115 100 116 175z m-194-161c-66 0-125 41-149 102-3 7-9 11-16 11h-48l-17 17c-6 7-17 7-23 0 0 0 0 0 0 0l-17-17h-26l-12 12c-6 7-17 7-23 0 0 0 0 0 0 0l-12-12h-29l-34 34c-6 7-17 7-23 0 0 0 0 0 0 0l-33-33-12 12c-6 7-17 7-23 0 0 0 0 0 0 0l-14-14h-47l-6 8v67l25 21h378c7 0 13 4 16 11 32 83 125 124 208 92 83-32 124-125 92-208-29-62-89-103-155-103z m128 194c-23 23-60 23-84 0-23-23-23-60 0-84 23-23 60-23 84 0 11 11 18 27 17 43 0 16-6 30-17 41z" horiz-adv-x="1000" />

<glyph glyph-name="3" unicode="&#xe802;" d="M863 850h-725c-9 0-16-7-16-16v-63c0 0 0-921 6-921h734c9 0 16 7 16 16v968c0 9-7 16-15 16z m-17-968h-692v936h692v-936z m-377 693v-27h-266v27h266z m-263-206v-27h266v27h-266z m295 413c-29 0-53-24-53-53 0-30 24-53 53-53 29 0 53 24 53 53 0 29-24 53-53 53z m-298-309v-27h266v27h-266z m-24 292v-71h252v71h-252z m392 0v-71h252v71h-252z m-368-502v-27h580v27h-580z m0-209v-27h580v27h-580z m0 102v-26h580v26h-580z m483 328l120 120-19 19-120-120-122 123-19-19 123-123-125-125 19-19 125 125 122-122 19 19-123 122z" horiz-adv-x="1000" />

<glyph glyph-name="4" unicode="&#xe803;" d="M642 850c-198 0-358-161-358-359 0-89 33-174 93-240l-50-52c-30 20-70 15-94-11l-208-208c-30-30-30-78 0-108s78-30 108 0l208 208c27 25 31 67 9 97l49 49c146-133 372-122 505 24 133 146 122 373-24 506-65 60-150 93-238 94z m-322-744l-209-209c-15-20-44-23-63-8s-23 44-8 64c2 3 5 6 8 8l208 208c15 20 44 23 63 8 20-15 23-44 8-63-2-3-4-6-7-8l0 0z m322 59c-181 0-327 146-327 327s147 326 327 326c181 0 327-146 327-327l0 0c0-180-146-326-327-326 0 0 0 0 0 0l0 0z m279 426c-30 85-97 151-181 181-8 3-17-1-20-9-3-8 1-17 9-20 76-27 135-86 162-162 2-6 8-10 15-10h3c8 1 14 9 12 18 1 0 0 1 0 2z m-132-190l0 0-59 15c-4 1-7 3-9 5v31l0 0c20 24 31 55 31 87v24c15 44 15 92 0 137h-17c-18-1-35 1-52 7-35 14-74 11-107-7-34-4-59-34-56-68 2-29 7-58 15-86v-13c0-32 11-63 31-87v-28c-3-3-6-4-9-5l-58-15 0 0c-34-11-56-42-56-77v-17c1-19 17-34 36-33h331c19 0 35 14 36 33v16c2 37-22 71-57 81z m-146-31l-54 32c4 5 7 12 7 19v7c14-9 31-13 47-13 17 0 33 4 47 12v-9c0-7 3-14 7-20l-54-28z m-77 178c1 18 5 36 12 52 50-1 99-10 146-26v-11l0 0v-25c1-27-8-53-26-73l0 0c-13-15-32-23-52-24-47 7-80 49-77 97v5l-3 5z m15 131h10c26 15 57 17 84 4 17-5 34-7 51-8 6-24 7-49 4-73-52 18-108 27-163 27h-15c0 7 0 13 0 20 1 15 12 27 27 30h2z m-104-374c-2-1-4-1-5 0v17c0 21 13 40 33 47l52 14 73-42v-38h-157l4 2z m338 0c-2-1-4-1-5 0h-151v40l73 42 52-13c20-7 34-25 33-47v-17l0 0-2-5z" horiz-adv-x="1000" />

<glyph glyph-name="5" unicode="&#xe804;" d="M739 631h21l-27-95c0-3 0-7 0-10-1-4 1-8 5-9 1 0 1 0 2 0h12c6 2 12 6 17 11 6 6 11 14 15 22 5 12 7 24 7 37 0 12-2 24-7 34-5 10-12 19-20 27-8 7-18 13-28 17-11 4-22 6-33 6-14 0-29-3-42-8-13-5-24-13-34-23-10-10-18-22-23-35-6-14-8-29-8-44 0-14 3-28 9-41 6-12 13-23 23-31 9-9 21-16 33-20 12-5 25-7 39-7 16 0 33 3 47 11 12 9 22 20 28 34h21c-4-10-10-19-17-27-7-8-16-14-25-19-10-5-20-9-31-11-11-2-22-4-34-4-15 0-30 3-44 9-14 6-27 14-38 25-11 11-20 23-27 37-7 15-10 31-10 48 0 19 3 37 11 55 7 16 16 30 28 42 12 11 26 20 41 26 16 6 32 9 49 9 28 0 55-10 76-28 10-9 18-20 24-33 6-13 9-27 9-42 0-14-2-27-7-40-4-11-10-21-18-30-7-8-16-14-26-18-10-4-20-6-30-6-6 0-11 2-15 6-3 4-6 9-6 14-4-6-10-11-17-15-7-3-14-5-21-5-7 0-14 1-20 4-6 3-11 7-15 12-4 5-7 11-9 17-2 6-3 12-4 18 0 11 2 21 5 31 3 10 8 20 15 28 6 8 14 15 23 21 9 5 20 8 30 8 5 1 10 1 14 0 4-2 8-4 11-7l7-8c2-2 3-5 4-7l10 14z m-23-79l4 15v9c0 2 0 4 0 5 0 0 0 0 0 4 0 8-3 16-8 21-5 5-12 8-20 8-7 0-13-2-19-7-6-4-12-10-17-16-5-7-9-14-12-21-2-6-4-13-4-20-1-4-1-8 0-12 1-4 3-8 5-11 5-7 13-11 21-11 9 0 18 4 25 9 10 6 18 16 22 27l3 0z m268-336h-79c-6 0-12-3-15-9l-68-131h-230l-37 35h92c4 0 7 1 10 4l37 30c7 7 8 18 1 25 0 0-1 1-1 1l-43 41c-3 3-7 5-11 5h-171c-44 19-91 28-139 29-45 1-89-9-128-31l-193-112c-4-2-7-7-8-11-1-5 0-10 3-14l119-162c3-4 8-7 14-7 3-1 6-1 9 0l69 43 93-17 312-29h4l278 40c6 1 11 4 13 9l84 178c1 3 1 5 0 8v56c0 5-2 9-5 12-2 4-6 7-10 7z m-17-69l-79-165-267-39-310 28-98 17 0 0c-3 1-6 1-9 0l-59-38-97 134 178 102c34 18 72 27 111 26 45-1 89-10 130-28h7 166l23-23-17-14h-128c-7 0-13-5-15-11-2-7-1-14 4-19l73-69c3-3 7-5 11-5h241c6 0 12 3 15 9l68 131h52v-35l0 0 0-1z m-277 192c-126 0-228 102-228 228 0 125 102 227 228 227 126 0 228-102 228-228l0 0c-1-125-102-227-228-227z m0 426c-109 0-198-89-198-198 0-109 89-198 198-198 109 0 198 89 198 198l0 0c0 110-89 198-198 198l0 0z" horiz-adv-x="1000" />

<glyph glyph-name="6" unicode="&#xe805;" d="M881 694h-192v71c0 47-38 85-85 85h-208c-47 0-85-38-85-85v-71h-193c-65 0-118-53-118-118v-278c0-27 13-53 35-69l0 0v-193c0-65 53-118 118-118h694c65 0 118 53 118 118v192l0 0c22 16 35 42 35 69v277c1 65-51 119-116 120-1 0-2 0-3 0z m-539 71c0 29 24 53 53 53h0 208c29 0 53-24 53-53l0 0v-71h-37v71c0 9-7 17-17 17h0-208c-9 0-17-7-17-17l0 0v-71h-37v71h2z m70-71v54h177v-54h-177z m522-659c0-49-39-88-88-88h-694c-48-1-88 38-89 87 0 1 0 2 0 2v177c6-1 12-1 18 0h88v-18c0-28 23-51 51-51h35c28 0 51 23 51 51v18h384v-18c0-28 23-51 51-51h35c28 0 51 23 51 51v18h88c6-1 12-1 18 0v-177l1-1z m-659 208h-72v18c0 10 8 18 18 18h0 35c10 0 18-8 18-18l0 0 1-18 0 0z m0-33v-18c0-10-8-18-18-18h0-35c-10 0-18 8-18 18l0 0v18h71l0 0z m521 33h-72v18c0 10 8 18 18 18h0 35c10 0 18-8 18-18l0 0 1-18 0 0z m0-33v-18c0-10-8-18-18-18h0-35c-10 0-18 8-18 18l0 0v18h71l0 0z m174 86c0-29-24-53-53-53h0-87v18c0 28-23 51-51 51h-35c-28 0-51-23-51-51v-18h-385v18c0 28-23 51-51 51h-35c-28 0-51-23-51-51v-18h-88c-29 0-53 24-53 53l0 0v278c0 49 39 88 88 88h766c49 0 88-39 88-88v-278h-2z" horiz-adv-x="1000" />

<glyph glyph-name="7" unicode="&#xe806;" d="M998 657c-1 7-8 13-16 11 0 0 0 0 0 0l-90-17c-25-5-46-20-58-42l0 0c-26-47-61-87-104-118-15-11-28-22-41-35l-130-130c-19-14-45-10-58 9-12 16-10 39 4 54l94 94c32 32 40 81 18 120-17 32-51 52-88 52h-11c-24-1-47-12-65-29l-61-61c-14-14-22-34-23-54v-42l-62-62 7 172c0 6 3 12 7 17l201 206c12 12 28 19 45 19h245c8 0 14 6 14 14 0 8-6 14-14 14l0 0h-245c-24 0-48-10-65-27l0 0-201-208c-9-9-14-22-15-35l-8-202-272-272c-6-5-6-14 0-19 0 0 0 0 0 0l230-230c5-5 14-5 19 0 0 0 0 0 0 0l473 473c5 5 5 14 0 19 0 0 0 0 0 0l-54 54 36 36c12 12 25 23 38 32 47 34 85 78 113 128l0 0c8 15 22 25 38 28l90 17c6 2 10 8 9 14z m-514-251c-26-28-24-72 4-98 24-22 61-25 88-5l0 0 40 40 17-17-383-382-156 156 383 383 41-41-34-36z m-12 196c13 13 31 21 49 21h9c26 0 50-14 63-37 15-29 10-64-13-87l-4-4-78 78c-5 5-14 5-19 0 0 0 0 0 0 0l-27-27v32l20 24z m-76-98c0 13 6 26 15 35l10 10v-32l-25-25 0 12 0 0z m301-172l-453-453-210 210 453 453 69-69-16-11-49 49c-5 5-14 5-19 0 0 0 0 0 0 0l-403-403c-5-5-5-14 0-19 0 0 0 0 0 0l175-175c5-5 14-5 19 0 0 0 0 0 0 0l402 402c5 5 5 14 0 19 0 0 0 0 0 0l-28 28 16 16 44-47z m-287-73c-39 39-90 49-115 23s-15-76 23-115c20-22 48-36 78-38 14-1 27 5 37 14 14 15 18 36 12 56-6 23-18 44-35 60z m4-95c-47-7-91 25-98 71-1 9-1 18 0 27 5 4 11 6 17 6 22-2 43-13 58-29 13-13 23-29 28-46 3-11 1-21-5-29z" horiz-adv-x="1000" />

<glyph glyph-name="8" unicode="&#xe807;" d="M15 435h79c6 0 12 3 15 9l68 131h230l37-35h-91c-4 0-7-1-10-4l-37-30c-7-7-8-18-1-25 0 0 1-1 1-1l43-41c3-3 7-5 11-5h171c44-19 91-28 139-29 45-1 89 9 128 31l193 111c4 2 7 7 8 11 1 5 0 10-3 14l-118 163c-3 4-8 7-14 7-3 1-6 1-9 0l-69-42-93 17-313 28h-4l-278-40c-6-1-11-4-13-9l-85-178c0-3 0-5 0-8v-56c0-5 2-9 5-12 2-4 6-6 10-7z m17 69l79 165 267 39 310-28 98-17 0 0c3-1 6-1 9 0l59 38 97-133-178-103c-34-18-72-27-111-26-45 1-89 10-130 28h-7-166l-23 23 17 14h137c7 0 13 5 15 11 2 7 1 14-4 19l-73 69c-3 3-7 5-11 5h-248c-6 0-12-3-15-9l-68-132h-53v34l0 0-1 3z m32-355c0-108 87-195 195-195 76 0 145 44 177 114h374c4 0 8 1 11 4l36 30c4 3 6 8 6 13v81c0 4-2 8-4 11l-15 18 0 0c-3 3-7 5-12 5h-59c-4 0-9-2-12-5l-7-7-7 7c-3 3-7 5-12 5h-12c-4 0-9-2-12-5l-27-27-27 27c-3 3-7 5-12 5h-43c-4 0-9-2-12-5l-5-5-5 4c-3 3-7 5-12 5h-40c-4 0-9-2-12-5l-9-9-9 9c-3 3-7 5-12 5h-44c-39 100-153 150-253 110-78-30-128-106-125-190z m196 162c66 0 126-41 150-103 3-7 9-11 16-11h49l17-17c6-7 17-7 23 0 0 0 0 0 0 0l17 17h26l12-12c6-7 17-7 23 0 0 0 0 0 0 0l12 12h29l34-34c6-7 17-7 23 0 0 0 0 0 0 0l33 33 12-12c6-7 17-7 23 0 0 0 0 0 0 0l14 14h47l10-8v-67l-25-21h-379c-7 0-13-4-16-11-32-83-125-124-209-92-83 32-124 125-92 209 24 62 84 103 151 103l0 0z m-101-194c23-23 61-23 84 0 23 23 23 61 0 84-23 23-61 23-84 0-11-11-18-27-18-43 1-16 7-30 18-41z" horiz-adv-x="1000" />

<glyph glyph-name="9" unicode="&#xe808;" d="M202 473h266v-27h-266v27z m0-237h580v27h-580v-27z m0-106h580v26h-580v-26z m0-103h580v27h-580v-27z m4 315h266v27h-266v-27z m225 423h-252v-71h252v71z m69-89c29 0 53 24 53 53 0 29-24 53-53 53s-53-24-53-53l-2 2c0-1 0-3 0-4 1-29 26-52 55-51z m-298-128h266v27h-266v-27z m621 217h-252v-71h252v71z m-66-180l-160-206-52 55-19-18 74-77 177 230-20 16z m94 245c12 0 21-10 21-21v-917c0-12-10-21-21-21h-702c-12 0-21 10-21 21v917c0 12 10 21 21 21h702m0 20h-702c-23 0-41-19-41-41v-917c0-23 19-41 41-41h702c23 0 41 19 41 41v917c0 22-18 41-41 41l0 0z" horiz-adv-x="1000" />

<glyph glyph-name="10" unicode="&#xe809;" d="M985 365h-17c-8 246-205 444-452 452v17c0 8-7 15-15 15-8 0-15-7-15-15v-17c-245-8-443-206-451-452h-17c-8 0-15-7-15-15s7-15 15-15h17c8-246 206-444 453-453v-17c0-8 6-15 15-15 8 0 15 6 15 15 0 0 0 0 0 0v17c245 9 442 207 451 453h17c8 0 15 7 15 15s-8 15-16 15l0 0z m-132 246l-125-125c-22 37-53 67-90 90l125 125c35-25 65-56 90-90l0 0z m-140-364v-4c-23-43-58-78-101-101h-4c-66-32-143-32-208 0h-4c-43 22-79 58-101 101v4c-32 66-32 143 0 208v4c22 43 58 79 101 101h4c66 32 143 32 208 0h4c43-22 79-58 101-101v-4c32-65 32-142 0-208l0 0z m-209-334c-84 0-167 24-237 70l127 127c70-32 150-32 219 0l128-128c-71-46-155-70-240-70h3z m0 876c84 0 167-24 237-70l-127-127c-70 32-150 32-219 0l-128 127c71 46 154 70 237 70l0 0 0 0z m-310-128c15 15 31 29 48 42l125-125c-37-22-67-53-90-90l-124 125c12 17 25 32 40 47l1 1z m-58-72l128-128c-32-70-32-150 0-219l-128-128c-93 144-94 329-2 473l2 2z m17-499l125 125c22-37 53-67 90-90l-126-125c-34 26-64 56-89 90l0 0z m661-48c-15-15-31-29-48-42l-125 125c37 22 67 53 90 90l124-125c-13-17-28-34-44-49l3 1z m58 72l-127 128c32 70 32 150 0 219l128 128c92-145 92-330-1-475l0 0 0 0z" horiz-adv-x="1000" />

<glyph glyph-name="11" unicode="&#xe80a;" d="M274 224h21l-27-94c0-3 0-7 0-10-1-4 1-8 5-9 1 0 1 0 2 0h12c6 2 12 6 16 11 6 6 11 14 15 22 5 11 7 24 6 36 0 13-4 26-10 37-5 10-12 19-20 26-8 7-18 13-28 17-10 4-22 6-33 6-14 0-28-3-41-8-12-5-24-13-33-23-10-10-18-22-23-34-6-14-8-28-8-43 0-14 3-28 9-40 5-12 13-22 23-31 9-9 20-15 32-20 12-5 25-7 38-7 16 0 32 3 47 11 13 7 24 17 32 29h21c-4-10-10-19-17-26-7-7-16-14-25-19-10-5-20-9-30-11-11-2-22-4-33-4-15 0-30 3-44 9-14 6-27 14-37 25-11 10-20 23-26 37-7 15-10 31-10 47 0 18 3 37 11 54 7 15 16 29 28 41 12 11 25 20 40 26 15 6 32 9 48 9 27 0 54-10 75-28 10-9 18-20 24-32 6-13 9-27 9-41 0-14-2-27-7-40-4-11-10-21-18-29-7-8-16-14-26-18-9-4-20-6-30-6-5 0-11 2-15 6-3 4-5 8-6 13-4-6-10-11-16-15-7-3-14-5-21-5-7 0-14 1-20 4-6 3-11 7-15 12-4 5-7 10-9 16-2 6-3 12-4 18 0 11 2 21 5 31 3 10 8 20 15 28 6 8 14 15 23 20 9 5 19 8 30 8 5 1 9 1 14 0 4-2 7-4 11-7l7-8c2-2 3-4 4-7l9 16z m-24-78l6 12v9c0 2 0 4 0 5 0 0 0 0 0 4 0 8-3 15-8 21-5 5-12 8-19 8-7 0-13-2-19-6-6-4-12-10-16-16-5-6-9-13-12-21-3-7-4-14-4-21-1-4-1-8 0-12 1-4 2-8 5-11 5-7 13-11 21-11 9 0 18 4 25 9 10 7 18 18 21 30l0 0z m-220 311h78c6 0 12 3 15 9l67 129h227l36-34h-91c-4 0-7-1-10-4l-36-29c-7-7-8-18-1-25 0 0 1-1 1-1l42-40c3-3 7-5 11-5h168c43-18 90-28 137-29 44-1 88 9 126 30l190 110c4 2 7 6 8 11 1 5 0 10-3 14l-116 161c-3 4-8 7-13 7-3 1-6 1-9 0l-68-42-92 16-309 29h-4l-274-40c-6-1-10-4-13-9l-82-176c-1-3-1-5 0-8v-55c0-5 2-9 5-12 2-3 6-6 10-7z m16 68l78 163 263 39 305-28 96-17 0 0c3-1 6-1 9 0l58 37 96-131-175-100c-34-18-71-27-109-26-44 1-88 10-128 27h-6-160l-23 22 16 13h127c7 0 13 5 15 11 2 6 1 14-4 19l-73 71c-3 3-6 5-11 5h-243c-6 0-12-3-15-9l-67-129h-51v34l0 0 2-1z m179-589c-124 0-224 100-224 224 0 124 100 224 224 224 124 0 224-100 224-224l0 0c0-123-100-223-224-224z m0 420c-108 0-195-87-195-195 0-108 87-195 195-195 108 0 195 87 195 195l0 0c0 108-87 195-195 195l0 0z" horiz-adv-x="1000" />

<glyph glyph-name="12" unicode="&#xe80b;" d="M717 583c52 0 94 42 94 94s-42 94-94 94c-52 0-94-42-94-94s42-94 94-94l0 0z m0 170c42 0 76-34 76-76 0-42-34-76-76-76s-76 34-76 76c-1 42 33 77 76 76 0 1 0 1 0 0l0 0z m73-534c-5 0-9-4-9-9l0 0v-66c1-5 6-8 11-7 3 1 6 3 7 7v66c-1 4-5 8-9 9z m141 77l0 0c23-13 52-5 65 18 11 19 7 42-8 57l-30 28v415c0 17-13 30-30 30h0-886c-17 0-30-13-30-30l0 0v-489c0-17 13-30 30-30h0 550v-23h-564c-17 0-30-13-30-30l0 0v-19c0-17 13-30 30-30h0 564v-284c3-32 31-55 63-52 28 3 50 25 52 52v240c6-1 13-1 19 0v-240c3-32 31-55 63-52 28 3 50 25 52 52v283h100c17 0 30 13 30 30l0 0v21c0 17-13 30-30 30h0-100v23h89l1 0z m-89 82l68-65h-68v65z m135-61c-12-11-30-11-42 0l-92 87v80c0 0 0 0 0 3l133-127c12-12 12-31 1-43 0 1-1 0-1 0h1z m-948 8v23h297c5 1 8 6 7 11-1 3-3 6-7 7h-297v448c0 7 5 12 12 12h886c7 0 12-5 12-12v-27h-144c-5-1-8-6-7-11 1-3 3-6 7-7h145v-353l-125 118 0 0c-56 55-146 54-201-2-1-1-1-1-2-2l0 0-96-103-70 66c-18 19-48 21-68 3-19-18-21-48-3-68 2-2 3-3 5-5l108-98c6-6 14-10 23-12h-469c-6 0-12 5-13 12 1 0 1 0 0 0l0 0z m563 156v-88l-50-54c-12-11-30-11-42 0l-108 98c-12 11-13 30-1 42 11 12 30 13 42 1l77-72c3-3 9-3 12 0l70 73z m-62-168c9 2 18 7 25 14l37 40v-54h-62z m-502-105c-7 0-12 5-12 12v21c0 7 5 12 12 12h564v-45l-564 0 0 0z m771-339v205c1 5-2 10-7 11-5 1-10-2-11-7 0-1 0-3 0-4v-207c-20 2-36 19-36 40v250c0 5-4 9-9 9l0 0 0 0h-17-17c-5 1-10-3-10-8 0 0 0 0 0-1v-251c0-21-16-38-37-40v109c-1 5-6 8-11 7-3-1-6-3-7-7v-104c-16 6-26 21-26 38v574c0 41 66 75 108 75s108-34 108-75v-574c-1-18-12-34-28-40l0 0z m144 385c7 0 12-5 12-12v-19c0-7-5-12-12-12h-100v45h100v-2z m-820 399h394c5-1 10 2 11 7 1 5-2 10-7 11-1 0-3 0-4 0h-394c-5 1-10-2-11-7-1-5 2-10 7-11 1-1 3-1 4 0z m403-76c0 5-4 9-9 9l0 0h-394c-5-1-8-6-7-11 1-3 3-6 7-7h394c5 0 9 4 9 9z m-235-76h-168c-5-1-8-6-7-11 1-3 3-6 7-7h168c5 1 8 6 7 11-1 4-4 6-7 7z" horiz-adv-x="1000" />

<glyph glyph-name="13" unicode="&#xe80c;" d="M999 664c-1 8-9 13-16 11l-90-17c-24-5-45-21-56-42l0 0c-26-47-61-87-104-119-15-11-28-22-41-35l-130-130c-17-16-44-14-60 3-16 17-14 44 3 60l0 0 94 94c32 32 39 81 18 120-18 32-51 52-87 52h-11c-24-2-47-12-64-29l-61-61c-15-15-23-35-23-56v-42l-63-63 7 169c0 6 3 12 7 16l199 208c12 12 28 19 45 19h243c8 1 13 8 11 16-1 6-5 10-11 11h-243c-24 0-48-10-65-27l0 0-201-208c-9-9-14-22-15-34l-8-202-273-273c-5-5-5-14 0-20l230-230c5-5 14-5 20 0l474 474c5 5 5 14 0 20l-56 56 36 36c12 12 24 22 38 32 47 34 85 78 113 128l0 0c8 15 22 25 38 28l90 17c8 1 13 8 13 15 0 2 0 3-1 3z m-514-251c-26-28-25-72 3-98 25-23 62-25 89-5l0 0 40 40 17-17-381-383-156 156 382 382 41-41-35-34z m-12 198c13 12 29 20 47 21h10c26 0 50-14 63-37 15-29 10-65-14-87l-4-4-78 78c-5 5-14 5-20 0l-27-28v33l23 24z m-76-96c0 13 6 26 15 35l10 10v-33l-25-25v13l0 0z m300-173l-451-451-211 210 452 452 69-69-16-16-51 51c-5 5-14 5-20 0l-403-403c-5-5-5-14 0-20l176-173c5-5 14-5 20 0l403 403c5 5 5 14 0 20l-27 27 16 16 43-47z m-286-76c-14 36-55 54-91 40-36-14-54-55-40-91 7-18 22-33 40-40 20-22 48-36 78-38 14 0 27 5 37 14 14 15 18 37 11 56-7 23-19 43-35 59z m4-95c-47-8-91 23-99 70-2 10-2 20 0 30 5 4 11 6 17 6 22-3 42-13 56-29 13-13 23-29 28-46 4-12 3-23-2-31z" horiz-adv-x="1000" />

<glyph glyph-name="14" unicode="&#xe80d;" d="M921 629c-2 9-10 14-19 13l-106-20c-29-5-54-24-68-49l0 0c-30-55-72-103-123-140l-25-18 0 0-169-170c-17-17-44-19-64-5l-6 5c-19 19-19 50 0 70l112 112c46 47 45 121-2 167-21 21-49 33-79 34h-12c-29-2-56-14-76-34l-94-95c-3-3-5-7-5-11v-168c0-9-4-18-11-25h-12c-7 0-14-5-15-12l0 0c-21 0-37 17-37 37 0 0 0 0 0 0l9 216c0 7 3 14 8 19l238 242c14 14 33 22 53 22h286c9 2 14 11 12 19-1 6-6 11-12 12h-286c-29 0-56-11-76-32l0 0-238-241c-11-11-17-25-18-40 0 0-9-216-9-217 0-38 31-69 69-70v-381c0-9 7-16 16-16l0 0h179c9 0 16 7 16 16l0 0v330c29-9 60 0 81 21l170 170 24 17c55 40 100 91 133 150l0 0c9 17 26 29 45 33l106 20c6 5 8 12 5 19z m-628-370c3-13 9-26 18-36h-139v36h121z m-121-273h147v-36h-147v36z m0 31v36h147v-36l-147 0 0 0z m0 68v36h147v-36h-147z m0 68v37h147v-36h-147z m130 412c15 15 34 24 55 25h11c22 0 42-8 58-23l-56-38c-8-3-13-12-9-21 3-8 12-13 21-9 2 1 5 2 6 4l57 39c16-33 9-72-17-98l-16-16h-104c-19 0-35 16-35 35v75l29 27z m-92-251v162l30 30v-46c0-36 30-66 66-66l0 0h71l-63-64c-11-11-19-26-22-41h-89c4 8 6 17 6 27l1-2z m-38-434v36h147v-36h-147z m410 70h-179c-9 0-16-7-16-16l0 0v-68c0-9 7-16 16-16l0 0h179c9 0 16 7 16 16l0 0v68c0 8-7 16-16 16l0 0z m-16-68h-147v36h147v-36z" horiz-adv-x="1000" />

<glyph glyph-name="15" unicode="&#xe80e;" d="M887-151h-775c-8 0-14 6-14 14l0 0v494h-82c-8-1-15 5-15 13 0 5 2 9 5 12l485 465c5 6 14 6 20 0 0 0 0 0 0 0l483-464c6-5 7-15 1-21-3-3-6-5-10-5h-82v-494c0-8-6-14-14-14-1 0-1 0-2 0z m-760 29h747v494c0 8 6 14 14 14l0 0h61l-445 430-445-430h61c8 0 14-6 14-14l0 0v-495l-7 1z m178 49l0 0h-21c-3 0-7 2-9 4l-49 49c-3 3-5 7-4 12l4 40c0 3 2 7 4 9l226 226c-32 86 12 183 99 215s183-12 215-99c32-86-12-183-99-215-37-14-78-14-116 0l-27-27c-3-3-6-4-10-4h-12v-12c0-4-2-8-4-10l-24-24c-3-3-6-4-10-4h-8v-6c0-4-2-8-4-10l-26-26c-3-3-6-4-10-4h-33v-33c0-4-2-8-4-10l-7-7c-3-3-6-4-10-4h-7v-7c0-4-2-8-4-10l-38-38c-6-4-9-5-12-5l0 0z m-14 31h9l29 29v16c0 8 6 14 14 14l0 0h15v40c0 8 6 14 14 14l0 0h42l18 18v15c0 8 6 14 14 14l0 0h14l16 16v20c0 8 6 14 14 14l0 0h20l30 30c5 3 11 3 16 0 70-29 151 4 181 74 29 70-4 151-74 181-70 29-151-4-181-74-14-34-14-72 0-106 3-5 3-11 0-16l-232-232v-27l41-40z m362 351c-27 0-50 22-50 49 0 27 22 50 49 50 27 0 50-22 50-49 0-13-5-26-14-35-10-10-22-15-35-15l0 0z m0 74c-11 0-21-9-21-20 0-6 2-11 6-15 8-8 21-8 30 0 6 10 3 22-6 29-3 2-6 3-9 3l0 3z" horiz-adv-x="1000" />

<glyph glyph-name="16" unicode="&#xe80f;" d="M12 435h79c6 0 12 3 15 9l68 131h230l36-35h-92c-4 0-7-1-10-3l-37-30c-7-6-8-18-2-25 0-1 1-1 2-2l43-41c3-3 7-5 12-5h172c44-19 92-29 140-29 45-1 89 10 129 31l193 112c4 2 7 7 8 12 2 5 2 10 0 14l-118 163c-3 4-8 7-14 7-3 1-6 1-9 0l-68-43-93 16-314 29h-4l-280-40c-6-1-10-4-13-10l-84-178c-1-2-1-5 0-7v-59c0-5 2-9 5-12 1-3 3-4 6-5z m17 68l79 166 268 39 311-29 99-18 0 0c3-1 6-1 9 0l62 38 97-136-177-102c-34-18-73-28-112-27-45 1-89 10-131 28h-6-165l-23 22 17 14h129c7 0 13 4 16 11 3 7 1 14-4 19l-74 68c-3 3-7 5-12 5h-248c-6 0-12-3-15-9l-68-131h-52v34l0 0v8z m34-355c0-108 89-195 197-195 76 0 145 45 177 113h375c4 0 8 1 11 4l36 30c4 3 6 8 6 13v81c0 4-1 8-4 11l-16 18 0 0c-3 3-8 5-12 5h-63c-5 0-9-2-12-5l-6-6-6 6c-3 3-8 5-12 5h-12c-5 0-9-2-12-5l-27-27-27 27c-3 3-8 5-12 5h-44c-5 0-9-2-12-5l-5-5-5 5c-3 3-8 5-12 5h-40c-5 0-9-2-12-5l-10-10-10 10c-3 3-8 5-12 5h-45c-47 97-165 138-262 91-68-31-110-97-112-171z m196 163c67 0 127-41 151-104 3-6 9-11 16-11h46l16-16c7-6 17-6 24 0l16 16h26l12-12c7-6 17-6 24 0l12 12h29l34-34c7-6 17-6 24 0l33 33 13-13c7-6 17-6 24 0l14 14h48l7-8v-68l-25-21h-381c-7 0-13-4-16-11-33-83-128-123-211-90-83 33-123 128-90 211 25 62 85 102 151 102h3z m-104-196c23-23 60-23 83 0 23 23 23 60 0 83-23 23-60 23-83 0-11-11-17-26-17-41 0-16 6-31 17-42z" horiz-adv-x="1000" />

<glyph glyph-name="17" unicode="&#xe810;" d="M882 660h-192v69c0 47-38 85-85 85h-207c-47 0-85-38-85-85v-69h-192c-66 0-120-54-120-120v-276c0-27 13-53 34-69l0 0v-190c0-66 54-120 120-120h689c66 0 120 54 120 120v190l0 0c22 16 35 42 34 69v276c1 65-51 119-116 120z m-538 69c0 29 24 53 53 53 0 0 0 0 0 0h207c29 0 53-24 53-53l0 0v-69h-37v69c0 9-7 17-17 17h-206c-9 0-17-7-17-17v-69h-37l1 69 0 0z m69-69v54h175v-54h-175l0 0z m521-657c0-48-39-87-87-87 0 0 0 0 0 0h-689c-48 0-87 39-87 87l0 0v177c6-1 12-1 19 0h87v-19c0-28 23-51 51-51h34c28 0 51 23 51 51v19h383v-19c0-28 23-51 51-51h34c28 0 51 23 51 51v19h88c6-1 12-1 19 0v-176h-5z m-657 207h-69v19c0 10 8 19 19 19 0 0 0 0 0 0h34c10 0 19-8 19-19l0 0v-19h-3z m0-32v-19c0-10-8-19-19-19 0 0 0 0 0 0h-34c-10 0-19 8-19 19l0 0v19h69 3z m519 32h-69v19c0 10 8 19 19 19 0 0 0 0 0 0h34c10 0 19-8 19-19l0 0v-19h-3z m0-32v-19c0-10-8-19-19-19 0 0 0 0 0 0h-34c-10 0-19 8-19 19l0 0v19h69 3z m172 85c0-29-24-53-53-53 0 0 0 0 0 0h-87v19c0 28-23 51-51 51h-34c-28 0-51-23-51-51v-19h-384v19c0 28-23 51-51 51h-34c-28 0-51-23-51-51v-19h-87c-29 0-53 24-53 53l0 0v276c0 48 39 87 87 87 0 0 0 0 0 0h758c48 0 87-39 87-87l0 0v-276h4z" horiz-adv-x="1000" />

<glyph glyph-name="18" unicode="&#xe811;" d="M92 7h815c51 0 92 41 92 92v502c0 51-41 92-92 92h-815c-51 0-92-41-92-92v-502c0-51 41-92 92-92z m-33 594c0 18 15 33 33 33h815c18 0 33-15 33-33v-502c0-18-15-33-33-33h-815c-18 0-33 15-33 33v502z m96-469h282c16 0 29 13 29 29s-13 29-29 29h-282c-16 0-29-13-29-29s13-29 29-29z m158 123c0-16 13-29 29-29l0 0h94c16 0 29 13 29 29s-13 29-29 29h-94c-16 1-29-12-29-29l0 0z m-158-29h92c16 0 29 13 29 29s-13 29-29 29l0 0h-94c-16-1-29-14-28-30 0-16 14-29 30-28z m692 59h-94c-16 0-29-13-29-29s13-29 29-29h94c16 0 29 13 29 29s-12 29-29 29z m-284-59h94c16 0 29 13 29 29s-13 29-29 29h-94c-16 0-29-13-29-29s13-29 29-29z m0-94h94c16 0 29 13 29 29s-13 29-29 29h-94c-16 0-29-13-29-29s13-29 29-29z m-377 219h125c34 0 61 27 61 61l0 0v62c0 34-27 61-61 61h0-125c-34 0-61-27-61-61l0 0v-62c1-33 28-61 61-61l0 0z m128 124v-62l0 0h-33v67h33v-5z m-129 0l0 0h33v-67h-32l0 0v62l-1 5z m534-124h62c51 5 88 50 84 100-4 44-39 80-84 84h-62c-51 5-96-33-100-84s33-96 84-100c5 0 10 0 16 0z m0 126h62c18 0 33-15 33-33 0-18-15-33-33-33h-62c-18 0-33 15-33 33 0 18 15 33 33 33z" horiz-adv-x="1000" />

<glyph glyph-name="19" unicode="&#xe812;" d="M265 105c0-12-10-22-22-22h-49c-12-2-23 6-25 18-2 12 6 23 18 25 2 0 5 0 7 0h49c13 0 22-9 22-21z m-61 209l-198 197c-8 8-8 22 0 30l198 198c8 8 22 8 30 0l198-198c4-4 6-9 6-15v-198c0-12-10-22-22-22h-200c-6 0-11 2-15 6h3z m-152 212l176-176h167v168l-176 176-167-168z m402-315h20c12-2 23 6 25 18 2 12-6 23-18 25-2 0-5 0-7 0h-24c-12 0-21-10-21-22 0-12 10-21 22-21l0 0 3 0z m-129 184c12-2 23 6 25 18 2 12-6 23-18 25-2 0-5 0-7 0l0 0c-12 1-22-8-23-20-1-12 8-22 20-23l0 0 3 0z m386-341c0-12-10-22-22-22h-123c-12-54-66-88-120-75-39 9-69 40-76 79-17 5-31 16-39 32-4 7-6 16-6 24v142c2 12 13 20 25 18 9-2 16-9 18-18v-142c0-2 0-3 0-5l3-4c16 53 72 83 125 67 35-11 61-39 69-74h123c11-1 19-9 20-20l3-2z m-185 0c0 32-26 58-58 58-32 0-58-26-58-58l0 0c8-31 39-50 70-42 21 5 38 22 42 44l4-2z m474 84v-14c0-9 0-19 0-31-1-26-19-49-44-56-13-54-67-87-121-74-54 13-87 67-74 121 13 54 67 87 121 74 37-9 65-37 74-74 3 2 4 6 4 9 0 13 0 23 0 32v14c0 18 0 40 0 50 0 10 0 14 0 20h-327c-7 0-25 0-80 54-21 20-40 42-56 66-2 12 5 23 17 25 8 2 17-2 22-9 13-18 29-35 45-51 15-17 33-32 53-43h302l-27 24-19 17-15 14-23 20-20 17c-79 66-100 84-167 84h-147c-12 2-20 13-18 25 2 9 9 16 18 18h141c82 0 115-28 194-94l20-17c9-7 17-15 25-22l14-14 19-17c51-45 62-57 66-117 1-10 1-32 1-50l2-1z m-85-84c0 32-26 58-58 58s-58-26-58-58c0-32 26-58 58-58h0c32 0 58 26 58 58l0 0z m-58 21l0 0c-12 0-22-10-22-22s10-22 22-22c12 0 22 10 22 22l0 0c0 12-9 21-20 22-1 0-1 0-2 0z m-609 123h-109c-12-2-20-13-18-25 2-9 9-16 18-18h108c13 1 23 12 22 25-1 13-12 23-25 22l0 0 4-4z m221-123l0 0c-12 0-22-10-22-22s10-22 22-22c12 0 22 10 22 22l0 0c0 12-9 21-20 22-2 0-2 0-2 0z" horiz-adv-x="1000" />

<glyph glyph-name="20" unicode="&#xe813;" d="M772-151h-720c-9 0-16 7-16 16l0 0v970c0 9 7 16 16 16l0 0h720c9 0 16-7 16-16l0 0v-971c-1-8-8-15-16-15z m-704 32h688v938h-688v-938l0 0z m882 49h-71c-9 0-16 7-16 16l0 0v682c0 2 0 4 0 6l36 149c2 9 10 14 19 12 6-1 11-6 12-12l34-150c0-2 0-4 0-6v-683c0-7-6-14-14-14l0 0z m-55 31h40v654h-40v-654z m4 686h31l-16 65-15-65z m-238-594h-501c-9 0-16 7-16 16 0 9 7 16 16 16h501c9 0 16-7 17-16 0-10-7-17-17-16l0 0z m0 114h-501c-9 0-16 7-16 16s7 16 16 16h501c9 0 16-7 17-16 0-9-7-16-17-16l0 0z m0 297h-501c-9 0-16 7-16 16s7 16 16 16h501c9 0 16-7 17-16 0-9-7-16-17-16l0 0z m0 115h-501c-9 0-16 7-16 16 0 9 7 16 16 16h501c9 0 16-7 16-15 1-9-6-16-16-17l0 0z m0 115h-501c-9 0-16 7-16 16 0 9 7 16 16 16h501c9 0 16-7 16-15 1-9-6-17-16-17l0 0 0 0z" horiz-adv-x="1000" />

<glyph glyph-name="21" unicode="&#xe814;" d="M715 584c52 0 93 42 93 93 0 52-42 93-93 93-52 0-93-42-93-93 0-52 42-93 93-93 0 0 0 0 0 0z m0 169c42 0 76-34 76-76 0-42-34-76-76-76-42 0-76 34-76 76 1 42 35 76 76 76 0 0 0 0 0 0l0 0z m72-531c-5 0-9-4-9-9l0 0v-65c-1-5 1-10 6-11 5-1 10 1 11 6 0 2 0 3 0 5v66c0 4-4 8-8 8z m140 77l0 0c22-14 51-7 65 15 12 20 9 45-9 61l-29 28v410c0 16-13 29-29 29h-879c-16 0-29-13-29-29v-485c0-16 13-29 29-29h545v-23h-561c-16 0-29-13-29-29v-21c0-16 13-29 29-29h561v-281c0-32 26-58 58-58 32 0 58 26 58 58l0 0v238h19v-239c0-32 26-58 58-58 32 0 58 26 58 58l0 0v281h99c16 0 29 13 29 29v21c0 16-13 29-29 29h-101v23l87 1 0 0z m-87 81l70-65h-70v65z m134-61c-11-12-30-12-42 0 0 0 0 0 0 0l-92 86v75l0 0 132-125c9-10 9-25 2-36l0 0z m-939 9v23h295c5 1 8 6 6 11-1 3-3 5-6 6h-295v444c0 7 5 12 12 12h878c7 0 12-5 12-12v-27h-140c-5 1-10-1-11-6-1-5 1-10 6-11 2 0 3 0 5 0h140v-351l-123 117 0 0c-55 54-144 54-198-1-1-1-2-2-3-3l0 0-95-102-70 65c-19 18-50 17-67-3-18-19-17-50 3-67l0 0 105-98c6-6 14-10 22-12h-465c-7 0-12 5-12 12 0 1 0 2 1 3l0 0z m557 154v-87l-50-53c-11-11-30-11-41 0l-105 98c-12 11-12 30-1 42 11 12 30 12 42 1l76-70c4-3 9-3 13 0l66 69z m-62-166c9 2 18 7 25 14l37 39v-53h-62z m-497-104c-7 0-12 5-12 12v21c0 7 5 12 12 12h561v-45l-561 0 0 0z m764-336v202c1 5-1 10-6 11-5 1-10-1-11-6 0-2 0-3 0-5v-205c-20 2-36 19-36 39v249c0 5-4 9-9 9l0 0 0 0h-17-17c-5 1-10-3-10-8 0 0 0-1 0-1v-248c0-21-16-37-36-39v106c1 5-1 10-6 11-5 1-10-1-11-6 0-2 0-3 0-5v-103c-15 6-25 21-25 37v566c24 58 90 86 148 62 28-12 51-34 62-62v-570c-3-15-13-28-26-34l0 0z m140 381c7 0 12-5 12-12v-21c0-7-5-12-12-12h-97v45h99l-2 0z m-810 396h391c5 1 8 6 6 11-1 3-3 5-6 6h-391c-5 1-10-1-11-6s1-10 6-11c1 0 3 0 5 0z m400-75c0 5-4 9-9 9l0 0h-391c-5 1-10-1-11-6-1-5 1-10 6-11 2 0 3 0 5 0h391c4 0 8 3 9 8z m-234-76h-166c-5-1-8-6-6-11 1-3 3-5 6-6h166c5 1 8 6 6 11-1 3-3 5-6 6z" horiz-adv-x="1000" />

<glyph glyph-name="22" unicode="&#xe815;" d="M0 572h87l134-360 134 360h87l-173-444h-98l-171 444z m495 0h78v-445h-78v445z m170 0h195c77 0 139-62 139-139 0-77-62-139-139-139h-117v-166h-78v444l0 0z m185-69h-106v-138h106c38-9 76 14 85 52 9 38-14 76-52 85-10 3-21 3-31 1h-2z" horiz-adv-x="1000" />

<glyph glyph-name="23" unicode="&#xe816;" d="M981 491h-78c-6 0-12-3-15-9l-68-131h-230l-36 35h91c4 0 7 1 10 3l37 29c7 6 8 18 2 25 0 1-1 1-2 2l-42 41c-3 3-7 5-12 5h-170c-43 18-89 28-136 29-45 1-89-10-128-31l-193-112c-4-2-7-7-8-12-2-5-2-10 0-14l117-161c3-4 8-7 14-7 3-1 6-1 9 0l68 43 93-16 312-29h8l277 40c6 1 10 4 13 10l84 176c1 2 1 5 0 7v57c0 5-2 9-5 12-2 4-7 7-12 8z m-17-69l-78-165-266-39-310 29-98 17 0 0c-3 1-6 1-9 0l-62-38-98 137 177 101c34 18 72 27 111 26 45 0 89-10 130-27h6 167l23-22-17-14h-129c-7 0-13-4-16-11-3-7-1-14 4-19l73-68c3-3 7-5 12-5h245c6 0 12 3 15 9l68 131h53v-34l0 0-1-8z" horiz-adv-x="1000" />

<glyph glyph-name="24" unicode="&#xe817;" d="M995 655c-1 7-8 12-16 11 0 0 0 0 0 0l-89-17c-24-5-45-20-57-42l0 0c-26-47-61-87-104-118-15-10-28-22-41-35l-128-128c-18-15-44-13-59 5-15 18-13 44 5 59l93 93c32 31 39 80 18 119-18 32-51 51-87 51h-10c-24-1-47-12-64-29l-60-60c-14-14-23-34-23-54v-40l-64-64 7 170c0 6 3 12 7 16l198 206c12 12 28 19 45 19h241c8-2 15 3 17 11 2 8-3 15-11 17-2 0-4 0-6 0h-241c-24 0-47-9-64-26l0 0-200-206c-9-9-14-22-15-35l-8-200-270-270c-5-5-5-14 0-19l228-229c5-5 14-5 19 0l469 469c5 5 5 14 0 19l-53 53 36 36c12 12 24 22 38 32 46 34 84 78 111 128l0 0c8 14 22 24 38 28l89 17c6 1 11 6 11 13z m-513-249c-28-26-29-69-3-97 25-27 66-29 94-6l0 0 40 40 17-17-379-379-155 155 379 379 41-41-34-34z m-11 195c12 12 29 20 46 21h10c27 0 51-14 64-37 15-29 10-64-13-86l-4-4-77 77c-5 5-14 5-19 0l-28-27v32l21 24z m-76-95c0 13 6 25 15 35l15 13v-32l-25-25v13l-5-4z m298-171l-448-448-209 209 448 448 68-68-15-15-51 51c-5 5-14 5-19 0l-399-399c-5-5-5-14 0-19l174-174c5-5 14-5 19 0l399 399c5 5 5 14 0 19l-26 26 15 15 44-44z m-282-75c-14 36-54 54-90 40-36-14-54-54-40-90 7-18 22-33 40-40 20-22 48-35 77-37 14 0 27 5 37 14 14 15 18 36 12 56-7 22-19 42-36 57z m4-94c-46-9-90 22-99 68-2 10-2 21 0 31 5 4 11 6 17 6 22-2 43-13 58-29 13-13 22-28 28-45 4-11 2-22-4-31l0 0z" horiz-adv-x="1000" />

<glyph glyph-name="25" unicode="&#xe818;" d="M984 365h-17c-7 247-206 445-453 453v17c0 8-7 15-15 14-8 0-14-7-14-14v-17c-247-8-446-206-454-453h-16c-8 0-15-7-15-15 0-8 7-15 15-15h17c8-247 206-445 453-453v-17c0-8 6-15 14-15 8 0 15 6 15 14 0 0 0 0 0 0v17c248 9 446 207 454 455h17c8 0 15 7 15 15-1 7-7 14-16 14l0 0 0 0z m-133 247l-125-125c-22 37-53 68-90 90l125 125c34-26 64-56 90-90l0 0z m-139-366v-3c-23-44-58-79-102-102h-3c-66-33-143-33-209 0h-3c-44 23-79 58-102 102v3c-33 66-33 143 0 209v3c23 44 58 79 102 102h3c66 33 143 33 209 0h3c44-23 79-58 102-102v-3c32-66 32-143 0-209l0 0z m-209-334c-84 0-167 24-237 70l128 128c70-32 150-32 219 0l128-128c-72-46-156-71-241-70h3z m0 877c84 0 167-24 237-70l-128-128c-70 32-150 32-219 0l-128 128c70 46 153 70 238 70l0 0 0 0z m-310-128c15 15 31 29 48 42l125-125c-37-22-68-53-90-90l-125 125c12 17 24 32 38 47l4 1z m-59-70l128-128c-32-70-32-150 0-219l-128-128c-92 143-94 327-3 472l3 3z m17-499l125 125c22-37 53-68 90-90l-125-125c-34 26-64 56-90 90l0 0z m662-48c-15-15-31-29-48-42l-125 125c37 22 68 53 90 90l125-125c-14-18-29-36-45-52l3 4z m59 69l-128 129c32 70 32 150 0 219l128 128c93-145 93-330 0-476l0 0 0 0z" horiz-adv-x="1000" />

<glyph glyph-name="26" unicode="&#xe819;" d="M639 846c-196 0-355-160-355-356 0-88 33-173 92-238l-48-48c-30 19-69 14-94-11l-206-208c-31-28-33-76-4-107 28-31 76-33 107-4 1 1 3 3 4 4l207 207c26 26 30 66 9 96l48 48c144-134 369-126 502 18 134 144 126 369-18 502-66 63-153 97-244 97z m-320-739l-207-207c-17-17-46-17-63 0-17 17-17 46 0 63l207 207c17 17 46 17 63 0 18-17 18-46 0-63l0 0 0 0z m320 58c-181 0-328 147-328 328s147 329 328 329 328-147 328-328c0-182-147-328-328-329l0 0z m277 423c-30 84-96 150-181 180-8 3-17-1-20-9s1-17 9-20c1 0 1 0 2-1 77-27 138-87 164-164 2-6 8-11 15-11h5c8 3 12 12 9 20-1 2-2 3-3 5z m-131-188l0 0-57 15c-4 1-7 2-10 5v31l0 0c19 23 30 52 30 82v23c15 44 15 92 0 136h-14c-18-1-36 1-53 7-34 14-73 12-106-7-34-3-59-33-56-67 3-28 8-55 16-82v-13c0-32 11-62 30-87v-34c-3-3-6-4-10-5l-57-15 0 0c-33-11-55-42-56-76v-16c1-19 17-33 35-33h328c19 0 34 14 35 33v16c6 39-18 75-55 87z m-146-31l-53 32c4 5 7 12 7 19v7c14-8 30-13 47-13 16 0 33 4 47 12v-6c0-7 3-14 7-20l-55-31z m-77 177c1 18 5 35 11 52 49-1 97-10 143-26v-8l0 0v-25c0-26-9-51-26-70l0 0c-13-15-31-23-51-24-47 7-80 49-77 96v5l0 0z m15 130h10c26 13 56 13 82 0 17-5 34-7 51-8 5-24 5-49 0-73-53 18-108 28-164 27h-14c0 7 0 13 0 20-2 18 12 33 29 35 2-1 5-1 6-1l0 0z m-103-371c-2-1-3-1-5 0v16c0 21 13 40 33 47l53 14 69-42v-38h-150l0 3z m335 0c-2-1-3-1-5 0h-152v38l70 41 52-13c20-7 33-26 33-47v-16l0 0 2-3z" horiz-adv-x="1000" />

<glyph glyph-name="27" unicode="&#xe81a;" d="M981 365h-17c-7 245-204 442-449 449v17c0 8-7 15-15 15-8 0-15-7-15-15v-17c-245-7-442-204-449-449h-17c-8 0-15-7-15-15s7-15 15-15h17c7-245 205-442 450-450v-17c0-8 7-15 15-15 8 0 15 7 15 15v17c245 7 442 205 450 450h17c8 0 15 7 15 15s-9 15-17 15l0 0z m-132 245l-124-124c-22 36-53 67-89 89l124 124c34-25 64-55 89-89l0 0z m-140-363l0 0c-23-43-58-78-101-101l0 0c-65-32-141-32-207 0l0 0c-43 23-78 58-101 101l0 0c-32 65-32 141 0 207l0 0c23 43 58 78 101 101l0 0c65 32 141 32 207 0l0 0c43-23 78-58 101-101l0 0c33-65 33-142 0-207l0 0z m-209-332c-85-1-167 23-238 69l127 127c69-32 149-32 218 0l127-127c-70-44-150-68-233-68l-1-1z m0 874c84 1 167-23 238-69l-127-127c-69 32-149 32-218 0l-127 127c71 46 154 70 238 69l0 0h-4z m-308-127c15 15 31 29 48 41l124-124c-36-22-67-53-89-89l-124 124c13 16 27 30 42 44l-1 4z m-58-72l127-127c-32-69-32-149 0-218l-127-127c-90 144-88 326 4 468l-4 4z m17-496l124 124c22-36 53-67 89-89l-124-124c-34 25-64 55-89 89l0 0z m657-48c-15-15-31-29-48-41l-124 124c36 22 67 53 89 89l124-124c-12-18-26-35-41-52l0 4z m58 72l-127 128c32 69 32 149 0 218l127 126c92-143 92-328 0-472l0 0 0 0z" horiz-adv-x="1000" />

<glyph glyph-name="28" unicode="&#xe81b;" d="M502 450c109 0 197 88 197 197s-89 197-197 197c-109 0-197-88-197-197l0 0c0-109 88-197 197-197z m0 334c77 0 139-62 139-139 0-77-62-139-139-139-77 0-139 62-139 139-1 77 60 139 137 140 1 0 1 0 2 0v-1z m-381-230c65 0 118 53 118 118 0 65-53 118-118 118-65 0-118-53-118-118s53-118 118-118l0 0z m0 177c33 0 60-27 60-60 0-33-27-60-60-60-33 0-60 27-60 60v0c-2 33 23 62 56 64 1 0 3 0 4 0v-4z m205-501h-93v172c0 59-48 107-107 107s-108-48-108-107l0 0v-238c0-57 46-103 103-103h122v-167c0-16 13-29 29-29h113c16 0 29 13 29 29v250c0 46-37 83-83 83l0 0-5 3z m29-308h-55v167c0 16-13 29-29 29h-150c-24 0-44 20-44 44v0 240c0 27 22 49 49 49 27 0 49-22 49-49v-200c0-16 13-29 29-29h123c16 0 29-13 29-29l-1-222 0 0z m524 632c65 0 118 53 118 118 0 65-53 118-118 118-65 0-118-53-118-118s53-118 118-118l0 0z m0 177c33 0 60-27 60-60 0-33-27-60-60-60-33 0-60 27-60 60v0c0 34 27 60 60 60l0 0z m0-222c-59 0-107-48-107-107v0-172h-93c-46 0-83-37-83-83v-250c0-16 13-29 29-29h113c16 0 29 13 29 29v166h122c57 0 103 46 103 103v236c0 59-48 107-107 107l0 0 0 0h-6z m48-345c0-24-20-44-44-44l0 0h-151c-16 0-29-13-29-29v-167h-54v220c0 16 13 29 29 29h123c16 0 29 13 29 29v200c0 27 22 49 49 49 27 0 49-22 49-49l-1-238 0 0 0 0z m-257 174c16-3 31 8 34 24 3 16-8 31-24 34-3 1-7 1-10 0h-334c-16 3-31-8-34-24-3-16 8-31 24-34 3-1 7-1 10 0h139v-448c-3-16 8-31 24-34 16-3 31 8 34 24 1 3 1 7 0 10v448h139-2z m-153 264c-19-5-39 0-53 13l-22-25c12-10 26-17 41-21v-19h33v18h14c17 7 29 22 31 40 4 19-6 38-23 47-15 7-32 11-48 13-5 0-10 3-13 8 0 6 3 11 8 14 8 5 18 5 27 0 6-2 12-5 17-9l11 13 11 13c-8 6-17 11-26 15h-8v16h-33v-16c-6-2-12-5-18-9-17-10-25-30-22-49 5-18 21-31 40-33 43-6 44-12 43-22-2-4-6-7-10-7z" horiz-adv-x="1000" />

<glyph glyph-name="29" unicode="&#xe81c;" d="M322 719v-257h-322v-374h126v-106l121 106h307v175h145l145-127v127h156v456h-680 2z m191-591h-281l-64-57v57h-127v290h281v-157h191v-135l0 0v2z m449 176h-157v-77l-88 77h-354v373h599l0-373 0 0 0 0z m-278 118c-23-5-48 1-65 17l-25-32c15-12 32-21 50-25v-22h41v20l16 4c21 8 36 26 38 49 4 23-8 46-29 56-19 8-38 13-59 15-6 0-12 4-15 9 0 7 4 14 11 17 10 6 22 6 32 0 7-3 14-7 20-12l13 16 13 16c-10 8-20 14-32 18h-9v19h-41v-17c-8-2-15-6-21-11-20-13-31-37-26-60 7-22 26-37 49-39 52-7 54-14 53-27-3-5-8-9-14-11z" horiz-adv-x="1000" />

<glyph glyph-name="30" unicode="&#xe81d;" d="M288 809h-263c-12 0-21-9-21-21v-876c0-12 9-21 21-21h263c12 0 21 9 21 21v876c0 12-9 21-21 21z m-21-876h-224v830h224v-830z m-112 92c44 0 80 36 80 80 0 44-36 80-80 80-44 0-80-36-80-80s36-80 80-80c0 0 0 0 0 0z m0 116c20 0 37-16 37-37 0-20-16-37-37-37s-37 16-37 37c0 21 16 37 37 37 0 0 0 0 0 0l0 0z m-56 495h117c12 0 21 9 21 21 0 12-9 21-21 21 0 0 0 0 0 0h-117c-12 0-21-10-21-21 0-12 9-21 21-21z m0-117h117c12 0 21 9 21 21 0 12-9 21-21 21 0 0 0 0 0 0h-117c-12 0-21-9-21-21-1-11 9-21 21-21-1 0 0 0 0 0z m532 290h-262c-12 0-21-9-21-21v-876c0-12 9-21 21-21h263c12 0 21 9 21 21v876c-1 12-10 21-22 21z m-21-876h-224v830h224v-830l0 0z m-112 92c44 0 80 36 80 80 0 44-36 80-80 80-44 0-80-36-80-80s36-80 80-80c0 0 0 0 0 0z m0 116c20 0 37-16 37-37 0-20-16-37-37-37-20 0-37 16-37 37 0 21 17 37 37 37 0 0 0 0 0 0l0 0z m-58 495h117c12 0 21 9 21 21 0 12-9 21-21 21 0 0 0 0 0 0h-117c-12 0-21-10-21-21 1-12 10-21 21-21l0 0z m0-117h117c12 0 21 9 21 21 0 12-9 21-21 21 0 0 0 0 0 0h-117c-12 0-21-9-21-21s10-21 21-21l0 0z m535 290h-263c-12 0-21-9-21-21v-876c0-12 9-21 21-21h263c12 0 21 9 21 21v876c0 12-9 21-21 21z m-21-876h-224v830h224v-830z m-111 92c44 0 80 36 80 80 0 44-36 80-80 80-44 0-80-36-80-80s36-80 80-80c0 0 0 0 0 0z m0 116c20 0 37-16 37-37 0-20-16-37-37-37-20 0-37 16-37 37 0 21 16 37 37 37 0 0 0 0 0 0l0 0z m-59 495h116c12 0 21 10 21 21 0 11-9 21-21 21h-116c-12 0-21-10-21-21 0-12 9-21 21-21z m0-117h116c12 0 21 9 21 21 0 12-9 21-21 21 0 0 0 0 0 0h-116c-12 0-21-9-21-21s9-21 21-21z" horiz-adv-x="1000" />

<glyph glyph-name="31" unicode="&#xe81e;" d="M922 772h-844c-43 0-78-35-78-78v-563c0-43 35-78 78-78h294l-24-96h-36c-8 0-15-7-15-15 0-8 7-15 15-15l0 0h375c8 0 15 7 15 15 0 8-7 15-15 15h-36l-24 96h294c43 0 78 35 78 78v563c1 43-34 78-77 78z m-844-30h845c27 0 48-22 48-48v-489h-941v489c0 27 21 49 48 48l0 0 0 0z m544-784h-244l24 96h198l22-96z m300 125h-844c-27 0-48 22-48 48v49h940v-48c0-26-21-48-48-49l0 0z m-626 222h407c25 0 46 21 46 46 0 0 0 0 0 0v250c0 25-21 46-46 46 0 0 0 0 0 0h-407c-25 0-46-21-46-46 0 0 0 0 0 0v-249c-1-25 19-47 45-48 0 1 1 1 1 1z m-16 296c0 9 8 17 17 17h407c9 0 17-8 17-17v-249c0-9-8-17-17-17h-408c-9 0-17 8-17 17v250-1z m48-234h140c8 0 15 7 15 15 0 8-7 15-15 15h-140c-8 0-15-7-15-15 0-8 7-15 15-15z m79 62c0-8 7-15 15-15h47c8 0 15 7 15 15 0 8-7 15-15 15h-47c-9 0-15-7-15-15l0 0z m-79-14h47c8 0 15 7 15 15 0 8-7 15-15 15h-47c-8 0-15-7-15-15 0-9 7-15 15-15z m342 29h-47c-8 0-15-7-15-15 0-8 7-15 15-15h47c8 0 15 7 15 15 0 8-7 15-15 15z m-140-29h47c8 0 15 7 15 15 0 8-7 15-15 15h-47c-8 0-15-7-15-15 1-9 7-15 15-15z m0-48h47c8 0 15 7 15 15 0 8-7 15-15 15h-47c-8 0-15-7-15-15 1-8 7-15 15-15z m-187 110h63c17 0 30 13 30 30v0 31c0 17-13 30-30 30h0-63c-17 0-30-13-30-30v0-31c0-17 14-30 30-30l0 0z m64 61v-31h-16v33h17l-1-2z m-65 0h18v-34h-17v31 3z m267-61h31c25 0 46 20 47 46s-20 46-46 47c0 0-1 0-1 0h-31c-25 0-46-21-46-47 1-26 21-46 46-46z m0 63h31c9 0 17-8 17-17 0-9-7-17-17-17h-31c-9 0-17 7-17 17 0 9 8 17 17 17 0 0 0 0 0 0z m-109-436c-16 0-29 13-29 29 0 16 13 29 29 29 16 0 29-13 29-29-1-17-14-29-29-29 0 0 0 0 0 0z" horiz-adv-x="1000" />

<glyph glyph-name="32" unicode="&#xe81f;" d="M662 98h-130c-9 0-16-7-16-16v-130c0-9 7-16 16-16h130c9 0 16 7 16 16v130c0 8-8 16-16 16z m-17-131h-99v99h99v-99z m-177 131h-130c-9 0-16-7-16-16v-130c0-9 7-16 16-16h130c9 0 16 7 16 16v130c0 8-7 16-16 16z m-16-131h-99v99h99v-99z m16 324h-130c-9 0-16-7-16-16v-130c0-9 7-16 16-16h130c9 0 16 7 16 16v130c0 9-7 16-16 16z m-16-130h-99v99h99v-99z m-178-63h-130c-9 0-16-7-16-16v-130c0-9 7-16 16-16h130c9 0 16 7 16 16v130c1 8-7 16-16 16z m-16-131h-99v99h99v-99z m598 452h-130c-9 0-16-7-16-16v-63c0-9 7-16 16-16h130c9 0 16 7 16 16v63c0 9-7 16-16 16z m-16-63h-99v33h99v-33l0 0z m-178-65h-130c-9 0-16-7-16-16v-130c0-9 7-16 16-16h130c9 0 16 7 16 16v130c0 9-8 16-16 16z m-17-130h-99v99h99v-99z m-371 130h-130c-9 0-16-7-16-16v-130c0-9 7-16 16-16h130c9 0 16 7 16 16v130c1 9-7 16-16 16z m-16-130h-99v99h99v-99z m404 258h-130c-9 0-16-7-16-16v-63c0-9 7-16 16-16h130c9 0 16 7 16 16v63c0 9-8 16-16 16z m-17-63h-99v33h99v-33l0 0z m211 493h-712c-44 0-80-36-80-80v0-839c0-44 36-80 80-80h0 712c44 0 80 36 80 80v0 839c0 44-36 80-80 80l0 0z m48-918c0-27-21-48-48-48h0-712c-27 0-48 21-48 48v0 838c0 27 21 48 48 48h0 712c27 0 48-21 48-48v0-838z m-48 360h-130c-9 0-16-7-16-16v-324c0-9 7-16 16-16h130c9 0 16 7 16 16v196c-2 9-11 14-20 12-6-1-11-6-12-12v-181h-99v293h99v-48c2-9 11-14 20-12 6 1 11 6 12 12v63c1 9-6 17-16 17 1 0 0 0 0 0z m0 473h-712c-9 0-16-7-16-16v-257c0-9 7-16 16-16h130c9 2 14 11 12 20-1 6-6 11-12 12h-114v224h680v-229h-502c-9-2-14-11-12-20 1-6 6-11 12-12h514c9 0 16 7 16 16v258c3 9-2 18-11 20 0 0-1 0-1 0z m-128-96h66c9-2 18 3 20 12 2 9-3 18-12 20-2 1-5 1-7 0h-63c-9 3-18-2-20-11-3-9 2-18 11-20 1-1 3-1 5-1z m0-127h66c9 2 14 11 12 20-1 6-6 11-12 12h-63c-9-1-15-9-14-18 1-7 5-12 11-14z m-19 59c2-9 11-14 20-12 6 1 11 6 12 12v45c-2 9-11 14-20 12-6-1-11-6-12-12v-43-2z" horiz-adv-x="1000" />

<glyph glyph-name="33" unicode="&#xe820;" d="M886 475v54h84l8 25-470 295h-14l-470-295 6-25h84v-54l13-13h50c-27-97-65-319-8-420h-40l-13-13v-67h-55l-13-13v-84l13-13h885l13 13v84l-13 13h-54v67l-12 13h-40c50 100 17 321-7 420h47l6 13z m-813 84l420 266 420-266h-846 6z m124-94h60c17-69 27-139 32-209 11-70 1-143-29-207h-70c-62 70-24 311 6 413v3z m84 0h162c-27-97-65-319-8-420h-139c47 101 13 321-10 416l-5 4z m244 0c17-69 27-139 32-209 11-70 1-143-29-207h-68c-64 74-25 315 0 420h67l-2-4z m397-524v-54h-859v54h859z m-67 27h-725v54h724v-54z m-296 84c50 100 17 321-7 420h153c-27-97-65-319-8-420h-138l0 0z m266 207c11-70 1-143-29-207h-68c-64 74-25 315 0 420h60c20-72 33-145 40-219l-3 6z m30 236h-725v40h724v-40z" horiz-adv-x="1000" />

<glyph glyph-name="34" unicode="&#xe821;" d="M565 10l-15 5c-5 2-12 2-17 0l-32-15-31 15c-5 2-12 2-17 0l-15-5c-27-9-45-34-45-63v-70c0-13 11-24 24-24l0 0h170c13 0 24 11 24 24v0 70c-1 29-19 54-46 63l0 0z m-139 94c0-41 33-75 75-75s75 33 75 75c0 41-33 75-75 75s-75-33-75-75l0 0 0 0z m-11 420h170c13 0 24 11 24 24v0 70c0 28-18 54-45 63l-15 5c-5 2-12 2-17 0l-32-16-31 15c-5 2-12 2-17 0l-16-5c-27-9-45-34-45-63v-70c0-13 11-23 24-23l0 0z m85 178c41 0 75 33 75 75s-33 74-75 74-75-33-75-75 34-74 75-74l0 0z m-296-692l-15 5c-5 2-12 2-17 0l-31-15-33 10c-5 2-12 2-17 0l-15-5c-28-9-46-34-46-63v-70c0-13 11-24 24-24l0 0h170c13 0 24 11 24 24v0 70c0 28-18 54-45 63l0 0 1 5z m-64 20c41 0 75 33 75 75 0 41-33 75-75 75s-75-33-75-75c0-42 33-75 75-75l0 0z m785-20l-15 5c-5 2-12 2-17 0l-32-15-31 15c-5 2-12 2-17 0l-16-5c-27-9-45-34-45-63v-70c0-13 11-24 24-24l0 0h170c13 0 24 11 24 24v0 70c0 29-18 54-45 63l0 0z m-139 94c0-41 33-75 75-75s75 33 75 75c0 41-33 75-75 75s-75-33-75-75l0 0 0 0z m-646 136c16 0 29 13 29 29v58h303v-62c0-16 13-29 29-29 16 0 29 13 29 29v58h303v-58c0-16 13-29 29-29 16 0 29 13 29 29v85c0 16-13 29-29 29h-330v80c0 16-13 29-29 29-16 0-29-13-29-29v-80h-332c-16 0-29-13-29-29v-85c0-16 13-29 29-29l0 0-2 4z" horiz-adv-x="1000" />

<glyph glyph-name="35" unicode="&#xe822;" d="M985 846h-718c-9 0-16-7-16-16v-63h-117c-9 0-16-7-16-16 0-1 0-1 0-2l6-45h-107c-9 0-16-7-16-16 0-1 0-3 1-4l238-819c2-7 8-11 15-11h728c9 0 16 7 16 16v960c0 8-6 15-14 16z m-734-110v-727l-98 727h98z m-122-63l78-579-168 579 90 0 0 0z m840-788h-689v929h687v-929l0 0h2z m-412 805h-252v70h252v-70l0 0z m388 0h-252v70h252v-70l0 0z m-372 35c0 29 24 53 53 53 29 0 53-24 53-53 0-29-24-53-53-53-29 0-53 23-53 53-1 0-1 0 0 0l0 0z m336-383h-212v238h212v-238l0 0z m-314 203h-261v26h261v-26z m-261-74h261v-26h-261v26z m0-102h261v-26h-261v26z m0-103h575v-26h-575v26z m0-104h575v-26h-575v26z m0-101h575v-26h-575v26z" horiz-adv-x="1000" />

<glyph glyph-name="36" unicode="&#xe823;" d="M596 314v34c134-48 282 23 329 158 47 135-24 282-158 329s-282-23-329-158c-8-22-13-46-14-70h-80c-76 0-137-61-137-137 0-3 0-6 0-9l9-146c0-60 25-118 69-159v-26l-28-43-134-36c-37-10-63-44-63-82v-68c0-28 23-51 51-51h588c28 0 51 23 51 51v68c0 38-26 72-63 82l-134 36-28 43v26c45 41 70 99 69 159l0 0 2-1z m-146-299l0 0-22 22 73 63 18-28-52-77 0 0-12 16 0 0-5 4z m-92 0l-20-20 0 0-52 77 18 28 73-63-22-22 0 0h3z m46 44l-86 73c54-30 119-30 173 0l-87-73z m0-124h4l11-54h-31l11 54h5l0 0z m18 51c0-10-8-18-18-18s-18 8-18 18v10l18 18 18-18v-10z m258 832c125-2 225-105 223-230s-105-225-230-223c-26 0-52 5-77 15l5 80c0 0 0 7 0 10 9-5 18-8 27-11v-8c0-9 7-16 16-16 9 0 16 7 16 16 0 0 0 0 0 1l0 0h36l0 0c0-9 7-16 16-16 9 0 16 7 16 16 0 0 0 0 0 1v8c38 12 60 53 48 91-7 23-25 41-48 48v87c18-4 32-18 36-36 0-9 7-16 16-16 9 0 16 7 16 16-4 37-32 67-69 73v8c0 9-7 16-16 16-9 0-16-7-16-16l0 0h-36l0 0c0 9-7 16-16 16-9 0-16-7-16-16v-8c-38-12-60-53-48-91 7-23 25-41 48-48v-87c-14 5-27 13-36 24-20 53-72 88-128 88h-8c9 117 108 208 225 208l0 0 0 0z m-18-122h36v-88h-36v87 1z m-32-79c-20 0-36 16-36 36s16 37 36 37v-73z m51-41h18v-87h-36v88h18v-1z m51-9c20 0 36-16 36-36s-16-36-36-36v72l0 0z m-465-24c19 20 45 32 73 33h123c58 0 105-48 105-106 0-2 0-4 0-6v-49c-8 17-18 33-29 48-4 6-12 8-19 5-77-23-156-34-236-34-3 1-7 1-10 0-12-10-22-22-31-36l-4 68c-2 29 8 57 28 78l0 0 0-1z m-19-228c3 33 18 65 42 88 78 0 155 11 230 31 24-35 39-76 42-119 8-87-55-164-142-172-87-8-164 55-172 142-2 10-2 21 0 30l0 0 0 0z m-156-415v68c0 24 16 45 39 51l128 35 51-73c6-8 15-14 25-15l0 0c7 0 13 2 19 6 3-8 7-14 13-20l-14-68h-146v53c0 9-7 16-16 16-9 0-16-7-16-16v-53h-73c-10 0-18 8-18 18l0 0 8-2z m625 68v-68c0-10-8-18-18-18h-73v53c0 9-7 16-16 16-9 0-16-7-16-16v-53h-146l-14 68c6 5 10 12 13 20 6-4 12-6 19-6l0 0c10 1 19 6 25 15l51 73 128-36c23-7 39-27 39-51l0 0 8 3z" horiz-adv-x="1000" />

<glyph glyph-name="37" unicode="&#xe824;" d="M313 421c0-55 20-108 54-151 53-74 157-90 230-36 14 10 26 22 36 36 35 43 54 96 54 151v48c11 46 17 94 17 141 1 29-2 58-9 86-2 7-9 11-16 11h-4c-35-2-69 2-103 11-60 21-126 17-183-11l0 0c-27 0-53-12-71-33-18-22-27-49-26-77 4-52 12-103 24-153v-25l0 0-3 2z m297-131c-43-60-126-75-186-32-13 9-23 20-32 32-30 37-47 83-47 131v18c4 39 17 76 36 110 86 12 175 1 255-33l21-49v-47c0-49-17-96-48-134l1 4z m-221 388l0 0c4-2 9-2 13 0 51 25 109 28 162 8 29-7 60-11 90-13h13c8-51 8-103 0-153l-4 11c-1 3-4 6-7 8-89 40-187 53-283 37-5 0-10-3-13-8-10-18-19-37-26-56-6 28-9 55-10 83-7 38 19 75 57 82 3 1 5 1 8 1l0 0z m379-510l0 0-93 19-25 37 0 0c-9 12-26 15-39 6 0 0-1-1-1-1l0 0-110-95-110 95 0 0c-12 10-29 8-39-4 0 0-1-1-1-1l0 0-25-37-93-19 0 0c-27-8-51-25-66-48-15-22-23-48-23-75v-29c1-27 24-48 51-47 0 0 0 0 0 0h616c27-1 50 20 51 47 0 0 0 0 0 0v29c0 27-8 53-23 75-17 24-42 41-70 48z m-141 35l19-30-78-107-46 46 105 91z m-138-172h21l6-31h-33l6 31z m27 39c1-4-1-7-5-8h-21c-3 1-6 5-5 8v4l16 16 16-16v-6l0 0-1 2z m-142 133l105-90-46-46-78 107 19 29z m-200-188v29c0 42 27 79 66 93l88 18 88-122c3-4 7-6 11-6l0 0c4 0 8 1 11 4l18 18v-4l-9-47h-257c-9 0-17 8-18 17l2 0z m655 0c-1-10-10-16-20-16h-260l-9 47v4l18-18c3-3 7-4 11-4l0 0c5 0 9 3 11 6l90 122 88-18c40-13 67-51 66-93v-29l0 0 5-1z m-704 377c-1-37 12-72 36-100 22-26 55-41 89-42 26 0 51 9 71 25 7 5 8 15 3 22-5 7-15 8-22 3l0 0c-15-12-33-18-52-18-57 5-99 54-95 111v9c2 24 7 48 16 71 30 2 59 0 88-5h5c9 0 15 7 15 16 0 8-7 15-15 15l0 0c-35 6-71 8-106 4h-12l0 0 0 0v-8c-1 9-1 18 0 27-5 22 9 43 30 48 1 0 2 0 2 0h4c3-1 6-1 9 0 18 12 40 16 61 12 9 0 16 7 16 15 0 9-7 16-15 16 0 0 0 0-1 0-27 4-55-1-78-15-39-4-67-39-63-77 0-1 0-2 0-2 2-35 8-70 16-104v-16l-2-7z m-16-283h-71c-4 0-7 2-8 6v20c0 27 16 50 42 59l57 12 29-42c6-7 15-7 22-2 6 5 7 13 4 20l-29 42 8 13 61-45c6-6 16-6 22 0 6 6 6 16 0 22-1 1-2 2-3 3l-66 50c-10 8-25 6-33-4 0 0 0 0 0-1l0 0-16-23-62-13 0 0c-40-12-66-48-66-89v-20c1-21 18-38 40-37 0 0 0 0 0 0h70c8 4 11 13 7 21-2 4-5 7-8 8z m624 484c24-1 47-4 71-8 18 0 36-6 52-7 0-37 0-71-6-97l0 0c-35 20-75 32-116 33-9 0-15-7-15-16 0-8 7-15 15-15 34-2 68-11 98-27 8-18 12-37 12-56v-9c4-57-38-106-95-111-19 0-37 7-52 18-7 5-17 4-22-3-5-7-4-17 3-22 20-16 45-25 71-25 34 0 67 16 89 42 24 28 37 64 36 100v17c10 60 15 120 16 180 2 8-2 17-11 19-1 0-3 1-4 1l0 0c-21 1-41 3-62 7-25 5-51 8-77 9-9 1-16-5-17-14-1-7 5-15 14-16z m201-369l0 0-62 13-15 23 0 0c-8 10-22 12-33 5 0 0 0 0-1 0l-66-50c-6-6-6-16 0-22 5-5 13-6 19-3l61 45 8-13-29-42c-6-7-5-16 2-22 7-6 16-5 22 2 1 1 1 1 2 2l29 42 57-12c25-8 42-32 42-59v-20c-1-4-5-6-8-6h-72c-9 0-16-7-16-15 0-9 7-16 15-16 0 0 0 0 1 0h70c21-1 39 16 40 37 0 0 0 0 0 0v20c1 41-26 79-66 91z" horiz-adv-x="1000" />

<glyph glyph-name="38" unicode="&#xe825;" d="M426 775h324c14 0 25 11 25 25l0 0c0 14-11 25-25 25h-324c-14 0-25-11-25-25l0 0c0-14 11-25 25-25z m-25-73c0-14 11-25 25-25h435c14 0 25 11 25 25l0 0c0 14-11 25-25 25h-435c-14 1-25-11-25-25l0 0z m0-98c0-14 11-25 25-25h435c14 0 25 11 25 25l0 0c0 14-11 25-25 25h-435c-14 0-25-11-25-25l0 0z m0-148c0-14 11-25 25-25h324c14 0 25 11 25 25l0 0c0 14-11 25-25 25h-323c-14 1-25-11-26-25l0 0 0 0z m0-98c0-14 11-25 25-25h234c14 0 25 11 25 25l0 0c0 14-11 25-25 25h-234c-14 0-25-11-25-25l0 0z m0-98c0-14 11-25 25-25h435c14 0 25 11 25 25l0 0c0 14-11 25-25 25h-435c-14 1-25-11-25-25l0 0z m0-168c0-14 11-25 25-25h423c14 0 25 11 25 25l0 0c0 14-11 25-25 25h-423c-14 0-25-12-25-25l0 0z m0-95c0-14 11-25 25-25h366c14 0 25 11 25 25l0 0c0 14-11 25-25 25h-366c-14 0-25-11-25-25l0 0z m0-96c0-14 11-25 25-25h169c14 0 25 11 25 25l0 0c0 14-11 25-25 25h-167c-14 0-25-11-25-25l0 0h-2z m-287 786v-131h206v131c0 11-10 20-21 20 0 0 0 0 0 0h-23c-4 0-8-2-10-5l-36-45-8 17 14 26c1 3 0 6-3 7-1 0-2 0-2 0h-27c-3 0-6-2-6-5 0-1 0-2 0-2l14-26-8-17-34 45c-3 3-6 5-10 5h-25c-12 0-21-9-21-20z m104 35c35 0 64 29 64 64s-29 64-64 64c-35 0-64-29-64-64 0-36 29-64 64-64l0 0z m-104-510h206v131c0 11-10 20-21 20 0 0 0 0 0 0h-23c-4 0-8-2-10-5l-36-45-8 17 14 26c1 3 0 6-3 7-1 0-2 0-2 0h-27c-3 0-6-2-6-5 0-1 0-2 0-2l14-26-8-17-34 45c-3 3-6 5-10 5h-25c-11 0-21-9-21-20 0 0 0 0 0 0l0-131 0 0 0 0z m41 229c0-35 29-64 64-64s64 29 64 64c0 35-29 64-64 64-36 0-64-29-64-64l0 0z m165-459c0 11-10 20-21 20 0 0 0 0 0 0h-23c-4 0-8-2-10-5l-36-45-8 17 14 26c1 3 0 6-3 7-1 0-2 0-2 0h-27c-3 0-6-2-6-5 0-1 0-2 0-2l14-26-8-17-34 45c-3 3-6 5-10 5h-25c-11 0-21-9-21-20 0 0 0 0 0 0v-132h206l0 132 0 0 0 0z m-165 97c0-35 29-64 64-64s64 29 64 64c0 35-29 64-64 64-36 0-64-28-64-64l0 0z" horiz-adv-x="1000" />

<glyph glyph-name="39" unicode="&#xe826;" d="M500 840c-271 0-490-219-490-490s219-490 490-490c271 0 490 219 490 490l0 0c0 270-220 490-490 490z m0-936c-246 0-446 200-446 446s200 446 446 446 446-200 446-446c-1-246-200-445-446-446l0 0z m3 748c-40 0-79-10-114-29l13-34c26 14 55 22 85 22 48 6 91-28 97-75 1-5 1-10 1-15-5-50-29-97-66-131-37-39-57-92-53-146v-12h46v11c-2 52 18 103 55 140 43 38 71 91 77 149 0 67-54 122-122 122-6-1-12-1-19-2z m-13-514c-24 2-45-17-47-41-2-24 17-45 41-47 24-2 45 17 47 41 0 1 0 1 0 2 2 23-14 43-37 45-1 0-3 0-4 0z" horiz-adv-x="1000" />

<glyph glyph-name="40" unicode="&#xe827;" d="M452 584c-10 0-18-8-18-18v-152h-56c-9 2-19-4-21-13-2-9 4-19 13-21 2-1 5-1 7 0h76c10 0 18 8 18 18v168c0 10-8 18-17 18-1 0-1 0-2 0z m-242-187c0 10-8 18-18 18h-49c-9 2-19-4-21-13-2-9 4-19 13-21 2-1 5-1 7 0h49c11-1 19 7 19 16z m482 0c0-10 8-18 18-18h49c9 2 15 11 13 21-1 7-7 12-13 13h-49c-10 1-17-6-18-16z m-240 324c-10 0-18-8-18-18v-49c-2-9 4-19 13-21 9-2 19 4 21 13 1 2 1 5 0 7v49c0 10-7 18-16 19z m0-564c-10 0-18-8-18-18v-49c-2-9 4-19 13-21 9-2 19 4 21 13 1 2 1 5 0 7v48c1 11-7 19-16 20 0 0 0 0 0 0z m-258 111l-16-9c-9-3-14-13-10-22s13-14 22-10c2 1 4 2 5 3l16 9c7 6 8 17 2 25-5 4-12 6-19 4l0 0z m507 255c3-1 6-1 8 0l16 9c7 6 8 17 2 25-5 6-12 8-19 5l-16-9c-8-5-10-16-5-24 3-4 8-7 13-8l0 0 1 2z m-389 148c-6 7-17 8-25 2-6-5-8-12-5-19l9-16c3-9 13-14 22-10s14 13 10 22c-1 2-2 4-3 5l-8 16 0 0z m4-508c-8 5-19 2-24-6l-9-16c-6-7-5-18 2-25 7-6 18-5 25 2 1 2 2 3 3 5l9 16c5 8 2 19-6 24z m270 469c8-5 19-2 24 6l9 16c6 7 5 18-2 25-7 6-18 5-25-2-1-2-2-3-3-5l-9-17c-4-8-2-19 6-23l0 0z m-376-77l-16 9c-7 6-18 5-25-2-6-7-5-18 2-25 2-1 3-2 5-3l16-9c9-3 19 1 22 10 4 8 2 16-4 20z m684-251c52 244-104 484-349 536s-484-105-536-349 104-484 348-536c63-13 128-13 190 1 79-112 235-139 347-60s139 235 60 347c-16 24-36 44-60 61l0 0z m-442-325c-231 0-418 187-418 418s187 418 418 418c230 0 418-187 418-418 0-25-2-50-7-75l-27 11c35 212-109 413-321 448-212 35-413-108-448-321-35-212 109-413 321-448 43-7 87-7 130 0 3-9 7-18 11-27-25-5-51-7-76-8l0 0-1 2z m51 120c0-18 2-35 5-53-193-31-375 101-406 294s101 375 294 406 375-101 406-294c6-36 6-74 0-110-134 28-266-59-294-194-4-16-5-33-5-49l0 0 0 0z m249-215c-119 0-215 96-215 215s96 215 215 215c119 0 215-96 215-215v0c0-119-96-216-215-215l0 0z m0 403c-104 0-188-84-188-188 0-104 84-188 188-188 104 0 188 84 188 188v0c-1 103-85 187-188 188z m0-342c-84 0-152 68-152 152s67 153 152 153 152-68 152-152-68-153-152-153z m29 200c2-9 11-15 21-13 7 1 12 7 13 13 0 29-19 54-46 62v8c2 9-4 19-13 21-9 2-19-4-21-13-1-2-1-5 0-7v-7c-34-9-54-45-45-79 6-22 23-39 45-45v-56c-8 6-12 15-12 24-2 9-11 15-21 13-7-1-12-7-13-13 0-29 19-54 46-62v-5c-2-9 4-19 13-21 9-2 19 4 21 13 1 2 1 5 0 7v7c34 9 54 45 45 79-6 22-23 39-45 45v56c9-6 13-16 12-27z m-59 0c0 10 4 19 12 24v-48c-7 6-11 15-12 24l0 0z m59-93c0-10-4-19-12-24v48c8-6 12-15 12-24l0 0 0 0z" horiz-adv-x="1000" />

<glyph glyph-name="41" unicode="&#xe828;" d="M500 515c9 0 17 8 17 17s-8 17-17 17-17-8-17-17 8-17 17-17z m435-636l-380 381c16 26 26 57 29 90l35 35c15-3 29-4 45-4 128 0 232 104 232 232 0 15-2 30-4 45l44 44-23 23-33-31c-33 88-118 150-217 150-123 0-224-96-231-217h-72c-34 0-66-14-90-39-7-8-13-16-18-25l-163 163-23-23 174-174c-2-11-3-22-2-33l8-133c0-57 24-109 62-143v-23l-27-37-120-33c-33-9-56-39-56-74v-61c0-20 12-37 30-43l-70-70 23-23 91 91h500c25 0 46 20 46 46v51l187-187 23 22z m-401 402l-10 10 24 24c-3-12-8-23-14-34z m-121-101c1 0 1 0 2 0 27 0 54 7 77 20l-77-65-26 22 24 23z m-49-2l-26 22c11-6 22-11 34-14l-8-8z m79 32l57 57 14-14c-19-21-43-36-71-43z m57 104l-130 130c44 3 103 10 148 26 12-17 35-58 37-101l-55-55z m366 298c0-112-91-202-203-202-6 0-13 0-19 1l221 221c1-7 1-13 1-20z m-203 203c91 0 169-61 194-144l-252-253c-6 2-11 3-17 6l5 72c0 3 0 6 0 9l-8 43c-6 15-14 28-25 40-9 9-18 17-29 23 11 8 21 17 21 35 0 22-19 39-50 39-11 0-21-3-31-7 27 80 103 137 192 137z m-193-188h-9c0 6 1 11 2 17l1-1c8 10 19 17 34 17 17 0 24-8 24-18 0-9-7-15-15-21-12 4-24 6-37 6z m-179-59c18 19 42 30 69 30h110c5 0 9 0 14-1-1-3-2-6-2-10 0-8 3-15 9-21l22 7c-3 3-5 7-5 11 0 2 0 4 1 5 11-5 21-12 30-21 18-19 27-44 25-70l-3-44c-12 25-25 42-26 43-4 5-11 7-17 5-50-21-130-27-176-29l-68 68c4 10 9 19 17 27z m-26-70c0 2 0 3 0 5l33-33c0 0-1 0-1-1-1-1-14-12-28-32l-4 61z m9-135c4 43 29 71 38 79 3 0 8 0 14 0l151-151-82-82c-68 11-121 76-121 154z m50-192l18-15-25-25-10 15 17 25z m-174-197c-8 1-16 9-16 18v61c0 21 14 40 35 46l115 31 13-19-75-75c-3-2-6-4-7-7l-55-55h-10z m57 0l6 6v-6h-6z m165 0h-129v36l73 73 14-22c5-8 13-12 22-13 1 0 2 0 3 0 6 0 12 2 17 5 3-7 7-13 12-18l-12-61z m1 121l-18-18c0 0 0 0-1 0h-1l-17 26 32 32 25-21-20-19z m29-120l10 49c0 0 1 0 3 0 1 0 2 0 4 0l10-49h-27z m29 94c0-9-7-16-16-16s-16 7-16 16v9l16 16 16-16v-9z m73 103l17-25-46-69c0 0 0 0-1 0h-1l-17 17-20 20 68 57z m191-180c0-9-7-16-16-16h-63v48c0 8-7 15-15 15-8 0-15-7-15-15v-48h-128l-12 61c5 5 9 11 12 18 5-3 11-5 17-5 1 0 2 0 3 0 9 1 17 6 22 13l46 69 114-33c21-6 35-25 35-46v-61z m-146 168l-26 38v23c4 4 8 8 12 12l96-96-82 23z" horiz-adv-x="1000" />

<glyph glyph-name="42" unicode="&#xe829;" d="M901 667h-526c-7 39-42 68-82 68h-134c-57-40-107-90-147-147v-539c0-46 37-83 83-83l0 0h811c46 0 83 37 83 83l0 0v535c0 46-37 83-83 83-2 0-4 0-5 0z m-742 36h135c28 0 52-23 52-52l0 0v-539c0-28-23-52-52-52h-135c-28 0-52 23-52 52v540c0 27 22 50 49 51l3 0z m742-709h-811c-28 0-52 23-52 52v538c0 23 15 43 36 49v-522c0-46 37-83 83-83l0 0h135c46 0 83 37 83 83l0 0v525h525c28 0 52-23 52-52v-539c0-28-23-51-51-51z m-70 590h-338c-27 0-49-22-49-49 0 0 0 0 0 0v-68c0-27 22-49 49-49 0 0 0 0 0 0h337c27 0 49 22 49 49 0 0 0 0 0 0v68c1 27-21 49-48 49 0 0 0 0 0 0z m18-117c0-10-8-18-18-18h-338c-10 0-18 8-18 18v68c0 10 8 18 18 18h337c10 0 18-8 18-18v-68z m-305-86c-27 0-49-22-49-49 0-27 22-49 49-49 27 0 49 22 49 49 1 26-22 49-49 49 0 0 0 0 0 0z m0-68c-10 0-18 8-18 18 0 10 8 18 18 18 10 0 18-8 18-18l0 0c0-10-8-18-18-18z m119 68c-27 0-49-22-49-49 0-27 22-49 49-49 27 0 49 22 49 49 0 26-22 49-49 49 0 0 0 0 0 0z m0-68c-10 0-18 8-18 18 0 10 8 18 18 18 10 0 18-8 18-18l0 0c0-10-8-18-18-18z m118 68c-27 0-49-22-49-49 0-27 22-49 49-49 27 0 49 22 49 49 0 26-22 49-49 49 0 0 0 0 0 0z m0-68c-10 0-18 8-18 18 0 10 8 18 18 18 10 0 18-8 18-18l0 0c-1-10-8-18-18-18z m-237-51c-27 0-49-22-49-49 0-27 22-49 49-49 27 0 49 22 49 49 1 27-22 49-49 49 0 0 0 0 0 0z m0-68c-10 0-18 8-18 18s8 18 18 18c10 0 18-8 18-18l0 0c-1-10-8-17-18-18l0 0z m119 68c-27 0-49-22-49-49 0-27 22-49 49-49 27 0 49 22 49 49 0 27-22 49-49 49 0 0 0 0 0 0z m0-68c-10 0-18 8-18 18s8 18 18 18c10 0 18-8 18-18l0 0c-1-10-9-17-18-18l0 0z m118 68c-27 0-49-22-49-49 0-27 22-49 49-49 27 0 49 22 49 49 0 27-22 49-49 49 0 0 0 0 0 0z m0-68c-10 0-18 8-18 18s8 18 18 18c10 0 18-8 18-18l0 0c-1-10-9-17-18-18l0 0z m-237-52c-27 0-49-22-49-49 0-27 22-49 49-49 27 0 49 22 49 49 1 27-22 49-49 49 0 0 0 0 0 0z m0-68c-10 0-18 8-18 18 0 10 8 18 18 18 10 0 18-8 18-18l0 0c-1-9-9-15-18-15v-3z m119 68c-27 0-49-22-49-49 0-27 22-49 49-49 27 0 49 22 49 49 0 27-22 49-49 49 0 0 0 0 0 0z m0-68c-10 0-18 8-18 18 0 10 8 18 18 18 10 0 18-8 18-18l0 0c-1-9-9-15-18-15v-3z m118 68c-27 0-49-22-49-49 0-27 22-49 49-49 27 0 49 22 49 49 0 27-22 49-49 49 0 0 0 0 0 0z m0-68c-10 0-18 8-18 18 0 10 8 18 18 18 10 0 18-8 18-18l0 0c-1-9-9-15-18-15v-3z" horiz-adv-x="1000" />
</font>
</defs>
</svg>
