<svg xmlns="http://www.w3.org/2000/svg" id="Слой_1" data-name="Слой 1" xmlns:xlink="http://www.w3.org/1999/xlink" viewBox="0 0 179.12 81.19"><defs><style>.cls-1 {fill: #487857;}.cls-2 {fill: #4b7ab0;}.cls-3 {fill: #303843;}.cls-4 {fill: #fff;}.cls-5 {fill: url(#linear-gradient);}.cls-6 {fill: url(#linear-gradient-2);}</style><linearGradient id="linear-gradient" x1="677.08" x2="681.08" y1="852.36" y2="852.36" gradientUnits="userSpaceOnUse"><stop offset="0" stop-color="#ffdd79"/><stop offset=".32" stop-color="#ffda76"/><stop offset=".57" stop-color="#ffd16c"/><stop offset=".79" stop-color="#ffc15c"/><stop offset="1" stop-color="#ffac45"/></linearGradient><linearGradient id="linear-gradient-2" x1="159.33" x2="175.72" y1="45.57" y2="61.96" xlink:href="#linear-gradient"/></defs><circle cx="44.43" cy="27.3" r="1.65" class="cls-1"/><circle cx="112.3" cy="27.3" r="1.65" class="cls-2"/><path d="M125.26 24.7L115.08 2.51a3.07 3.07 0 0 0-4.18-1.46L99.82 6.68a3.06 3.06 0 0 0-1.65 2.36l-13-3.37a5.64 5.64 0 0 0-3.2.1 65.27 65.27 0 0 0-10 4.18 8 8 0 0 0-3.54 3.26 4.38 4.38 0 0 0-.36 2.48 8.1 8.1 0 0 1 0 1.86 9.17 9.17 0 0 1-1.28 3.64 3.13 3.13 0 0 0-.5 2.88 5.42 5.42 0 0 0 4.79 3.55c2.43.06 4-1.91 5-3.08a10.47 10.47 0 0 0 2-4.21 4.61 4.61 0 0 0 3.28-.6 14.13 14.13 0 0 0 5.93 7.32 13.64 13.64 0 0 0 7.08 1.92 14.72 14.72 0 0 0 4.54-.7 1.06 1.06 0 0 0-.68-2 11.72 11.72 0 0 1-15.34-8.1 1.38 1.38 0 0 0-2.31-.6 2.53 2.53 0 0 1-2.58.65 1.62 1.62 0 0 0-2.07 1.27 8.3 8.3 0 0 1-1.67 3.78c-.77 1-1.82 2.28-3.19 2.28h-.05a3.3 3.3 0 0 1-2.84-2.1c-.12-.34-.09-.43.32-1.14a11.29 11.29 0 0 0 1.54-4.37 10.13 10.13 0 0 0 .07-2.31 2.53 2.53 0 0 1 .12-1.37 6 6 0 0 1 2.68-2.39 63.15 63.15 0 0 1 9.69-4 3.53 3.53 0 0 1 2-.06l14.13 3.65 9.51 20.86-5 3.17a1.06 1.06 0 1 0 1.08 1.68l5-3.13a3.08 3.08 0 0 0 3.73.61l10.91-6a3.08 3.08 0 0 0 1.3-3.95zm-2.33 2.12l-10.92 6a1 1 0 0 1-1.26-.32l-.24-.37-9.61-21.09a1 1 0 0 0 .08-.17 1 1 0 0 0-.68-1.25.94.94 0 0 1 .48-1l11.08-5.63a1 1 0 0 1 1.3.45l10.16 22.15a1 1 0 0 1-.39 1.23zM78.84 45.17a3.73 3.73 0 0 0-1.86-.5h-.12a4.34 4.34 0 0 0-4.28-5.11 4.37 4.37 0 0 0-2.93 1.14 4.35 4.35 0 0 0-4.33-4.8 4.36 4.36 0 0 0-2.41.74 3.71 3.71 0 0 0-3.71-3.77 3.74 3.74 0 0 0-3.23 1.86l-1.84 3.18a3.71 3.71 0 0 0 4.48 5.36 4.34 4.34 0 0 0 7 4.78 4.35 4.35 0 0 0 6.51 4.21 3.69 3.69 0 0 0 1.57 1.82 3.73 3.73 0 0 0 5.09-1.36l1.42-2.47a3.73 3.73 0 0 0-1.36-5.08zm-21.47-3.78a1.61 1.61 0 0 1-1.39-2.41l1.84-3.18a1.61 1.61 0 1 1 2.79 1.61l-1.84 3.18a1.61 1.61 0 0 1-1.4.81zm5.31 5.69a2.24 2.24 0 0 1-1.94-3.36l2.64-4.57a2.24 2.24 0 0 1 3.88 2.24l-2.64 4.57a2.24 2.24 0 0 1-1.94 1.13zm7.25 3.66a2.24 2.24 0 0 1-1.94-3.36l2.64-4.57a2.24 2.24 0 0 1 3.06-.82 2.24 2.24 0 0 1 .82 3.06l-2.64 4.57a2.24 2.24 0 0 1-1.93 1.14zm8.44-1.54l-1.42 2.47a1.61 1.61 0 1 1-2.79-1.61l1.42-2.47a1.61 1.61 0 1 1 2.79 1.58z" class="cls-3"/><path d="M57.24 8.4l.27-.8a2.19 2.19 0 0 0-1.29-2.76L44.04.17a2.2 2.2 0 0 0-2.85 1.28l-9.5 25.26A2.2 2.2 0 0 0 33 29.55l13.09 4.73a2.2 2.2 0 0 0 2.82-1.36l.22-.63c2.46 1.47 4.8 3 7 4.45l.82-1.42a2.62 2.62 0 0 1 .3-.38c-2.29-1.56-4.76-3.15-7.37-4.7l5.33-15.67 1.33-3.92a57.78 57.78 0 0 1 13.91.06l1.86.31.14-.08c.92-.5 1.89-1 2.86-1.41a35.63 35.63 0 0 0-4.53-.91 57.61 57.61 0 0 0-13.54-.22zm-2.33.28l-7.65 22.49-.36 1 1 .34-1.1-.29-13.13-4.77a.07.07 0 0 1 0-.06l9.5-25.26h.1l12.18 4.7a.08.08 0 0 1 0 .1zm17.95 41.38l.14.09a2.64 2.64 0 0 1 .25-.6l.73-1.26h-.06zm33.1-12.98c-1.8-1.76-3.18-3-4.5-4.17-1.62-1.45-3.18-2.85-5.41-5.1a12.89 12.89 0 0 1-8.39-1.66 13.12 13.12 0 0 1-5.79-7.73.32.32 0 0 0-.54-.13 3.78 3.78 0 0 1-.61.5 24.61 24.61 0 0 0 4.33 6.75c3.2 3.4 6.17 3 7.77 2.74.2 0 .47-.07.63-.08 2.89 3 4.69 4.6 6.59 6.3 1.31 1.17 2.66 2.38 4.44 4.11.35.34.16 2-.07 2.41-.53.9-1.95 1.17-3 1.2-.43-.3-.8-.56-1.14-.82a22.07 22.07 0 0 0-2-1.38c-1.16-.7-9.13-6.34-11.52-9.94a1.06 1.06 0 0 0-1.76 1.17c2.79 4.19 11.36 10.08 12.2 10.58a20.16 20.16 0 0 1 1.84 1.26l.48.35.06.16a3 3 0 0 1-.93 3.33 2.84 2.84 0 0 1-3.36 0 1.17 1.17 0 0 0-.25-.13 1 1 0 0 0-.46-.23 43.46 43.46 0 0 1-7.5-5.45l-.17-.15c-.66-.58-1.56-1.38-2.6-2.38a1.06 1.06 0 1 0-1.47 1.52c1.07 1 2 1.85 2.67 2.44l.17.15c.06.05 4.85 4.18 7.59 5.51a4.52 4.52 0 0 1-1.34 1.61 4.65 4.65 0 0 1-3.87.56h-.13a1 1 0 0 0-.16-.12l-.66-.3a5.88 5.88 0 0 1-1.66-1.06 18.73 18.73 0 0 1-3-3 1.06 1.06 0 1 0-1.65 1.32 20.83 20.83 0 0 0 3.29 3.29 9.7 9.7 0 0 0 1.5 1 4.53 4.53 0 0 1-2.14 0c-.25 0-.45-.08-.61-.09a15.91 15.91 0 0 1-4-.85l-.96 1.6a2.6 2.6 0 0 1-.23.29 18 18 0 0 0 5 1.12l.38.06a8.74 8.74 0 0 0 1.63.18 4.94 4.94 0 0 0 2.21-.49 5 5 0 0 0 1.13-.77 6.3 6.3 0 0 0 7.07-3.34 4.83 4.83 0 0 0 4.84-.67 5.07 5.07 0 0 0 1.9-4.28c1.4-.09 3.42-.53 4.43-2.22.42-.66 1.09-3.6-.27-4.97z" class="cls-3"/><path d="M13.91 81.17h-2.52l-.4-3.67H2.91l-.42 3.67h-2.5v-6.43h1.13c.91-1.06 1.26-2.65 1.92-7.73l.6-4.81h8.92v12.54h1.35v6.43zm-7.22-16.3l-.18 1.83c-.53 5-1.1 6.87-2.54 8h5.08v-9.87H6.69zm22.04 4.99c0 5-2.58 8-6.91 8s-6.89-2.94-6.89-8 2.58-8 6.89-8 6.91 2.9 6.91 8zm-10 0c0 3.89 1.1 5.39 3.09 5.39s3.11-1.5 3.11-5.39-1.06-5.37-3.11-5.37-3.09 1.5-3.09 5.37zm23.5 2.6c0 3.45-2.52 5.06-6 5.06h-5.32V62.17h9.54l-.38 2.74h-5.55v2.72h1.63c3.83.04 6.08 1.63 6.08 4.83zm-3.78 0c0-1.52-.84-2.32-2.61-2.32h-1.32v4.7h1.39c1.62.05 2.55-.67 2.55-2.33zm16.95-5.29c0 3.56-2.52 5.21-6.05 5.21h-1.66v5.1h-3.62V62.17h4.95c3.95 0 6.38 1.68 6.38 5zm-3.73 0c0-1.63-.91-2.41-2.69-2.41H47.7v5h1.35c1.62.05 2.62-.59 2.62-2.59zm18.75 2.69c0 5-2.58 8-6.91 8s-6.89-2.94-6.89-8 2.58-8 6.89-8 6.91 2.9 6.91 8zm-10 0c0 3.89 1.1 5.39 3.09 5.39s3.11-1.5 3.11-5.39-1.06-5.37-3.11-5.37-3.09 1.5-3.09 5.37z" class="cls-1"/><path d="M88.78 77.52h-4l-3.29-6.65H79.9v6.65h-3.58V62.17h3.62v6h1.68l3.18-6h3.52l-3.74 7zm12.63-10.35c0 3.56-2.52 5.21-6.05 5.21H93.7v5.1h-3.62V62.17h4.95c3.95 0 6.38 1.68 6.38 5zm-3.73 0c0-1.63-.91-2.41-2.69-2.41h-1.28v5h1.35c1.63.05 2.62-.59 2.62-2.59zm9.28-2.37v3.67h4.7v2.54h-4.7v3.91h5.76v2.61h-9.4V62.17h9.39l-.39 2.63h-5.39zm20.19 16.37h-2.52l-.4-3.67h-8.08l-.42 3.67h-2.5v-6.43h1.09c.91-1.06 1.26-2.65 1.92-7.73l.6-4.81h8.92v12.54h1.35v6.43zm-7.22-16.3l-.18 1.83c-.53 5-1.1 6.87-2.54 8h5.11v-9.87h-2.36zm17.18 12.65V71.8a33.92 33.92 0 0 1 .51-6l-4.4 11.75h-4.35V62.17h3.56V68a31.5 31.5 0 0 1-.53 5.87l4.48-11.7h4.28v15.31h-3.56zM149.86 65v12.52h-3.62V65h-4v-2.83h11.71l-.35 2.78h-3.78z" class="cls-3"/><path d="M158.09 63.52a2.78 2.78 0 1 1-2.76-2.76 2.78 2.78 0 0 1 2.76 2.76z" class="cls-4"/><path d="M157.4 63.52a2 2 0 1 1-2-2 2 2 0 0 1 2 2z" class="cls-5"/><circle cx="167.52" cy="53.76" r="11.59" class="cls-6"/><path d="M167.8 52.51c0 2-1.44 3-3.47 3h-.95v2.92h-2.06v-8.77h2.84c2.25-.01 3.64.93 3.64 2.85zm-2.14 0a1.29 1.29 0 0 0-1.54-1.34h-.73v2.87h.77a1.31 1.31 0 0 0 1.5-1.53zm3.48 6.13l-.28-1.39a2.24 2.24 0 0 0 2-1.14h-.66l-2.68-6.46h2.14l1.82 5.28 1.61-5.28h2.1l-2.34 6.15a3.7 3.7 0 0 1-3.71 2.84z" class="cls-3"/><path d="M160.31 55.5v-1.49h2.83v1.49zm0 1.82v-.97h5.93v.97z" class="cls-3"/></svg>