<svg xmlns="http://www.w3.org/2000/svg" id="Слой_1" data-name="Слой 1" viewBox="0 0 31.96 31.96">
  <defs>
    <style>
      .cls-1{fill:#44a1a5;}
    </style>
  </defs>
  <path d="M15.98 0a16 16 0 1 0 16 16 16 16 0 0 0-16-16zm0 1.33a14.64 14.64 0 0 1 11.26 24c-1.46-.61-4.91-1.81-7-2.44-.18-.06-.21-.07-.21-.82a4.37 4.37 0 0 1 .51-1.79 9.17 9.17 0 0 0 .71-2.43 5.47 5.47 0 0 0 1-2.53 3.33 3.33 0 0 0 0-2.12v-.13a13.88 13.88 0 0 1 .24-3 5.47 5.47 0 0 0-1.15-3.95 5.89 5.89 0 0 0-4.5-2.15h-1.35a5.86 5.86 0 0 0-4.46 2.15 5.47 5.47 0 0 0-1.15 3.95 13.9 13.9 0 0 1 .24 3 1.1 1.1 0 0 1 0 .14 3.34 3.34 0 0 0 0 2.12 5.44 5.44 0 0 0 1 2.53 9.08 9.08 0 0 0 .71 2.43 4.32 4.32 0 0 1 .29 1.82c0 .76 0 .77-.2.82-2.21.65-5.72 1.92-7 2.49A14.64 14.64 0 0 1 15.98 1.33zM5.75 26.46c1.5-.61 4.49-1.68 6.45-2.26 1.14-.36 1.14-1.32 1.14-2.09a5.75 5.75 0 0 0-.42-2.38 7.53 7.53 0 0 1-.62-2.22.66.66 0 0 0-.23-.44 4 4 0 0 1-.82-2 2.13 2.13 0 0 1 0-1.38 2.58 2.58 0 0 0 .09-.27 13.05 13.05 0 0 0-.21-3.57 4.17 4.17 0 0 1 .89-2.89 4.54 4.54 0 0 1 3.45-1.64h1.28a4.57 4.57 0 0 1 3.49 1.64 4.17 4.17 0 0 1 .89 2.89 13.09 13.09 0 0 0-.21 3.57c0 .1.06.18.09.27a2.13 2.13 0 0 1 0 1.38 4 4 0 0 1-.82 2 .67.67 0 0 0-.23.44 7.5 7.5 0 0 1-.62 2.22 5.65 5.65 0 0 0-.63 2.36c0 .77 0 1.73 1.15 2.1 1.88.56 4.88 1.59 6.47 2.21a14.62 14.62 0 0 1-20.58.06z" class="cls-1"/>
</svg>
